G75*
%MOIN*%
%OFA0B0*%
%FSLAX25Y25*%
%IPPOS*%
%LPD*%
%AMOC8*
5,1,8,0,0,1.08239X$1,22.5*
%
%ADD10R,0.04331X0.03937*%
%ADD11R,0.03937X0.04331*%
%ADD12R,0.04000X0.04000*%
%ADD13R,0.07000X0.07000*%
%ADD14R,0.05118X0.05906*%
%ADD15R,0.03000X0.06000*%
%ADD16C,0.05000*%
%ADD17C,0.06600*%
%ADD18R,0.09000X0.09000*%
%ADD19C,0.02600*%
%ADD20C,0.01200*%
%ADD21C,0.01000*%
D10*
X0073954Y0069600D03*
X0080647Y0069600D03*
X0088954Y0076100D03*
X0095647Y0076100D03*
X0098147Y0067100D03*
X0091454Y0067100D03*
X0091454Y0059100D03*
X0098147Y0059100D03*
X0088347Y0052650D03*
X0081654Y0052650D03*
X0113354Y0056750D03*
X0120047Y0056750D03*
X0095647Y0087100D03*
X0088954Y0087100D03*
X0071747Y0088700D03*
X0065054Y0088700D03*
D11*
X0067301Y0106254D03*
X0067301Y0112946D03*
X0078801Y0112946D03*
X0078801Y0106254D03*
X0090301Y0106254D03*
X0090301Y0112946D03*
X0101801Y0112946D03*
X0101801Y0106254D03*
X0113301Y0106254D03*
X0113301Y0112946D03*
X0124801Y0112946D03*
X0124801Y0106254D03*
X0055801Y0106254D03*
X0055801Y0112946D03*
X0044301Y0112946D03*
X0044301Y0106254D03*
X0032801Y0106254D03*
X0032801Y0112946D03*
D12*
X0038251Y0089900D03*
X0038251Y0070900D03*
D13*
X0027501Y0066150D03*
X0027501Y0094650D03*
D14*
X0112911Y0066000D03*
X0120391Y0066000D03*
D15*
X0119706Y0039780D03*
X0107895Y0039780D03*
X0091006Y0039780D03*
X0079195Y0039780D03*
X0060106Y0039780D03*
X0048295Y0039780D03*
X0048295Y0012220D03*
X0060106Y0012220D03*
X0079195Y0012220D03*
X0091006Y0012220D03*
X0107895Y0012220D03*
X0119706Y0012220D03*
D16*
X0123359Y0074051D03*
X0131233Y0092949D03*
X0103674Y0092949D03*
D17*
X0132301Y0045993D03*
X0132301Y0036150D03*
X0132301Y0026307D03*
D18*
X0080301Y0081600D03*
D19*
X0071051Y0093350D03*
X0066201Y0093300D03*
X0059301Y0099100D03*
X0052801Y0099100D03*
X0049301Y0099100D03*
X0045801Y0099100D03*
X0042096Y0099100D03*
X0042801Y0085900D03*
X0042801Y0072600D03*
X0046301Y0068800D03*
X0039501Y0057900D03*
X0031601Y0043600D03*
X0035801Y0034600D03*
X0054101Y0011900D03*
X0072801Y0019500D03*
X0076601Y0017800D03*
X0085401Y0023300D03*
X0085401Y0028800D03*
X0082051Y0048750D03*
X0074801Y0054100D03*
X0072101Y0051500D03*
X0065901Y0052000D03*
X0077601Y0058700D03*
X0078301Y0063350D03*
X0081801Y0063350D03*
X0085801Y0065850D03*
X0085801Y0069100D03*
X0092301Y0072100D03*
X0091101Y0063200D03*
X0092451Y0052250D03*
X0116101Y0071100D03*
X0099801Y0080600D03*
X0095647Y0083100D03*
X0090051Y0099150D03*
X0078951Y0098850D03*
X0075801Y0099600D03*
X0076501Y0096100D03*
X0063851Y0083600D03*
X0057301Y0083600D03*
X0057301Y0075700D03*
X0065301Y0118600D03*
X0107738Y0098883D03*
X0111994Y0099139D03*
X0115750Y0098998D03*
X0120301Y0118600D03*
X0119901Y0051200D03*
X0123601Y0051200D03*
D20*
X0123601Y0044850D01*
X0132301Y0036150D01*
X0119901Y0039974D02*
X0119706Y0039780D01*
X0119706Y0012220D01*
X0119706Y0010206D01*
X0117201Y0007700D01*
X0094201Y0007700D01*
X0091801Y0010100D01*
X0091801Y0011426D01*
X0091006Y0012220D01*
X0091006Y0010606D01*
X0088101Y0007700D01*
X0073101Y0007700D01*
X0072801Y0008000D01*
X0072801Y0019500D01*
X0075701Y0018700D02*
X0076601Y0017800D01*
X0075701Y0018700D02*
X0075701Y0043900D01*
X0069001Y0050600D01*
X0068951Y0078750D01*
X0064851Y0082850D01*
X0063851Y0083600D01*
X0065054Y0088700D02*
X0065054Y0092154D01*
X0066201Y0093300D01*
X0069001Y0096100D01*
X0072551Y0096100D01*
X0077501Y0091100D01*
X0093551Y0091100D01*
X0095647Y0089004D01*
X0095647Y0087100D01*
X0095647Y0083100D01*
X0095647Y0076100D01*
X0095647Y0075446D01*
X0092301Y0072100D01*
X0093147Y0072100D01*
X0098147Y0067100D01*
X0102147Y0071100D01*
X0116101Y0071100D01*
X0113354Y0065556D02*
X0113354Y0056750D01*
X0118904Y0051200D01*
X0119901Y0051200D01*
X0119901Y0039974D01*
X0123601Y0051200D02*
X0123601Y0053196D01*
X0120047Y0056750D01*
X0120391Y0057094D02*
X0120391Y0066000D01*
X0113304Y0056700D02*
X0104401Y0056700D01*
X0099951Y0052250D01*
X0092451Y0052250D01*
X0088551Y0052246D01*
X0088347Y0052650D01*
X0084801Y0055850D02*
X0094897Y0055850D01*
X0098147Y0059100D01*
X0098147Y0067100D01*
X0091454Y0067100D02*
X0090204Y0065850D01*
X0085801Y0065850D01*
X0080801Y0065850D01*
X0078301Y0063350D01*
X0081801Y0063350D02*
X0084426Y0060725D01*
X0086051Y0059100D01*
X0091454Y0059100D01*
X0084801Y0055850D02*
X0082301Y0053350D01*
X0082301Y0052196D01*
X0081654Y0052650D01*
X0082051Y0050754D01*
X0082051Y0048750D01*
X0080801Y0046200D02*
X0106101Y0046200D01*
X0107901Y0044400D01*
X0107901Y0039785D01*
X0107895Y0039780D01*
X0107895Y0012220D01*
X0091006Y0012220D02*
X0091006Y0039780D01*
X0080801Y0046200D02*
X0074801Y0052200D01*
X0074801Y0054100D01*
X0072101Y0051500D02*
X0072501Y0050900D01*
X0079201Y0044200D01*
X0079201Y0039785D01*
X0079195Y0039780D01*
X0079195Y0012220D01*
X0073101Y0007700D02*
X0063101Y0007700D01*
X0060801Y0010000D01*
X0060801Y0011226D01*
X0060106Y0012220D01*
X0060086Y0011900D01*
X0054101Y0011900D01*
X0048295Y0012220D02*
X0048295Y0039780D01*
X0054716Y0045900D01*
X0062501Y0045900D01*
X0065901Y0049200D01*
X0065901Y0052000D01*
X0073954Y0062346D02*
X0077601Y0058700D01*
X0073954Y0062346D02*
X0073954Y0069600D01*
X0072954Y0070754D01*
X0073801Y0071600D01*
X0073801Y0075100D01*
X0080301Y0081600D01*
X0073301Y0088600D01*
X0071747Y0088700D01*
X0071747Y0092654D01*
X0071051Y0093350D01*
X0075701Y0096100D02*
X0072701Y0099100D01*
X0067401Y0099100D01*
X0060401Y0092100D01*
X0049201Y0081100D01*
X0049201Y0067500D01*
X0044701Y0063100D01*
X0039501Y0057900D01*
X0031601Y0053800D02*
X0031601Y0043600D01*
X0027801Y0042600D02*
X0027801Y0053500D01*
X0042801Y0068500D01*
X0042801Y0072600D01*
X0042801Y0085900D01*
X0042801Y0093400D01*
X0032751Y0103450D01*
X0032801Y0106254D01*
X0027501Y0107696D02*
X0027501Y0094650D01*
X0027501Y0107696D02*
X0032801Y0112946D01*
X0032751Y0114950D01*
X0036501Y0118600D01*
X0065301Y0118600D01*
X0067301Y0118600D01*
X0067301Y0112946D01*
X0067301Y0118600D02*
X0084647Y0118600D01*
X0090301Y0112946D01*
X0101801Y0112946D01*
X0113301Y0112946D01*
X0124801Y0112946D01*
X0120301Y0112946D01*
X0120301Y0118600D01*
X0123301Y0106549D02*
X0115750Y0098998D01*
X0111994Y0099139D02*
X0112001Y0104400D01*
X0113501Y0105754D01*
X0113301Y0106254D01*
X0107738Y0098883D02*
X0101801Y0104820D01*
X0101801Y0106254D01*
X0094501Y0101550D02*
X0099801Y0096200D01*
X0099801Y0080600D01*
X0088954Y0076100D02*
X0085801Y0076100D01*
X0080301Y0081600D01*
X0085801Y0087100D01*
X0088954Y0087100D01*
X0076501Y0096100D02*
X0075701Y0096100D01*
X0075801Y0099600D02*
X0077751Y0101600D01*
X0090401Y0101600D01*
X0090301Y0101700D01*
X0090301Y0106254D01*
X0078801Y0106254D01*
X0078801Y0112946D02*
X0076547Y0112946D01*
X0070001Y0106400D01*
X0067447Y0106400D01*
X0067301Y0106254D01*
X0066101Y0105900D01*
X0059301Y0099100D01*
X0055801Y0102100D02*
X0055801Y0106254D01*
X0055801Y0102100D02*
X0052801Y0099100D01*
X0051501Y0101300D02*
X0051501Y0108646D01*
X0055801Y0112946D01*
X0048001Y0109246D02*
X0044301Y0112946D01*
X0048001Y0109246D02*
X0048001Y0102600D01*
X0045801Y0100400D01*
X0045801Y0099100D01*
X0049301Y0099100D02*
X0051501Y0101300D01*
X0044301Y0106254D02*
X0042096Y0104058D01*
X0042096Y0099100D01*
X0057301Y0083600D02*
X0057301Y0075700D01*
X0046301Y0068800D02*
X0046301Y0068500D01*
X0031601Y0053800D01*
X0027801Y0042600D02*
X0035801Y0034600D01*
X0060106Y0039780D02*
X0060106Y0012220D01*
X0085401Y0023300D02*
X0085401Y0028800D01*
X0085801Y0069100D02*
X0081147Y0069100D01*
X0080647Y0069600D01*
X0090401Y0101600D02*
X0094401Y0101600D01*
X0094501Y0101550D01*
X0123301Y0106549D02*
X0124801Y0106254D01*
D21*
X0022301Y0134600D02*
X0022301Y0008600D01*
X0044795Y0008600D01*
X0044795Y0016049D01*
X0045695Y0016949D01*
X0045695Y0035051D01*
X0044795Y0035951D01*
X0044795Y0043608D01*
X0045967Y0044780D01*
X0049772Y0044780D01*
X0052899Y0047760D01*
X0053243Y0048104D01*
X0053273Y0048116D01*
X0053296Y0048139D01*
X0053750Y0048314D01*
X0054199Y0048500D01*
X0054231Y0048500D01*
X0054261Y0048512D01*
X0054747Y0048500D01*
X0061447Y0048500D01*
X0063115Y0050119D01*
X0063103Y0050131D01*
X0062601Y0051344D01*
X0062601Y0052656D01*
X0063103Y0053869D01*
X0064032Y0054798D01*
X0065244Y0055300D01*
X0066393Y0055300D01*
X0066353Y0077671D01*
X0063724Y0080300D01*
X0063194Y0080300D01*
X0061982Y0080802D01*
X0061053Y0081731D01*
X0060576Y0082883D01*
X0060098Y0081731D01*
X0059901Y0081533D01*
X0059901Y0077767D01*
X0060098Y0077569D01*
X0060601Y0076356D01*
X0060601Y0075044D01*
X0060098Y0073831D01*
X0059170Y0072902D01*
X0057957Y0072400D01*
X0056644Y0072400D01*
X0055432Y0072902D01*
X0054503Y0073831D01*
X0054001Y0075044D01*
X0054001Y0076356D01*
X0054503Y0077569D01*
X0054701Y0077767D01*
X0054701Y0081533D01*
X0054503Y0081731D01*
X0054229Y0082394D01*
X0051801Y0080009D01*
X0051801Y0068002D01*
X0051807Y0067988D01*
X0051801Y0067486D01*
X0051801Y0066983D01*
X0051795Y0066969D01*
X0051795Y0066954D01*
X0051597Y0066492D01*
X0051405Y0066027D01*
X0051394Y0066016D01*
X0051388Y0066003D01*
X0051029Y0065651D01*
X0050674Y0065296D01*
X0050660Y0065290D01*
X0046529Y0061251D01*
X0042801Y0057523D01*
X0042801Y0057244D01*
X0042298Y0056031D01*
X0041370Y0055102D01*
X0040157Y0054600D01*
X0038844Y0054600D01*
X0037632Y0055102D01*
X0037106Y0055628D01*
X0034201Y0052723D01*
X0034201Y0045667D01*
X0034398Y0045469D01*
X0034901Y0044256D01*
X0034901Y0042944D01*
X0034398Y0041731D01*
X0033470Y0040802D01*
X0033332Y0040745D01*
X0036178Y0037900D01*
X0036457Y0037900D01*
X0037670Y0037398D01*
X0038598Y0036469D01*
X0039101Y0035256D01*
X0039101Y0033944D01*
X0038598Y0032731D01*
X0037670Y0031802D01*
X0036457Y0031300D01*
X0035144Y0031300D01*
X0033932Y0031802D01*
X0033003Y0032731D01*
X0032501Y0033944D01*
X0032501Y0034223D01*
X0026328Y0040396D01*
X0025597Y0041127D01*
X0025201Y0042083D01*
X0025201Y0054017D01*
X0025597Y0054973D01*
X0038024Y0067400D01*
X0036053Y0067400D01*
X0035672Y0067502D01*
X0035330Y0067700D01*
X0035051Y0067979D01*
X0034853Y0068321D01*
X0034751Y0068703D01*
X0034751Y0070900D01*
X0038251Y0070900D01*
X0038251Y0070900D01*
X0038251Y0074400D01*
X0039975Y0074400D01*
X0040003Y0074469D01*
X0040201Y0074667D01*
X0040201Y0083833D01*
X0040003Y0084031D01*
X0039501Y0085244D01*
X0039501Y0086400D01*
X0038251Y0086400D01*
X0038251Y0089900D01*
X0038251Y0089900D01*
X0038251Y0093400D01*
X0039124Y0093400D01*
X0031261Y0101263D01*
X0031239Y0101272D01*
X0030896Y0101628D01*
X0030547Y0101977D01*
X0030538Y0101999D01*
X0030521Y0102017D01*
X0030493Y0102088D01*
X0030004Y0102088D01*
X0028832Y0103260D01*
X0028832Y0109247D01*
X0029564Y0109979D01*
X0029435Y0110202D01*
X0029332Y0110584D01*
X0029332Y0112462D01*
X0032317Y0112462D01*
X0032317Y0113431D01*
X0032317Y0116612D01*
X0030635Y0116612D01*
X0030253Y0116510D01*
X0029911Y0116312D01*
X0029632Y0116033D01*
X0029435Y0115691D01*
X0029332Y0115309D01*
X0029332Y0113431D01*
X0032317Y0113431D01*
X0033285Y0113431D01*
X0033285Y0116612D01*
X0034967Y0116612D01*
X0035348Y0116510D01*
X0035690Y0116312D01*
X0035970Y0116033D01*
X0036167Y0115691D01*
X0036269Y0115309D01*
X0036269Y0113431D01*
X0033285Y0113431D01*
X0033285Y0112462D01*
X0036269Y0112462D01*
X0036269Y0110584D01*
X0036167Y0110202D01*
X0036038Y0109979D01*
X0036769Y0109247D01*
X0036769Y0103260D01*
X0036694Y0103184D01*
X0039184Y0100693D01*
X0039299Y0100969D01*
X0039496Y0101167D01*
X0039496Y0103544D01*
X0039495Y0103547D01*
X0039496Y0104061D01*
X0039496Y0104575D01*
X0039497Y0104578D01*
X0039497Y0104581D01*
X0039695Y0105056D01*
X0039892Y0105531D01*
X0039894Y0105533D01*
X0039895Y0105536D01*
X0040262Y0105901D01*
X0040332Y0105971D01*
X0040332Y0109247D01*
X0040685Y0109600D01*
X0040332Y0109953D01*
X0040332Y0115940D01*
X0041504Y0117112D01*
X0047098Y0117112D01*
X0048269Y0115940D01*
X0048269Y0112655D01*
X0050051Y0110873D01*
X0051832Y0112655D01*
X0051832Y0115940D01*
X0053004Y0117112D01*
X0058598Y0117112D01*
X0059769Y0115940D01*
X0059769Y0109953D01*
X0059417Y0109600D01*
X0059769Y0109247D01*
X0059769Y0103260D01*
X0058910Y0102400D01*
X0058924Y0102400D01*
X0063332Y0106808D01*
X0063332Y0109247D01*
X0064064Y0109979D01*
X0063935Y0110202D01*
X0063832Y0110584D01*
X0063832Y0112462D01*
X0066817Y0112462D01*
X0066817Y0113431D01*
X0066817Y0116612D01*
X0065135Y0116612D01*
X0064753Y0116510D01*
X0064411Y0116312D01*
X0064132Y0116033D01*
X0063935Y0115691D01*
X0063832Y0115309D01*
X0063832Y0113431D01*
X0066817Y0113431D01*
X0067785Y0113431D01*
X0067785Y0116612D01*
X0069467Y0116612D01*
X0069848Y0116510D01*
X0070190Y0116312D01*
X0070470Y0116033D01*
X0070667Y0115691D01*
X0070769Y0115309D01*
X0070769Y0113431D01*
X0067785Y0113431D01*
X0067785Y0112462D01*
X0070769Y0112462D01*
X0070769Y0110845D01*
X0074832Y0114908D01*
X0074832Y0115940D01*
X0076004Y0117112D01*
X0081598Y0117112D01*
X0082769Y0115940D01*
X0082769Y0109953D01*
X0082417Y0109600D01*
X0082769Y0109247D01*
X0082769Y0108854D01*
X0086332Y0108854D01*
X0086332Y0109247D01*
X0087064Y0109979D01*
X0086935Y0110202D01*
X0086832Y0110584D01*
X0086832Y0112462D01*
X0089817Y0112462D01*
X0089817Y0113431D01*
X0089817Y0116612D01*
X0088135Y0116612D01*
X0087753Y0116510D01*
X0087411Y0116312D01*
X0087132Y0116033D01*
X0086935Y0115691D01*
X0086832Y0115309D01*
X0086832Y0113431D01*
X0089817Y0113431D01*
X0090785Y0113431D01*
X0090785Y0116612D01*
X0092467Y0116612D01*
X0092848Y0116510D01*
X0093190Y0116312D01*
X0093470Y0116033D01*
X0093667Y0115691D01*
X0093769Y0115309D01*
X0093769Y0113431D01*
X0090785Y0113431D01*
X0090785Y0112462D01*
X0093769Y0112462D01*
X0093769Y0110584D01*
X0093667Y0110202D01*
X0093538Y0109979D01*
X0094269Y0109247D01*
X0094269Y0104216D01*
X0094493Y0104200D01*
X0094918Y0104200D01*
X0095006Y0104164D01*
X0095101Y0104157D01*
X0095481Y0103967D01*
X0095874Y0103804D01*
X0095892Y0103786D01*
X0095984Y0103747D01*
X0096047Y0103684D01*
X0096126Y0103644D01*
X0096409Y0103319D01*
X0101644Y0098034D01*
X0102005Y0097673D01*
X0102007Y0097667D01*
X0102012Y0097662D01*
X0102198Y0097208D01*
X0102779Y0097449D01*
X0104569Y0097449D01*
X0104800Y0097353D01*
X0104438Y0098227D01*
X0104438Y0098507D01*
X0100856Y0102088D01*
X0099004Y0102088D01*
X0097832Y0103260D01*
X0097832Y0109247D01*
X0098564Y0109979D01*
X0098435Y0110202D01*
X0098332Y0110584D01*
X0098332Y0112462D01*
X0101317Y0112462D01*
X0101317Y0113431D01*
X0101317Y0116612D01*
X0099635Y0116612D01*
X0099253Y0116510D01*
X0098911Y0116312D01*
X0098632Y0116033D01*
X0098435Y0115691D01*
X0098332Y0115309D01*
X0098332Y0113431D01*
X0101317Y0113431D01*
X0102285Y0113431D01*
X0102285Y0116612D01*
X0103967Y0116612D01*
X0104348Y0116510D01*
X0104690Y0116312D01*
X0104970Y0116033D01*
X0105167Y0115691D01*
X0105269Y0115309D01*
X0105269Y0113431D01*
X0102285Y0113431D01*
X0102285Y0112462D01*
X0105269Y0112462D01*
X0105269Y0110584D01*
X0105167Y0110202D01*
X0105038Y0109979D01*
X0105769Y0109247D01*
X0105769Y0104529D01*
X0108115Y0102183D01*
X0108394Y0102183D01*
X0109397Y0101768D01*
X0109399Y0103193D01*
X0109332Y0103260D01*
X0109332Y0109247D01*
X0110064Y0109979D01*
X0109935Y0110202D01*
X0109832Y0110584D01*
X0109832Y0112462D01*
X0112817Y0112462D01*
X0112817Y0113431D01*
X0112817Y0116612D01*
X0111135Y0116612D01*
X0110753Y0116510D01*
X0110411Y0116312D01*
X0110132Y0116033D01*
X0109935Y0115691D01*
X0109832Y0115309D01*
X0109832Y0113431D01*
X0112817Y0113431D01*
X0113785Y0113431D01*
X0113785Y0116612D01*
X0115467Y0116612D01*
X0115848Y0116510D01*
X0116190Y0116312D01*
X0116470Y0116033D01*
X0116667Y0115691D01*
X0116769Y0115309D01*
X0116769Y0113431D01*
X0113785Y0113431D01*
X0113785Y0112462D01*
X0116769Y0112462D01*
X0116769Y0110584D01*
X0116667Y0110202D01*
X0116538Y0109979D01*
X0117269Y0109247D01*
X0117269Y0104194D01*
X0120832Y0107757D01*
X0120832Y0109247D01*
X0121564Y0109979D01*
X0121435Y0110202D01*
X0121332Y0110584D01*
X0121332Y0112462D01*
X0124317Y0112462D01*
X0124317Y0113431D01*
X0124317Y0116612D01*
X0122635Y0116612D01*
X0122253Y0116510D01*
X0121911Y0116312D01*
X0121632Y0116033D01*
X0121435Y0115691D01*
X0121332Y0115309D01*
X0121332Y0113431D01*
X0124317Y0113431D01*
X0125285Y0113431D01*
X0125285Y0116612D01*
X0126967Y0116612D01*
X0127348Y0116510D01*
X0127690Y0116312D01*
X0127970Y0116033D01*
X0128167Y0115691D01*
X0128269Y0115309D01*
X0128269Y0113431D01*
X0125285Y0113431D01*
X0125285Y0112462D01*
X0128269Y0112462D01*
X0128269Y0110584D01*
X0128167Y0110202D01*
X0128038Y0109979D01*
X0128769Y0109247D01*
X0128769Y0103260D01*
X0127598Y0102088D01*
X0122517Y0102088D01*
X0119050Y0098621D01*
X0119050Y0098341D01*
X0118547Y0097128D01*
X0117619Y0096200D01*
X0116406Y0095698D01*
X0115093Y0095698D01*
X0113880Y0096200D01*
X0113775Y0096305D01*
X0112650Y0095839D01*
X0111337Y0095839D01*
X0110125Y0096342D01*
X0109994Y0096472D01*
X0109607Y0096086D01*
X0108394Y0095583D01*
X0107403Y0095583D01*
X0107489Y0095498D01*
X0108174Y0093844D01*
X0108174Y0092054D01*
X0107489Y0090400D01*
X0106223Y0089134D01*
X0104569Y0088449D01*
X0102779Y0088449D01*
X0102401Y0088605D01*
X0102401Y0082667D01*
X0102598Y0082469D01*
X0103101Y0081256D01*
X0103101Y0079944D01*
X0102598Y0078731D01*
X0101670Y0077802D01*
X0100457Y0077300D01*
X0099813Y0077300D01*
X0099813Y0073303D01*
X0098641Y0072131D01*
X0096793Y0072131D01*
X0097856Y0071068D01*
X0098439Y0071068D01*
X0100675Y0073304D01*
X0101630Y0073700D01*
X0114034Y0073700D01*
X0114232Y0073898D01*
X0115444Y0074400D01*
X0116757Y0074400D01*
X0117970Y0073898D01*
X0118898Y0072969D01*
X0119401Y0071756D01*
X0119401Y0070953D01*
X0120094Y0070953D01*
X0119544Y0071502D01*
X0118859Y0073156D01*
X0118859Y0074946D01*
X0119544Y0076600D01*
X0120810Y0077866D01*
X0122464Y0078551D01*
X0124254Y0078551D01*
X0125908Y0077866D01*
X0127174Y0076600D01*
X0127859Y0074946D01*
X0127859Y0073156D01*
X0127174Y0071502D01*
X0125908Y0070236D01*
X0124909Y0069822D01*
X0124950Y0069781D01*
X0124950Y0062219D01*
X0123779Y0061047D01*
X0122991Y0061047D01*
X0122991Y0060718D01*
X0123041Y0060718D01*
X0124213Y0059547D01*
X0124213Y0056262D01*
X0125805Y0054669D01*
X0126201Y0053714D01*
X0126201Y0053267D01*
X0126398Y0053069D01*
X0126901Y0051856D01*
X0126901Y0050544D01*
X0126398Y0049331D01*
X0126201Y0049133D01*
X0126201Y0045927D01*
X0127001Y0045127D01*
X0127001Y0047047D01*
X0127808Y0048995D01*
X0129299Y0050486D01*
X0131247Y0051293D01*
X0133355Y0051293D01*
X0135303Y0050486D01*
X0136794Y0048995D01*
X0137601Y0047047D01*
X0137601Y0044938D01*
X0136794Y0042990D01*
X0135303Y0041499D01*
X0134269Y0041071D01*
X0135303Y0040643D01*
X0136794Y0039152D01*
X0137601Y0037204D01*
X0137601Y0035096D01*
X0136794Y0033148D01*
X0135303Y0031657D01*
X0134269Y0031229D01*
X0135303Y0030801D01*
X0136794Y0029310D01*
X0137601Y0027362D01*
X0137601Y0025253D01*
X0136794Y0023305D01*
X0135303Y0021814D01*
X0133355Y0021007D01*
X0131247Y0021007D01*
X0129299Y0021814D01*
X0127808Y0023305D01*
X0127001Y0025253D01*
X0127001Y0027362D01*
X0127808Y0029310D01*
X0129299Y0030801D01*
X0130332Y0031229D01*
X0129299Y0031657D01*
X0127808Y0033148D01*
X0127001Y0035096D01*
X0127001Y0037204D01*
X0127168Y0037606D01*
X0122706Y0042068D01*
X0122706Y0040030D01*
X0119956Y0040030D01*
X0119456Y0040030D01*
X0119456Y0044280D01*
X0118009Y0044280D01*
X0117627Y0044177D01*
X0117285Y0043980D01*
X0117006Y0043701D01*
X0116809Y0043359D01*
X0116706Y0042977D01*
X0116706Y0040030D01*
X0119456Y0040030D01*
X0119456Y0039530D01*
X0116706Y0039530D01*
X0116706Y0036582D01*
X0116809Y0036201D01*
X0117006Y0035859D01*
X0117285Y0035579D01*
X0117627Y0035382D01*
X0118009Y0035280D01*
X0119456Y0035280D01*
X0119456Y0039529D01*
X0119956Y0039529D01*
X0119956Y0035280D01*
X0121404Y0035280D01*
X0121785Y0035382D01*
X0122127Y0035579D01*
X0122407Y0035859D01*
X0122604Y0036201D01*
X0122706Y0036582D01*
X0122706Y0039530D01*
X0119956Y0039530D01*
X0119956Y0040030D01*
X0119956Y0044280D01*
X0121023Y0044280D01*
X0121001Y0044333D01*
X0121001Y0049133D01*
X0120803Y0049331D01*
X0120301Y0050544D01*
X0120301Y0051856D01*
X0120583Y0052537D01*
X0120339Y0052781D01*
X0117054Y0052781D01*
X0116322Y0053513D01*
X0116099Y0053384D01*
X0115717Y0053281D01*
X0113839Y0053281D01*
X0113839Y0056266D01*
X0112870Y0056266D01*
X0109689Y0056266D01*
X0109689Y0054584D01*
X0109791Y0054203D01*
X0109989Y0053860D01*
X0110268Y0053581D01*
X0110610Y0053384D01*
X0110992Y0053281D01*
X0112870Y0053281D01*
X0112870Y0056266D01*
X0112870Y0057234D01*
X0109689Y0057234D01*
X0109689Y0058916D01*
X0109791Y0059297D01*
X0109989Y0059640D01*
X0110268Y0059919D01*
X0110610Y0060116D01*
X0110992Y0060218D01*
X0112870Y0060218D01*
X0112870Y0057234D01*
X0113839Y0057234D01*
X0113839Y0060218D01*
X0115717Y0060218D01*
X0116099Y0060116D01*
X0116322Y0059987D01*
X0117054Y0060718D01*
X0117791Y0060718D01*
X0117791Y0061047D01*
X0117004Y0061047D01*
X0116272Y0061779D01*
X0116049Y0061649D01*
X0115667Y0061547D01*
X0113411Y0061547D01*
X0113411Y0065500D01*
X0112411Y0065500D01*
X0112411Y0061547D01*
X0110154Y0061547D01*
X0109773Y0061649D01*
X0109431Y0061847D01*
X0109151Y0062126D01*
X0108954Y0062468D01*
X0108852Y0062850D01*
X0108852Y0065500D01*
X0112411Y0065500D01*
X0112411Y0066500D01*
X0108852Y0066500D01*
X0108852Y0068500D01*
X0103224Y0068500D01*
X0102313Y0067588D01*
X0102313Y0064303D01*
X0101141Y0063131D01*
X0100747Y0063131D01*
X0100747Y0063068D01*
X0101141Y0063068D01*
X0102313Y0061897D01*
X0102313Y0056303D01*
X0101141Y0055131D01*
X0097856Y0055131D01*
X0097102Y0054377D01*
X0096370Y0053646D01*
X0095415Y0053250D01*
X0092013Y0053250D01*
X0092013Y0053134D01*
X0088832Y0053134D01*
X0088832Y0052166D01*
X0092013Y0052166D01*
X0092013Y0050484D01*
X0091910Y0050103D01*
X0091713Y0049760D01*
X0091434Y0049481D01*
X0091092Y0049284D01*
X0090710Y0049181D01*
X0088832Y0049181D01*
X0088832Y0052166D01*
X0087863Y0052166D01*
X0087863Y0049181D01*
X0085985Y0049181D01*
X0085603Y0049284D01*
X0085379Y0049413D01*
X0085351Y0049384D01*
X0085351Y0048800D01*
X0106618Y0048800D01*
X0107574Y0048404D01*
X0109374Y0046604D01*
X0110105Y0045873D01*
X0110501Y0044917D01*
X0110501Y0044502D01*
X0111395Y0043608D01*
X0111395Y0035951D01*
X0110495Y0035051D01*
X0110495Y0016949D01*
X0111395Y0016049D01*
X0111395Y0008600D01*
X0116833Y0008600D01*
X0116809Y0008641D01*
X0116706Y0009023D01*
X0116706Y0011970D01*
X0119456Y0011970D01*
X0119956Y0011970D01*
X0119956Y0008600D01*
X0119456Y0008600D01*
X0119456Y0011970D01*
X0119456Y0012470D01*
X0116706Y0012470D01*
X0116706Y0015418D01*
X0116809Y0015799D01*
X0117006Y0016141D01*
X0117285Y0016421D01*
X0117627Y0016618D01*
X0118009Y0016720D01*
X0119456Y0016720D01*
X0119456Y0012471D01*
X0119956Y0012471D01*
X0119956Y0016720D01*
X0121404Y0016720D01*
X0121785Y0016618D01*
X0122127Y0016421D01*
X0122407Y0016141D01*
X0122604Y0015799D01*
X0122706Y0015418D01*
X0122706Y0012470D01*
X0119956Y0012470D01*
X0119956Y0011970D01*
X0122706Y0011970D01*
X0122706Y0009023D01*
X0122604Y0008641D01*
X0122580Y0008600D01*
X0138301Y0008600D01*
X0138301Y0134600D01*
X0109301Y0134600D01*
X0109301Y0128272D01*
X0108129Y0127100D01*
X0052472Y0127100D01*
X0051301Y0128272D01*
X0051301Y0134600D01*
X0022301Y0134600D01*
X0022301Y0134409D02*
X0051301Y0134409D01*
X0051301Y0133411D02*
X0022301Y0133411D01*
X0022301Y0132412D02*
X0051301Y0132412D01*
X0051301Y0131414D02*
X0022301Y0131414D01*
X0022301Y0130415D02*
X0051301Y0130415D01*
X0051301Y0129417D02*
X0022301Y0129417D01*
X0022301Y0128418D02*
X0051301Y0128418D01*
X0052153Y0127420D02*
X0022301Y0127420D01*
X0022301Y0126421D02*
X0138301Y0126421D01*
X0138301Y0125423D02*
X0022301Y0125423D01*
X0022301Y0124424D02*
X0138301Y0124424D01*
X0138301Y0123426D02*
X0022301Y0123426D01*
X0022301Y0122427D02*
X0138301Y0122427D01*
X0138301Y0121429D02*
X0022301Y0121429D01*
X0022301Y0120430D02*
X0138301Y0120430D01*
X0138301Y0119432D02*
X0022301Y0119432D01*
X0022301Y0118433D02*
X0138301Y0118433D01*
X0138301Y0117435D02*
X0022301Y0117435D01*
X0022301Y0116436D02*
X0030126Y0116436D01*
X0029367Y0115438D02*
X0022301Y0115438D01*
X0022301Y0114439D02*
X0029332Y0114439D01*
X0029332Y0113441D02*
X0022301Y0113441D01*
X0022301Y0112442D02*
X0029332Y0112442D01*
X0029332Y0111444D02*
X0022301Y0111444D01*
X0022301Y0110445D02*
X0029369Y0110445D01*
X0029032Y0109447D02*
X0022301Y0109447D01*
X0022301Y0108448D02*
X0028832Y0108448D01*
X0028832Y0107450D02*
X0022301Y0107450D01*
X0022301Y0106451D02*
X0028832Y0106451D01*
X0028832Y0105453D02*
X0022301Y0105453D01*
X0022301Y0104454D02*
X0028832Y0104454D01*
X0028832Y0103456D02*
X0022301Y0103456D01*
X0022301Y0102457D02*
X0029635Y0102457D01*
X0031059Y0101459D02*
X0022301Y0101459D01*
X0022301Y0100460D02*
X0032064Y0100460D01*
X0031580Y0099548D02*
X0031198Y0099650D01*
X0027985Y0099650D01*
X0027985Y0095134D01*
X0032501Y0095134D01*
X0032501Y0098347D01*
X0032399Y0098729D01*
X0032201Y0099071D01*
X0031922Y0099350D01*
X0031580Y0099548D01*
X0031729Y0099462D02*
X0033062Y0099462D01*
X0032470Y0098463D02*
X0034061Y0098463D01*
X0035059Y0097465D02*
X0032501Y0097465D01*
X0032501Y0096466D02*
X0036058Y0096466D01*
X0037056Y0095468D02*
X0032501Y0095468D01*
X0032501Y0094166D02*
X0027985Y0094166D01*
X0027985Y0095134D01*
X0027017Y0095134D01*
X0027017Y0099650D01*
X0023803Y0099650D01*
X0023422Y0099548D01*
X0023080Y0099350D01*
X0022801Y0099071D01*
X0022603Y0098729D01*
X0022501Y0098347D01*
X0022501Y0095134D01*
X0027017Y0095134D01*
X0027017Y0094166D01*
X0027985Y0094166D01*
X0027985Y0089650D01*
X0031198Y0089650D01*
X0031580Y0089752D01*
X0031922Y0089950D01*
X0032201Y0090229D01*
X0032399Y0090571D01*
X0032501Y0090953D01*
X0032501Y0094166D01*
X0032501Y0093470D02*
X0039053Y0093470D01*
X0038251Y0093400D02*
X0036053Y0093400D01*
X0035672Y0093298D01*
X0035330Y0093100D01*
X0035051Y0092821D01*
X0034853Y0092479D01*
X0034751Y0092097D01*
X0034751Y0089900D01*
X0038251Y0089900D01*
X0038251Y0089900D01*
X0038251Y0086400D01*
X0036053Y0086400D01*
X0035672Y0086502D01*
X0035330Y0086700D01*
X0035051Y0086979D01*
X0034853Y0087321D01*
X0034751Y0087703D01*
X0034751Y0089900D01*
X0038251Y0089900D01*
X0038251Y0093400D01*
X0038251Y0092472D02*
X0038251Y0092472D01*
X0038251Y0091473D02*
X0038251Y0091473D01*
X0038251Y0090475D02*
X0038251Y0090475D01*
X0038251Y0089900D02*
X0038251Y0089900D01*
X0038251Y0089476D02*
X0038251Y0089476D01*
X0038251Y0088478D02*
X0038251Y0088478D01*
X0038251Y0087479D02*
X0038251Y0087479D01*
X0038251Y0086481D02*
X0038251Y0086481D01*
X0039501Y0085482D02*
X0022301Y0085482D01*
X0022301Y0084484D02*
X0039816Y0084484D01*
X0040201Y0083485D02*
X0022301Y0083485D01*
X0022301Y0082487D02*
X0040201Y0082487D01*
X0040201Y0081488D02*
X0022301Y0081488D01*
X0022301Y0080490D02*
X0040201Y0080490D01*
X0040201Y0079491D02*
X0022301Y0079491D01*
X0022301Y0078493D02*
X0040201Y0078493D01*
X0040201Y0077494D02*
X0022301Y0077494D01*
X0022301Y0076496D02*
X0040201Y0076496D01*
X0040201Y0075497D02*
X0022301Y0075497D01*
X0022301Y0074499D02*
X0040033Y0074499D01*
X0038251Y0074400D02*
X0036053Y0074400D01*
X0035672Y0074298D01*
X0035330Y0074100D01*
X0035051Y0073821D01*
X0034853Y0073479D01*
X0034751Y0073097D01*
X0034751Y0070900D01*
X0038251Y0070900D01*
X0038251Y0074400D01*
X0038251Y0073500D02*
X0038251Y0073500D01*
X0038251Y0072502D02*
X0038251Y0072502D01*
X0038251Y0071503D02*
X0038251Y0071503D01*
X0038251Y0070900D02*
X0038251Y0070900D01*
X0034865Y0073500D02*
X0022301Y0073500D01*
X0022301Y0072502D02*
X0034751Y0072502D01*
X0034751Y0071503D02*
X0022301Y0071503D01*
X0022301Y0070505D02*
X0022762Y0070505D01*
X0022801Y0070571D02*
X0022603Y0070229D01*
X0022501Y0069847D01*
X0022501Y0066634D01*
X0027017Y0066634D01*
X0027017Y0071150D01*
X0023803Y0071150D01*
X0023422Y0071048D01*
X0023080Y0070850D01*
X0022801Y0070571D01*
X0022501Y0069506D02*
X0022301Y0069506D01*
X0022301Y0068508D02*
X0022501Y0068508D01*
X0022501Y0067509D02*
X0022301Y0067509D01*
X0022301Y0066511D02*
X0027017Y0066511D01*
X0027017Y0066634D02*
X0027017Y0065666D01*
X0027985Y0065666D01*
X0027985Y0066634D01*
X0032501Y0066634D01*
X0032501Y0069847D01*
X0032399Y0070229D01*
X0032201Y0070571D01*
X0031922Y0070850D01*
X0031580Y0071048D01*
X0031198Y0071150D01*
X0027985Y0071150D01*
X0027985Y0066634D01*
X0027017Y0066634D01*
X0027017Y0067509D02*
X0027985Y0067509D01*
X0027985Y0066511D02*
X0037135Y0066511D01*
X0036136Y0065512D02*
X0032501Y0065512D01*
X0032501Y0065666D02*
X0027985Y0065666D01*
X0027985Y0061150D01*
X0031198Y0061150D01*
X0031580Y0061252D01*
X0031922Y0061450D01*
X0032201Y0061729D01*
X0032399Y0062071D01*
X0032501Y0062453D01*
X0032501Y0065666D01*
X0032501Y0064514D02*
X0035138Y0064514D01*
X0034139Y0063515D02*
X0032501Y0063515D01*
X0032501Y0062517D02*
X0033141Y0062517D01*
X0032142Y0061518D02*
X0031990Y0061518D01*
X0031144Y0060520D02*
X0022301Y0060520D01*
X0022301Y0061518D02*
X0023011Y0061518D01*
X0023080Y0061450D02*
X0023422Y0061252D01*
X0023803Y0061150D01*
X0027017Y0061150D01*
X0027017Y0065666D01*
X0022501Y0065666D01*
X0022501Y0062453D01*
X0022603Y0062071D01*
X0022801Y0061729D01*
X0023080Y0061450D01*
X0022501Y0062517D02*
X0022301Y0062517D01*
X0022301Y0063515D02*
X0022501Y0063515D01*
X0022501Y0064514D02*
X0022301Y0064514D01*
X0022301Y0065512D02*
X0022501Y0065512D01*
X0027017Y0065512D02*
X0027985Y0065512D01*
X0027985Y0064514D02*
X0027017Y0064514D01*
X0027017Y0063515D02*
X0027985Y0063515D01*
X0027985Y0062517D02*
X0027017Y0062517D01*
X0027017Y0061518D02*
X0027985Y0061518D01*
X0030145Y0059521D02*
X0022301Y0059521D01*
X0022301Y0058523D02*
X0029147Y0058523D01*
X0028148Y0057524D02*
X0022301Y0057524D01*
X0022301Y0056526D02*
X0027150Y0056526D01*
X0026151Y0055527D02*
X0022301Y0055527D01*
X0022301Y0054529D02*
X0025413Y0054529D01*
X0025201Y0053530D02*
X0022301Y0053530D01*
X0022301Y0052532D02*
X0025201Y0052532D01*
X0025201Y0051533D02*
X0022301Y0051533D01*
X0022301Y0050534D02*
X0025201Y0050534D01*
X0025201Y0049536D02*
X0022301Y0049536D01*
X0022301Y0048537D02*
X0025201Y0048537D01*
X0025201Y0047539D02*
X0022301Y0047539D01*
X0022301Y0046540D02*
X0025201Y0046540D01*
X0025201Y0045542D02*
X0022301Y0045542D01*
X0022301Y0044543D02*
X0025201Y0044543D01*
X0025201Y0043545D02*
X0022301Y0043545D01*
X0022301Y0042546D02*
X0025201Y0042546D01*
X0025422Y0041548D02*
X0022301Y0041548D01*
X0022301Y0040549D02*
X0026175Y0040549D01*
X0027173Y0039551D02*
X0022301Y0039551D01*
X0022301Y0038552D02*
X0028172Y0038552D01*
X0029170Y0037554D02*
X0022301Y0037554D01*
X0022301Y0036555D02*
X0030169Y0036555D01*
X0031167Y0035557D02*
X0022301Y0035557D01*
X0022301Y0034558D02*
X0032166Y0034558D01*
X0032660Y0033560D02*
X0022301Y0033560D01*
X0022301Y0032561D02*
X0033173Y0032561D01*
X0034510Y0031563D02*
X0022301Y0031563D01*
X0022301Y0030564D02*
X0045695Y0030564D01*
X0045695Y0029566D02*
X0022301Y0029566D01*
X0022301Y0028567D02*
X0045695Y0028567D01*
X0045695Y0027569D02*
X0022301Y0027569D01*
X0022301Y0026570D02*
X0045695Y0026570D01*
X0045695Y0025572D02*
X0022301Y0025572D01*
X0022301Y0024573D02*
X0045695Y0024573D01*
X0045695Y0023575D02*
X0022301Y0023575D01*
X0022301Y0022576D02*
X0045695Y0022576D01*
X0045695Y0021578D02*
X0022301Y0021578D01*
X0022301Y0020579D02*
X0045695Y0020579D01*
X0045695Y0019581D02*
X0022301Y0019581D01*
X0022301Y0018582D02*
X0045695Y0018582D01*
X0045695Y0017584D02*
X0022301Y0017584D01*
X0022301Y0016585D02*
X0045332Y0016585D01*
X0044795Y0015587D02*
X0022301Y0015587D01*
X0022301Y0014588D02*
X0044795Y0014588D01*
X0044795Y0013590D02*
X0022301Y0013590D01*
X0022301Y0012591D02*
X0044795Y0012591D01*
X0044795Y0011593D02*
X0022301Y0011593D01*
X0022301Y0010594D02*
X0044795Y0010594D01*
X0044795Y0009596D02*
X0022301Y0009596D01*
X0037092Y0031563D02*
X0045695Y0031563D01*
X0045695Y0032561D02*
X0038429Y0032561D01*
X0038942Y0033560D02*
X0045695Y0033560D01*
X0045695Y0034558D02*
X0039101Y0034558D01*
X0038976Y0035557D02*
X0045190Y0035557D01*
X0044795Y0036555D02*
X0038512Y0036555D01*
X0037293Y0037554D02*
X0044795Y0037554D01*
X0044795Y0038552D02*
X0035525Y0038552D01*
X0034527Y0039551D02*
X0044795Y0039551D01*
X0044795Y0040549D02*
X0033528Y0040549D01*
X0034216Y0041548D02*
X0044795Y0041548D01*
X0044795Y0042546D02*
X0034736Y0042546D01*
X0034901Y0043545D02*
X0044795Y0043545D01*
X0045731Y0044543D02*
X0034782Y0044543D01*
X0034326Y0045542D02*
X0050572Y0045542D01*
X0051620Y0046540D02*
X0034201Y0046540D01*
X0034201Y0047539D02*
X0052667Y0047539D01*
X0055757Y0043300D02*
X0057193Y0043300D01*
X0057106Y0042977D01*
X0057106Y0040030D01*
X0059856Y0040030D01*
X0059856Y0039530D01*
X0057106Y0039530D01*
X0057106Y0036582D01*
X0057209Y0036201D01*
X0057406Y0035859D01*
X0057685Y0035579D01*
X0058027Y0035382D01*
X0058409Y0035280D01*
X0059856Y0035280D01*
X0059856Y0039529D01*
X0060356Y0039529D01*
X0060356Y0035280D01*
X0061804Y0035280D01*
X0062185Y0035382D01*
X0062527Y0035579D01*
X0062807Y0035859D01*
X0063004Y0036201D01*
X0063106Y0036582D01*
X0063106Y0039530D01*
X0060356Y0039530D01*
X0060356Y0040030D01*
X0063106Y0040030D01*
X0063106Y0042977D01*
X0063020Y0043301D01*
X0063478Y0043490D01*
X0063941Y0043674D01*
X0063955Y0043688D01*
X0063974Y0043696D01*
X0064325Y0044048D01*
X0067355Y0046988D01*
X0067374Y0046996D01*
X0067726Y0047348D01*
X0068083Y0047694D01*
X0068091Y0047713D01*
X0068105Y0047727D01*
X0068132Y0047792D01*
X0073101Y0042823D01*
X0073101Y0018183D01*
X0073301Y0017700D01*
X0073301Y0017144D01*
X0073803Y0015931D01*
X0074732Y0015002D01*
X0075695Y0014603D01*
X0075695Y0008600D01*
X0062980Y0008600D01*
X0063004Y0008641D01*
X0063106Y0009023D01*
X0063106Y0011970D01*
X0060356Y0011970D01*
X0060356Y0008600D01*
X0059856Y0008600D01*
X0059856Y0011970D01*
X0060356Y0011970D01*
X0060356Y0012470D01*
X0063106Y0012470D01*
X0063106Y0015418D01*
X0063004Y0015799D01*
X0062807Y0016141D01*
X0062527Y0016421D01*
X0062185Y0016618D01*
X0061804Y0016720D01*
X0060356Y0016720D01*
X0060356Y0012471D01*
X0059856Y0012471D01*
X0059856Y0016720D01*
X0058409Y0016720D01*
X0058027Y0016618D01*
X0057685Y0016421D01*
X0057406Y0016141D01*
X0057209Y0015799D01*
X0057106Y0015418D01*
X0057106Y0012470D01*
X0059856Y0012470D01*
X0059856Y0011970D01*
X0057106Y0011970D01*
X0057106Y0009023D01*
X0057209Y0008641D01*
X0057233Y0008600D01*
X0051795Y0008600D01*
X0051795Y0016049D01*
X0050895Y0016949D01*
X0050895Y0035051D01*
X0051795Y0035951D01*
X0051795Y0039524D01*
X0055757Y0043300D01*
X0054966Y0042546D02*
X0057106Y0042546D01*
X0057106Y0041548D02*
X0053919Y0041548D01*
X0052871Y0040549D02*
X0057106Y0040549D01*
X0057106Y0038552D02*
X0051795Y0038552D01*
X0051795Y0037554D02*
X0057106Y0037554D01*
X0057114Y0036555D02*
X0051795Y0036555D01*
X0051401Y0035557D02*
X0057724Y0035557D01*
X0059856Y0035557D02*
X0060356Y0035557D01*
X0060356Y0036555D02*
X0059856Y0036555D01*
X0059856Y0037554D02*
X0060356Y0037554D01*
X0060356Y0038552D02*
X0059856Y0038552D01*
X0059856Y0039551D02*
X0051824Y0039551D01*
X0050895Y0034558D02*
X0073101Y0034558D01*
X0073101Y0033560D02*
X0050895Y0033560D01*
X0050895Y0032561D02*
X0073101Y0032561D01*
X0073101Y0031563D02*
X0050895Y0031563D01*
X0050895Y0030564D02*
X0073101Y0030564D01*
X0073101Y0029566D02*
X0050895Y0029566D01*
X0050895Y0028567D02*
X0073101Y0028567D01*
X0073101Y0027569D02*
X0050895Y0027569D01*
X0050895Y0026570D02*
X0073101Y0026570D01*
X0073101Y0025572D02*
X0050895Y0025572D01*
X0050895Y0024573D02*
X0073101Y0024573D01*
X0073101Y0023575D02*
X0050895Y0023575D01*
X0050895Y0022576D02*
X0073101Y0022576D01*
X0073101Y0021578D02*
X0050895Y0021578D01*
X0050895Y0020579D02*
X0073101Y0020579D01*
X0073101Y0019581D02*
X0050895Y0019581D01*
X0050895Y0018582D02*
X0073101Y0018582D01*
X0073301Y0017584D02*
X0050895Y0017584D01*
X0051259Y0016585D02*
X0057970Y0016585D01*
X0057152Y0015587D02*
X0051795Y0015587D01*
X0051795Y0014588D02*
X0057106Y0014588D01*
X0057106Y0013590D02*
X0051795Y0013590D01*
X0051795Y0012591D02*
X0057106Y0012591D01*
X0057106Y0011593D02*
X0051795Y0011593D01*
X0051795Y0010594D02*
X0057106Y0010594D01*
X0057106Y0009596D02*
X0051795Y0009596D01*
X0059856Y0009596D02*
X0060356Y0009596D01*
X0060356Y0010594D02*
X0059856Y0010594D01*
X0059856Y0011593D02*
X0060356Y0011593D01*
X0060356Y0012591D02*
X0059856Y0012591D01*
X0059856Y0013590D02*
X0060356Y0013590D01*
X0060356Y0014588D02*
X0059856Y0014588D01*
X0059856Y0015587D02*
X0060356Y0015587D01*
X0060356Y0016585D02*
X0059856Y0016585D01*
X0062243Y0016585D02*
X0073532Y0016585D01*
X0074147Y0015587D02*
X0063061Y0015587D01*
X0063106Y0014588D02*
X0075695Y0014588D01*
X0075695Y0013590D02*
X0063106Y0013590D01*
X0063106Y0012591D02*
X0075695Y0012591D01*
X0075695Y0011593D02*
X0063106Y0011593D01*
X0063106Y0010594D02*
X0075695Y0010594D01*
X0075695Y0009596D02*
X0063106Y0009596D01*
X0081795Y0016949D02*
X0081795Y0035051D01*
X0082695Y0035951D01*
X0082695Y0043600D01*
X0088248Y0043600D01*
X0088109Y0043359D01*
X0088006Y0042977D01*
X0088006Y0040030D01*
X0090756Y0040030D01*
X0090756Y0039530D01*
X0088006Y0039530D01*
X0088006Y0036582D01*
X0088109Y0036201D01*
X0088306Y0035859D01*
X0088585Y0035579D01*
X0088927Y0035382D01*
X0089309Y0035280D01*
X0090756Y0035280D01*
X0090756Y0039529D01*
X0091256Y0039529D01*
X0091256Y0035280D01*
X0092704Y0035280D01*
X0093085Y0035382D01*
X0093427Y0035579D01*
X0093707Y0035859D01*
X0093904Y0036201D01*
X0094006Y0036582D01*
X0094006Y0039530D01*
X0091256Y0039530D01*
X0091256Y0040030D01*
X0094006Y0040030D01*
X0094006Y0042977D01*
X0093904Y0043359D01*
X0093765Y0043600D01*
X0104395Y0043600D01*
X0104395Y0035951D01*
X0105295Y0035051D01*
X0105295Y0016949D01*
X0104395Y0016049D01*
X0104395Y0008600D01*
X0093880Y0008600D01*
X0093904Y0008641D01*
X0094006Y0009023D01*
X0094006Y0011970D01*
X0091256Y0011970D01*
X0091256Y0008600D01*
X0090756Y0008600D01*
X0090756Y0011970D01*
X0091256Y0011970D01*
X0091256Y0012470D01*
X0094006Y0012470D01*
X0094006Y0015418D01*
X0093904Y0015799D01*
X0093707Y0016141D01*
X0093427Y0016421D01*
X0093085Y0016618D01*
X0092704Y0016720D01*
X0091256Y0016720D01*
X0091256Y0012471D01*
X0090756Y0012471D01*
X0090756Y0016720D01*
X0089309Y0016720D01*
X0088927Y0016618D01*
X0088585Y0016421D01*
X0088306Y0016141D01*
X0088109Y0015799D01*
X0088006Y0015418D01*
X0088006Y0012470D01*
X0090756Y0012470D01*
X0090756Y0011970D01*
X0088006Y0011970D01*
X0088006Y0009023D01*
X0088109Y0008641D01*
X0088133Y0008600D01*
X0082695Y0008600D01*
X0082695Y0016049D01*
X0081795Y0016949D01*
X0082159Y0016585D02*
X0088870Y0016585D01*
X0088052Y0015587D02*
X0082695Y0015587D01*
X0082695Y0014588D02*
X0088006Y0014588D01*
X0088006Y0013590D02*
X0082695Y0013590D01*
X0082695Y0012591D02*
X0088006Y0012591D01*
X0088006Y0011593D02*
X0082695Y0011593D01*
X0082695Y0010594D02*
X0088006Y0010594D01*
X0088006Y0009596D02*
X0082695Y0009596D01*
X0081795Y0017584D02*
X0105295Y0017584D01*
X0105295Y0018582D02*
X0081795Y0018582D01*
X0081795Y0019581D02*
X0105295Y0019581D01*
X0105295Y0020579D02*
X0087347Y0020579D01*
X0087270Y0020502D02*
X0088198Y0021431D01*
X0088701Y0022644D01*
X0088701Y0023956D01*
X0088198Y0025169D01*
X0088001Y0025367D01*
X0088001Y0026733D01*
X0088198Y0026931D01*
X0088701Y0028144D01*
X0088701Y0029456D01*
X0088198Y0030669D01*
X0087270Y0031598D01*
X0086057Y0032100D01*
X0084744Y0032100D01*
X0083532Y0031598D01*
X0082603Y0030669D01*
X0082101Y0029456D01*
X0082101Y0028144D01*
X0082603Y0026931D01*
X0082801Y0026733D01*
X0082801Y0025367D01*
X0082603Y0025169D01*
X0082101Y0023956D01*
X0082101Y0022644D01*
X0082603Y0021431D01*
X0083532Y0020502D01*
X0084744Y0020000D01*
X0086057Y0020000D01*
X0087270Y0020502D01*
X0088259Y0021578D02*
X0105295Y0021578D01*
X0105295Y0022576D02*
X0088673Y0022576D01*
X0088701Y0023575D02*
X0105295Y0023575D01*
X0105295Y0024573D02*
X0088445Y0024573D01*
X0088001Y0025572D02*
X0105295Y0025572D01*
X0105295Y0026570D02*
X0088001Y0026570D01*
X0088463Y0027569D02*
X0105295Y0027569D01*
X0105295Y0028567D02*
X0088701Y0028567D01*
X0088656Y0029566D02*
X0105295Y0029566D01*
X0105295Y0030564D02*
X0088242Y0030564D01*
X0087305Y0031563D02*
X0105295Y0031563D01*
X0105295Y0032561D02*
X0081795Y0032561D01*
X0081795Y0031563D02*
X0083497Y0031563D01*
X0082560Y0030564D02*
X0081795Y0030564D01*
X0081795Y0029566D02*
X0082146Y0029566D01*
X0082101Y0028567D02*
X0081795Y0028567D01*
X0081795Y0027569D02*
X0082339Y0027569D01*
X0082801Y0026570D02*
X0081795Y0026570D01*
X0081795Y0025572D02*
X0082801Y0025572D01*
X0082356Y0024573D02*
X0081795Y0024573D01*
X0081795Y0023575D02*
X0082101Y0023575D01*
X0082129Y0022576D02*
X0081795Y0022576D01*
X0081795Y0021578D02*
X0082542Y0021578D01*
X0081795Y0020579D02*
X0083455Y0020579D01*
X0090756Y0016585D02*
X0091256Y0016585D01*
X0091256Y0015587D02*
X0090756Y0015587D01*
X0090756Y0014588D02*
X0091256Y0014588D01*
X0091256Y0013590D02*
X0090756Y0013590D01*
X0090756Y0012591D02*
X0091256Y0012591D01*
X0091256Y0011593D02*
X0090756Y0011593D01*
X0090756Y0010594D02*
X0091256Y0010594D01*
X0091256Y0009596D02*
X0090756Y0009596D01*
X0094006Y0009596D02*
X0104395Y0009596D01*
X0104395Y0010594D02*
X0094006Y0010594D01*
X0094006Y0011593D02*
X0104395Y0011593D01*
X0104395Y0012591D02*
X0094006Y0012591D01*
X0094006Y0013590D02*
X0104395Y0013590D01*
X0104395Y0014588D02*
X0094006Y0014588D01*
X0093961Y0015587D02*
X0104395Y0015587D01*
X0104932Y0016585D02*
X0093143Y0016585D01*
X0110495Y0017584D02*
X0138301Y0017584D01*
X0138301Y0018582D02*
X0110495Y0018582D01*
X0110495Y0019581D02*
X0138301Y0019581D01*
X0138301Y0020579D02*
X0110495Y0020579D01*
X0110495Y0021578D02*
X0129870Y0021578D01*
X0128537Y0022576D02*
X0110495Y0022576D01*
X0110495Y0023575D02*
X0127696Y0023575D01*
X0127283Y0024573D02*
X0110495Y0024573D01*
X0110495Y0025572D02*
X0127001Y0025572D01*
X0127001Y0026570D02*
X0110495Y0026570D01*
X0110495Y0027569D02*
X0127087Y0027569D01*
X0127500Y0028567D02*
X0110495Y0028567D01*
X0110495Y0029566D02*
X0128064Y0029566D01*
X0129062Y0030564D02*
X0110495Y0030564D01*
X0110495Y0031563D02*
X0129526Y0031563D01*
X0128394Y0032561D02*
X0110495Y0032561D01*
X0110495Y0033560D02*
X0127637Y0033560D01*
X0127224Y0034558D02*
X0110495Y0034558D01*
X0111001Y0035557D02*
X0117324Y0035557D01*
X0116714Y0036555D02*
X0111395Y0036555D01*
X0111395Y0037554D02*
X0116706Y0037554D01*
X0116706Y0038552D02*
X0111395Y0038552D01*
X0111395Y0039551D02*
X0119456Y0039551D01*
X0119956Y0039551D02*
X0125223Y0039551D01*
X0124225Y0040549D02*
X0122706Y0040549D01*
X0122706Y0041548D02*
X0123226Y0041548D01*
X0122706Y0038552D02*
X0126222Y0038552D01*
X0127146Y0037554D02*
X0122706Y0037554D01*
X0122699Y0036555D02*
X0127001Y0036555D01*
X0127001Y0035557D02*
X0122089Y0035557D01*
X0119956Y0035557D02*
X0119456Y0035557D01*
X0119456Y0036555D02*
X0119956Y0036555D01*
X0119956Y0037554D02*
X0119456Y0037554D01*
X0119456Y0038552D02*
X0119956Y0038552D01*
X0119956Y0040549D02*
X0119456Y0040549D01*
X0119456Y0041548D02*
X0119956Y0041548D01*
X0119956Y0042546D02*
X0119456Y0042546D01*
X0119456Y0043545D02*
X0119956Y0043545D01*
X0121001Y0044543D02*
X0110501Y0044543D01*
X0110242Y0045542D02*
X0121001Y0045542D01*
X0121001Y0046540D02*
X0109437Y0046540D01*
X0108439Y0047539D02*
X0121001Y0047539D01*
X0121001Y0048537D02*
X0107252Y0048537D01*
X0104395Y0043545D02*
X0093797Y0043545D01*
X0094006Y0042546D02*
X0104395Y0042546D01*
X0104395Y0041548D02*
X0094006Y0041548D01*
X0094006Y0040549D02*
X0104395Y0040549D01*
X0104395Y0039551D02*
X0091256Y0039551D01*
X0090756Y0039551D02*
X0082695Y0039551D01*
X0082695Y0040549D02*
X0088006Y0040549D01*
X0088006Y0041548D02*
X0082695Y0041548D01*
X0082695Y0042546D02*
X0088006Y0042546D01*
X0088216Y0043545D02*
X0082695Y0043545D01*
X0082695Y0038552D02*
X0088006Y0038552D01*
X0088006Y0037554D02*
X0082695Y0037554D01*
X0082695Y0036555D02*
X0088014Y0036555D01*
X0088624Y0035557D02*
X0082301Y0035557D01*
X0081795Y0034558D02*
X0105295Y0034558D01*
X0105295Y0033560D02*
X0081795Y0033560D01*
X0073101Y0035557D02*
X0062489Y0035557D01*
X0063099Y0036555D02*
X0073101Y0036555D01*
X0073101Y0037554D02*
X0063106Y0037554D01*
X0063106Y0038552D02*
X0073101Y0038552D01*
X0073101Y0039551D02*
X0060356Y0039551D01*
X0063106Y0040549D02*
X0073101Y0040549D01*
X0073101Y0041548D02*
X0063106Y0041548D01*
X0063106Y0042546D02*
X0073101Y0042546D01*
X0072379Y0043545D02*
X0063615Y0043545D01*
X0064836Y0044543D02*
X0071381Y0044543D01*
X0070382Y0045542D02*
X0065865Y0045542D01*
X0066894Y0046540D02*
X0069383Y0046540D01*
X0068385Y0047539D02*
X0067923Y0047539D01*
X0062514Y0049536D02*
X0034201Y0049536D01*
X0034201Y0050534D02*
X0062936Y0050534D01*
X0062601Y0051533D02*
X0034201Y0051533D01*
X0034201Y0052532D02*
X0062601Y0052532D01*
X0062963Y0053530D02*
X0035008Y0053530D01*
X0036006Y0054529D02*
X0063763Y0054529D01*
X0066392Y0055527D02*
X0041795Y0055527D01*
X0042503Y0056526D02*
X0066390Y0056526D01*
X0066389Y0057524D02*
X0042802Y0057524D01*
X0043800Y0058523D02*
X0066387Y0058523D01*
X0066385Y0059521D02*
X0044799Y0059521D01*
X0045797Y0060520D02*
X0066383Y0060520D01*
X0066381Y0061518D02*
X0046802Y0061518D01*
X0047823Y0062517D02*
X0066380Y0062517D01*
X0066378Y0063515D02*
X0048844Y0063515D01*
X0049866Y0064514D02*
X0066376Y0064514D01*
X0066374Y0065512D02*
X0050890Y0065512D01*
X0051606Y0066511D02*
X0066373Y0066511D01*
X0066371Y0067509D02*
X0051801Y0067509D01*
X0051801Y0068508D02*
X0066369Y0068508D01*
X0066367Y0069506D02*
X0051801Y0069506D01*
X0051801Y0070505D02*
X0066366Y0070505D01*
X0066364Y0071503D02*
X0051801Y0071503D01*
X0051801Y0072502D02*
X0056399Y0072502D01*
X0058203Y0072502D02*
X0066362Y0072502D01*
X0066360Y0073500D02*
X0059768Y0073500D01*
X0060375Y0074499D02*
X0066358Y0074499D01*
X0066357Y0075497D02*
X0060601Y0075497D01*
X0060543Y0076496D02*
X0066355Y0076496D01*
X0066353Y0077494D02*
X0060130Y0077494D01*
X0059901Y0078493D02*
X0065531Y0078493D01*
X0064533Y0079491D02*
X0059901Y0079491D01*
X0059901Y0080490D02*
X0062736Y0080490D01*
X0061296Y0081488D02*
X0059901Y0081488D01*
X0060412Y0082487D02*
X0060740Y0082487D01*
X0054701Y0081488D02*
X0053307Y0081488D01*
X0052290Y0080490D02*
X0054701Y0080490D01*
X0054701Y0079491D02*
X0051801Y0079491D01*
X0051801Y0078493D02*
X0054701Y0078493D01*
X0054472Y0077494D02*
X0051801Y0077494D01*
X0051801Y0076496D02*
X0054059Y0076496D01*
X0054001Y0075497D02*
X0051801Y0075497D01*
X0051801Y0074499D02*
X0054227Y0074499D01*
X0054834Y0073500D02*
X0051801Y0073500D01*
X0067151Y0084227D02*
X0067151Y0084256D01*
X0066954Y0084731D01*
X0068048Y0084731D01*
X0068779Y0085463D01*
X0069003Y0085334D01*
X0069385Y0085231D01*
X0071263Y0085231D01*
X0071263Y0088216D01*
X0072232Y0088216D01*
X0072232Y0089184D01*
X0075413Y0089184D01*
X0075413Y0089511D01*
X0075657Y0089267D01*
X0076017Y0088903D01*
X0076023Y0088901D01*
X0076028Y0088896D01*
X0076499Y0088701D01*
X0076971Y0088503D01*
X0076977Y0088503D01*
X0076984Y0088500D01*
X0077494Y0088500D01*
X0078005Y0088497D01*
X0078011Y0088500D01*
X0085289Y0088500D01*
X0085289Y0087584D01*
X0088470Y0087584D01*
X0088470Y0086616D01*
X0085289Y0086616D01*
X0085289Y0084934D01*
X0085391Y0084553D01*
X0085589Y0084210D01*
X0085868Y0083931D01*
X0086210Y0083734D01*
X0086592Y0083631D01*
X0088470Y0083631D01*
X0088470Y0086616D01*
X0089439Y0086616D01*
X0089439Y0083631D01*
X0091317Y0083631D01*
X0091699Y0083734D01*
X0091922Y0083863D01*
X0092347Y0083438D01*
X0092347Y0082444D01*
X0092850Y0081231D01*
X0093047Y0081033D01*
X0093047Y0080068D01*
X0092654Y0080068D01*
X0091922Y0079337D01*
X0091699Y0079466D01*
X0091317Y0079568D01*
X0089439Y0079568D01*
X0089439Y0076584D01*
X0088470Y0076584D01*
X0088470Y0075616D01*
X0085289Y0075616D01*
X0085289Y0073934D01*
X0085391Y0073553D01*
X0085589Y0073210D01*
X0085868Y0072931D01*
X0086210Y0072734D01*
X0086592Y0072631D01*
X0088470Y0072631D01*
X0088470Y0075616D01*
X0089439Y0075616D01*
X0089439Y0073813D01*
X0089001Y0072756D01*
X0089001Y0071444D01*
X0089156Y0071068D01*
X0088499Y0071068D01*
X0087670Y0071898D01*
X0086457Y0072400D01*
X0085144Y0072400D01*
X0084813Y0072263D01*
X0084813Y0072397D01*
X0083641Y0073568D01*
X0077654Y0073568D01*
X0076922Y0072837D01*
X0076699Y0072966D01*
X0076317Y0073068D01*
X0074439Y0073068D01*
X0074439Y0070084D01*
X0073470Y0070084D01*
X0073470Y0073068D01*
X0071592Y0073068D01*
X0071561Y0073060D01*
X0071551Y0078752D01*
X0071551Y0079267D01*
X0071550Y0079269D01*
X0071550Y0079272D01*
X0071352Y0079747D01*
X0071155Y0080223D01*
X0071153Y0080224D01*
X0071152Y0080227D01*
X0070786Y0080592D01*
X0067151Y0084227D01*
X0067057Y0084484D02*
X0085431Y0084484D01*
X0085289Y0085482D02*
X0074749Y0085482D01*
X0074834Y0085531D02*
X0075113Y0085810D01*
X0075310Y0086153D01*
X0075413Y0086534D01*
X0075413Y0088216D01*
X0072232Y0088216D01*
X0072232Y0085231D01*
X0074110Y0085231D01*
X0074492Y0085334D01*
X0074834Y0085531D01*
X0075398Y0086481D02*
X0085289Y0086481D01*
X0085289Y0088478D02*
X0072232Y0088478D01*
X0072232Y0089184D02*
X0071263Y0089184D01*
X0071263Y0092168D01*
X0069385Y0092168D01*
X0069294Y0092144D01*
X0069501Y0092644D01*
X0069501Y0092923D01*
X0070078Y0093500D01*
X0071466Y0093500D01*
X0072784Y0092168D01*
X0072232Y0092168D01*
X0072232Y0089184D01*
X0072232Y0089476D02*
X0071263Y0089476D01*
X0071263Y0090475D02*
X0072232Y0090475D01*
X0072232Y0091473D02*
X0071263Y0091473D01*
X0072484Y0092472D02*
X0069430Y0092472D01*
X0070048Y0093470D02*
X0071495Y0093470D01*
X0075413Y0089476D02*
X0075448Y0089476D01*
X0075413Y0087479D02*
X0088470Y0087479D01*
X0088470Y0086481D02*
X0089439Y0086481D01*
X0089439Y0085482D02*
X0088470Y0085482D01*
X0088470Y0084484D02*
X0089439Y0084484D01*
X0092300Y0083485D02*
X0067892Y0083485D01*
X0068891Y0082487D02*
X0092347Y0082487D01*
X0092743Y0081488D02*
X0069889Y0081488D01*
X0070888Y0080490D02*
X0093047Y0080490D01*
X0092076Y0079491D02*
X0091605Y0079491D01*
X0089439Y0079491D02*
X0088470Y0079491D01*
X0088470Y0079568D02*
X0086592Y0079568D01*
X0086210Y0079466D01*
X0085868Y0079269D01*
X0085589Y0078990D01*
X0085391Y0078647D01*
X0085289Y0078266D01*
X0085289Y0076584D01*
X0088470Y0076584D01*
X0088470Y0079568D01*
X0088470Y0078493D02*
X0089439Y0078493D01*
X0089439Y0077494D02*
X0088470Y0077494D01*
X0088470Y0076496D02*
X0071555Y0076496D01*
X0071553Y0077494D02*
X0085289Y0077494D01*
X0085350Y0078493D02*
X0071551Y0078493D01*
X0071459Y0079491D02*
X0086304Y0079491D01*
X0085289Y0075497D02*
X0071557Y0075497D01*
X0071558Y0074499D02*
X0085289Y0074499D01*
X0085421Y0073500D02*
X0083709Y0073500D01*
X0084708Y0072502D02*
X0089001Y0072502D01*
X0089001Y0071503D02*
X0088065Y0071503D01*
X0088470Y0073500D02*
X0089309Y0073500D01*
X0089439Y0074499D02*
X0088470Y0074499D01*
X0088470Y0075497D02*
X0089439Y0075497D01*
X0097421Y0071503D02*
X0098874Y0071503D01*
X0099011Y0072502D02*
X0099872Y0072502D01*
X0099813Y0073500D02*
X0101148Y0073500D01*
X0099813Y0074499D02*
X0118859Y0074499D01*
X0118859Y0073500D02*
X0118368Y0073500D01*
X0119092Y0072502D02*
X0119130Y0072502D01*
X0119401Y0071503D02*
X0119544Y0071503D01*
X0119087Y0075497D02*
X0099813Y0075497D01*
X0099813Y0076496D02*
X0119501Y0076496D01*
X0120438Y0077494D02*
X0100926Y0077494D01*
X0102361Y0078493D02*
X0122323Y0078493D01*
X0124395Y0078493D02*
X0138301Y0078493D01*
X0138301Y0079491D02*
X0102914Y0079491D01*
X0103101Y0080490D02*
X0106566Y0080490D01*
X0106978Y0080319D02*
X0108244Y0080319D01*
X0109413Y0080803D01*
X0110308Y0081698D01*
X0110792Y0082867D01*
X0110792Y0084133D01*
X0110308Y0085302D01*
X0109413Y0086197D01*
X0108244Y0086681D01*
X0106978Y0086681D01*
X0105809Y0086197D01*
X0104914Y0085302D01*
X0104430Y0084133D01*
X0104430Y0082867D01*
X0104914Y0081698D01*
X0105809Y0080803D01*
X0106978Y0080319D01*
X0108657Y0080490D02*
X0130188Y0080490D01*
X0130600Y0080319D02*
X0129431Y0080803D01*
X0128536Y0081698D01*
X0128052Y0082867D01*
X0128052Y0084133D01*
X0128536Y0085302D01*
X0129431Y0086197D01*
X0130600Y0086681D01*
X0131866Y0086681D01*
X0133035Y0086197D01*
X0133930Y0085302D01*
X0134414Y0084133D01*
X0134414Y0082867D01*
X0133930Y0081698D01*
X0133035Y0080803D01*
X0131866Y0080319D01*
X0130600Y0080319D01*
X0132279Y0080490D02*
X0138301Y0080490D01*
X0138301Y0081488D02*
X0133720Y0081488D01*
X0134257Y0082487D02*
X0138301Y0082487D01*
X0138301Y0083485D02*
X0134414Y0083485D01*
X0134269Y0084484D02*
X0138301Y0084484D01*
X0138301Y0085482D02*
X0133750Y0085482D01*
X0132349Y0086481D02*
X0138301Y0086481D01*
X0138301Y0087479D02*
X0102401Y0087479D01*
X0102401Y0086481D02*
X0106495Y0086481D01*
X0105095Y0085482D02*
X0102401Y0085482D01*
X0102401Y0084484D02*
X0104575Y0084484D01*
X0104430Y0083485D02*
X0102401Y0083485D01*
X0102581Y0082487D02*
X0104588Y0082487D01*
X0105124Y0081488D02*
X0103005Y0081488D01*
X0108727Y0086481D02*
X0130117Y0086481D01*
X0128717Y0085482D02*
X0110127Y0085482D01*
X0110647Y0084484D02*
X0128198Y0084484D01*
X0128052Y0083485D02*
X0110792Y0083485D01*
X0110635Y0082487D02*
X0128210Y0082487D01*
X0128746Y0081488D02*
X0110098Y0081488D01*
X0106566Y0089476D02*
X0129230Y0089476D01*
X0129338Y0089404D02*
X0130066Y0089103D01*
X0130839Y0088949D01*
X0131044Y0088949D01*
X0131044Y0092760D01*
X0127233Y0092760D01*
X0127233Y0092555D01*
X0127387Y0091782D01*
X0127688Y0091054D01*
X0128126Y0090399D01*
X0128683Y0089842D01*
X0129338Y0089404D01*
X0128075Y0090475D02*
X0107520Y0090475D01*
X0107934Y0091473D02*
X0127515Y0091473D01*
X0127250Y0092472D02*
X0108174Y0092472D01*
X0108174Y0093470D02*
X0127259Y0093470D01*
X0127233Y0093343D02*
X0127233Y0093138D01*
X0131044Y0093138D01*
X0131044Y0096949D01*
X0130839Y0096949D01*
X0130066Y0096795D01*
X0129338Y0096494D01*
X0128683Y0096056D01*
X0128126Y0095499D01*
X0127688Y0094844D01*
X0127387Y0094116D01*
X0127233Y0093343D01*
X0127533Y0094469D02*
X0107915Y0094469D01*
X0107502Y0095468D02*
X0128105Y0095468D01*
X0129297Y0096466D02*
X0117885Y0096466D01*
X0118687Y0097465D02*
X0138301Y0097465D01*
X0138301Y0098463D02*
X0119050Y0098463D01*
X0119891Y0099462D02*
X0138301Y0099462D01*
X0138301Y0100460D02*
X0120889Y0100460D01*
X0121888Y0101459D02*
X0138301Y0101459D01*
X0138301Y0102457D02*
X0127967Y0102457D01*
X0128769Y0103456D02*
X0138301Y0103456D01*
X0138301Y0104454D02*
X0128769Y0104454D01*
X0128769Y0105453D02*
X0138301Y0105453D01*
X0138301Y0106451D02*
X0128769Y0106451D01*
X0128769Y0107450D02*
X0138301Y0107450D01*
X0138301Y0108448D02*
X0128769Y0108448D01*
X0128570Y0109447D02*
X0138301Y0109447D01*
X0138301Y0110445D02*
X0128232Y0110445D01*
X0128269Y0111444D02*
X0138301Y0111444D01*
X0138301Y0112442D02*
X0128269Y0112442D01*
X0128269Y0113441D02*
X0138301Y0113441D01*
X0138301Y0114439D02*
X0128269Y0114439D01*
X0128235Y0115438D02*
X0138301Y0115438D01*
X0138301Y0116436D02*
X0127475Y0116436D01*
X0125285Y0116436D02*
X0124317Y0116436D01*
X0124317Y0115438D02*
X0125285Y0115438D01*
X0125285Y0114439D02*
X0124317Y0114439D01*
X0124317Y0113441D02*
X0125285Y0113441D01*
X0121332Y0113441D02*
X0116769Y0113441D01*
X0116769Y0114439D02*
X0121332Y0114439D01*
X0121367Y0115438D02*
X0116735Y0115438D01*
X0115975Y0116436D02*
X0122126Y0116436D01*
X0121332Y0112442D02*
X0116769Y0112442D01*
X0116769Y0111444D02*
X0121332Y0111444D01*
X0121369Y0110445D02*
X0116732Y0110445D01*
X0117070Y0109447D02*
X0121032Y0109447D01*
X0120832Y0108448D02*
X0117269Y0108448D01*
X0117269Y0107450D02*
X0120525Y0107450D01*
X0119526Y0106451D02*
X0117269Y0106451D01*
X0117269Y0105453D02*
X0118528Y0105453D01*
X0117529Y0104454D02*
X0117269Y0104454D01*
X0109332Y0104454D02*
X0105844Y0104454D01*
X0105769Y0105453D02*
X0109332Y0105453D01*
X0109332Y0106451D02*
X0105769Y0106451D01*
X0105769Y0107450D02*
X0109332Y0107450D01*
X0109332Y0108448D02*
X0105769Y0108448D01*
X0105570Y0109447D02*
X0109532Y0109447D01*
X0109869Y0110445D02*
X0105232Y0110445D01*
X0105269Y0111444D02*
X0109832Y0111444D01*
X0109832Y0112442D02*
X0105269Y0112442D01*
X0105269Y0113441D02*
X0109832Y0113441D01*
X0109832Y0114439D02*
X0105269Y0114439D01*
X0105235Y0115438D02*
X0109867Y0115438D01*
X0110626Y0116436D02*
X0104475Y0116436D01*
X0102285Y0116436D02*
X0101317Y0116436D01*
X0101317Y0115438D02*
X0102285Y0115438D01*
X0102285Y0114439D02*
X0101317Y0114439D01*
X0101317Y0113441D02*
X0102285Y0113441D01*
X0099126Y0116436D02*
X0092975Y0116436D01*
X0093735Y0115438D02*
X0098367Y0115438D01*
X0098332Y0114439D02*
X0093769Y0114439D01*
X0093769Y0113441D02*
X0098332Y0113441D01*
X0098332Y0112442D02*
X0093769Y0112442D01*
X0093769Y0111444D02*
X0098332Y0111444D01*
X0098369Y0110445D02*
X0093732Y0110445D01*
X0094070Y0109447D02*
X0098032Y0109447D01*
X0097832Y0108448D02*
X0094269Y0108448D01*
X0094269Y0107450D02*
X0097832Y0107450D01*
X0097832Y0106451D02*
X0094269Y0106451D01*
X0094269Y0105453D02*
X0097832Y0105453D01*
X0097832Y0104454D02*
X0094269Y0104454D01*
X0096290Y0103456D02*
X0097832Y0103456D01*
X0097262Y0102457D02*
X0098635Y0102457D01*
X0098251Y0101459D02*
X0101486Y0101459D01*
X0102484Y0100460D02*
X0099240Y0100460D01*
X0100230Y0099462D02*
X0103483Y0099462D01*
X0104438Y0098463D02*
X0101219Y0098463D01*
X0102093Y0097465D02*
X0104754Y0097465D01*
X0109987Y0096466D02*
X0110000Y0096466D01*
X0109398Y0102457D02*
X0107841Y0102457D01*
X0106843Y0103456D02*
X0109332Y0103456D01*
X0112817Y0113441D02*
X0113785Y0113441D01*
X0113785Y0114439D02*
X0112817Y0114439D01*
X0112817Y0115438D02*
X0113785Y0115438D01*
X0113785Y0116436D02*
X0112817Y0116436D01*
X0108449Y0127420D02*
X0138301Y0127420D01*
X0138301Y0128418D02*
X0109301Y0128418D01*
X0109301Y0129417D02*
X0138301Y0129417D01*
X0138301Y0130415D02*
X0109301Y0130415D01*
X0109301Y0131414D02*
X0138301Y0131414D01*
X0138301Y0132412D02*
X0109301Y0132412D01*
X0109301Y0133411D02*
X0138301Y0133411D01*
X0138301Y0134409D02*
X0109301Y0134409D01*
X0090785Y0116436D02*
X0089817Y0116436D01*
X0089817Y0115438D02*
X0090785Y0115438D01*
X0090785Y0114439D02*
X0089817Y0114439D01*
X0089817Y0113441D02*
X0090785Y0113441D01*
X0086832Y0113441D02*
X0082769Y0113441D01*
X0082769Y0114439D02*
X0086832Y0114439D01*
X0086867Y0115438D02*
X0082769Y0115438D01*
X0082273Y0116436D02*
X0087626Y0116436D01*
X0086832Y0112442D02*
X0082769Y0112442D01*
X0082769Y0111444D02*
X0086832Y0111444D01*
X0086869Y0110445D02*
X0082769Y0110445D01*
X0082570Y0109447D02*
X0086532Y0109447D01*
X0090051Y0099150D02*
X0080451Y0099100D01*
X0078951Y0098850D01*
X0072232Y0087479D02*
X0071263Y0087479D01*
X0071263Y0086481D02*
X0072232Y0086481D01*
X0072232Y0085482D02*
X0071263Y0085482D01*
X0071560Y0073500D02*
X0077585Y0073500D01*
X0074439Y0072502D02*
X0073470Y0072502D01*
X0073470Y0071503D02*
X0074439Y0071503D01*
X0074439Y0070505D02*
X0073470Y0070505D01*
X0073470Y0069116D02*
X0074439Y0069116D01*
X0074439Y0066131D01*
X0076317Y0066131D01*
X0076531Y0066189D01*
X0076432Y0066148D01*
X0075503Y0065219D01*
X0075001Y0064006D01*
X0075001Y0062694D01*
X0075503Y0061481D01*
X0076432Y0060552D01*
X0077644Y0060050D01*
X0078957Y0060050D01*
X0080051Y0060503D01*
X0081144Y0060050D01*
X0081424Y0060050D01*
X0082222Y0059252D01*
X0083393Y0058081D01*
X0083328Y0058054D01*
X0082597Y0057323D01*
X0081892Y0056618D01*
X0078661Y0056618D01*
X0077719Y0055677D01*
X0077598Y0055969D01*
X0076670Y0056898D01*
X0075457Y0057400D01*
X0074144Y0057400D01*
X0072932Y0056898D01*
X0072003Y0055969D01*
X0071593Y0054979D01*
X0071573Y0066136D01*
X0071592Y0066131D01*
X0073470Y0066131D01*
X0073470Y0069116D01*
X0073470Y0068508D02*
X0074439Y0068508D01*
X0074439Y0067509D02*
X0073470Y0067509D01*
X0073470Y0066511D02*
X0074439Y0066511D01*
X0075796Y0065512D02*
X0071574Y0065512D01*
X0071576Y0064514D02*
X0075211Y0064514D01*
X0075001Y0063515D02*
X0071578Y0063515D01*
X0071580Y0062517D02*
X0075074Y0062517D01*
X0075488Y0061518D02*
X0071581Y0061518D01*
X0071583Y0060520D02*
X0076511Y0060520D01*
X0077042Y0056526D02*
X0078568Y0056526D01*
X0082798Y0057524D02*
X0071589Y0057524D01*
X0071590Y0056526D02*
X0072560Y0056526D01*
X0071820Y0055527D02*
X0071592Y0055527D01*
X0071587Y0058523D02*
X0082951Y0058523D01*
X0081953Y0059521D02*
X0071585Y0059521D01*
X0084426Y0060725D02*
X0086051Y0059100D01*
X0084426Y0060725D01*
X0088832Y0052532D02*
X0120581Y0052532D01*
X0120301Y0051533D02*
X0092013Y0051533D01*
X0092013Y0050534D02*
X0120305Y0050534D01*
X0120718Y0049536D02*
X0091489Y0049536D01*
X0088832Y0049536D02*
X0087863Y0049536D01*
X0087863Y0050534D02*
X0088832Y0050534D01*
X0088832Y0051533D02*
X0087863Y0051533D01*
X0096091Y0053530D02*
X0110357Y0053530D01*
X0109704Y0054529D02*
X0097253Y0054529D01*
X0101537Y0055527D02*
X0109689Y0055527D01*
X0109689Y0057524D02*
X0102313Y0057524D01*
X0102313Y0056526D02*
X0112870Y0056526D01*
X0113304Y0056700D02*
X0113354Y0056750D01*
X0112870Y0057524D02*
X0113839Y0057524D01*
X0113839Y0058523D02*
X0112870Y0058523D01*
X0112870Y0059521D02*
X0113839Y0059521D01*
X0116533Y0061518D02*
X0102313Y0061518D01*
X0102313Y0060520D02*
X0116855Y0060520D01*
X0113411Y0062517D02*
X0112411Y0062517D01*
X0112411Y0063515D02*
X0113411Y0063515D01*
X0113411Y0064514D02*
X0112411Y0064514D01*
X0112411Y0065512D02*
X0102313Y0065512D01*
X0102313Y0064514D02*
X0108852Y0064514D01*
X0108852Y0063515D02*
X0101525Y0063515D01*
X0101693Y0062517D02*
X0108941Y0062517D01*
X0109920Y0059521D02*
X0102313Y0059521D01*
X0102313Y0058523D02*
X0109689Y0058523D01*
X0112870Y0055527D02*
X0113839Y0055527D01*
X0113839Y0054529D02*
X0112870Y0054529D01*
X0112870Y0053530D02*
X0113839Y0053530D01*
X0120047Y0056750D02*
X0120391Y0057094D01*
X0124213Y0057524D02*
X0138301Y0057524D01*
X0138301Y0056526D02*
X0124213Y0056526D01*
X0124947Y0055527D02*
X0138301Y0055527D01*
X0138301Y0054529D02*
X0125863Y0054529D01*
X0126201Y0053530D02*
X0138301Y0053530D01*
X0138301Y0052532D02*
X0126621Y0052532D01*
X0126901Y0051533D02*
X0138301Y0051533D01*
X0138301Y0050534D02*
X0135185Y0050534D01*
X0136253Y0049536D02*
X0138301Y0049536D01*
X0138301Y0048537D02*
X0136983Y0048537D01*
X0137397Y0047539D02*
X0138301Y0047539D01*
X0138301Y0046540D02*
X0137601Y0046540D01*
X0137601Y0045542D02*
X0138301Y0045542D01*
X0138301Y0044543D02*
X0137437Y0044543D01*
X0137024Y0043545D02*
X0138301Y0043545D01*
X0138301Y0042546D02*
X0136350Y0042546D01*
X0135352Y0041548D02*
X0138301Y0041548D01*
X0138301Y0040549D02*
X0135397Y0040549D01*
X0136395Y0039551D02*
X0138301Y0039551D01*
X0138301Y0038552D02*
X0137042Y0038552D01*
X0137456Y0037554D02*
X0138301Y0037554D01*
X0138301Y0036555D02*
X0137601Y0036555D01*
X0137601Y0035557D02*
X0138301Y0035557D01*
X0138301Y0034558D02*
X0137378Y0034558D01*
X0136965Y0033560D02*
X0138301Y0033560D01*
X0138301Y0032561D02*
X0136208Y0032561D01*
X0135076Y0031563D02*
X0138301Y0031563D01*
X0138301Y0030564D02*
X0135539Y0030564D01*
X0136538Y0029566D02*
X0138301Y0029566D01*
X0138301Y0028567D02*
X0137102Y0028567D01*
X0137515Y0027569D02*
X0138301Y0027569D01*
X0138301Y0026570D02*
X0137601Y0026570D01*
X0137601Y0025572D02*
X0138301Y0025572D01*
X0138301Y0024573D02*
X0137319Y0024573D01*
X0136906Y0023575D02*
X0138301Y0023575D01*
X0138301Y0022576D02*
X0136065Y0022576D01*
X0134732Y0021578D02*
X0138301Y0021578D01*
X0138301Y0016585D02*
X0121843Y0016585D01*
X0122661Y0015587D02*
X0138301Y0015587D01*
X0138301Y0014588D02*
X0122706Y0014588D01*
X0122706Y0013590D02*
X0138301Y0013590D01*
X0138301Y0012591D02*
X0122706Y0012591D01*
X0122706Y0011593D02*
X0138301Y0011593D01*
X0138301Y0010594D02*
X0122706Y0010594D01*
X0122706Y0009596D02*
X0138301Y0009596D01*
X0119956Y0009596D02*
X0119456Y0009596D01*
X0119456Y0010594D02*
X0119956Y0010594D01*
X0119956Y0011593D02*
X0119456Y0011593D01*
X0119456Y0012591D02*
X0119956Y0012591D01*
X0119956Y0013590D02*
X0119456Y0013590D01*
X0119456Y0014588D02*
X0119956Y0014588D01*
X0119956Y0015587D02*
X0119456Y0015587D01*
X0119456Y0016585D02*
X0119956Y0016585D01*
X0117570Y0016585D02*
X0110859Y0016585D01*
X0111395Y0015587D02*
X0116752Y0015587D01*
X0116706Y0014588D02*
X0111395Y0014588D01*
X0111395Y0013590D02*
X0116706Y0013590D01*
X0116706Y0012591D02*
X0111395Y0012591D01*
X0111395Y0011593D02*
X0116706Y0011593D01*
X0116706Y0010594D02*
X0111395Y0010594D01*
X0111395Y0009596D02*
X0116706Y0009596D01*
X0104790Y0035557D02*
X0093389Y0035557D01*
X0093999Y0036555D02*
X0104395Y0036555D01*
X0104395Y0037554D02*
X0094006Y0037554D01*
X0094006Y0038552D02*
X0104395Y0038552D01*
X0111395Y0040549D02*
X0116706Y0040549D01*
X0116706Y0041548D02*
X0111395Y0041548D01*
X0111395Y0042546D02*
X0116706Y0042546D01*
X0116916Y0043545D02*
X0111395Y0043545D01*
X0126201Y0046540D02*
X0127001Y0046540D01*
X0127001Y0045542D02*
X0126586Y0045542D01*
X0126201Y0047539D02*
X0127205Y0047539D01*
X0127618Y0048537D02*
X0126201Y0048537D01*
X0126484Y0049536D02*
X0128349Y0049536D01*
X0129417Y0050534D02*
X0126897Y0050534D01*
X0124213Y0058523D02*
X0138301Y0058523D01*
X0138301Y0059521D02*
X0124213Y0059521D01*
X0123240Y0060520D02*
X0138301Y0060520D01*
X0138301Y0061518D02*
X0124249Y0061518D01*
X0124950Y0062517D02*
X0138301Y0062517D01*
X0138301Y0063515D02*
X0124950Y0063515D01*
X0124950Y0064514D02*
X0138301Y0064514D01*
X0138301Y0065512D02*
X0124950Y0065512D01*
X0124950Y0066511D02*
X0138301Y0066511D01*
X0138301Y0067509D02*
X0124950Y0067509D01*
X0124950Y0068508D02*
X0138301Y0068508D01*
X0138301Y0069506D02*
X0124950Y0069506D01*
X0126177Y0070505D02*
X0138301Y0070505D01*
X0138301Y0071503D02*
X0127175Y0071503D01*
X0127588Y0072502D02*
X0138301Y0072502D01*
X0138301Y0073500D02*
X0127859Y0073500D01*
X0127859Y0074499D02*
X0138301Y0074499D01*
X0138301Y0075497D02*
X0127631Y0075497D01*
X0127217Y0076496D02*
X0138301Y0076496D01*
X0138301Y0077494D02*
X0126280Y0077494D01*
X0131422Y0088949D02*
X0131627Y0088949D01*
X0132400Y0089103D01*
X0133128Y0089404D01*
X0133783Y0089842D01*
X0134340Y0090399D01*
X0134778Y0091054D01*
X0135079Y0091782D01*
X0135233Y0092555D01*
X0135233Y0092760D01*
X0131422Y0092760D01*
X0131422Y0088949D01*
X0131422Y0089476D02*
X0131044Y0089476D01*
X0131044Y0090475D02*
X0131422Y0090475D01*
X0131422Y0091473D02*
X0131044Y0091473D01*
X0131044Y0092472D02*
X0131422Y0092472D01*
X0131422Y0092760D02*
X0131044Y0092760D01*
X0131044Y0093138D01*
X0131422Y0093138D01*
X0131422Y0096949D01*
X0131627Y0096949D01*
X0132400Y0096795D01*
X0133128Y0096494D01*
X0133783Y0096056D01*
X0134340Y0095499D01*
X0134778Y0094844D01*
X0135079Y0094116D01*
X0135233Y0093343D01*
X0135233Y0093138D01*
X0131422Y0093138D01*
X0131422Y0092760D01*
X0131422Y0093470D02*
X0131044Y0093470D01*
X0131044Y0094469D02*
X0131422Y0094469D01*
X0131422Y0095468D02*
X0131044Y0095468D01*
X0131044Y0096466D02*
X0131422Y0096466D01*
X0133169Y0096466D02*
X0138301Y0096466D01*
X0138301Y0095468D02*
X0134361Y0095468D01*
X0134933Y0094469D02*
X0138301Y0094469D01*
X0138301Y0093470D02*
X0135208Y0093470D01*
X0135217Y0092472D02*
X0138301Y0092472D01*
X0138301Y0091473D02*
X0134952Y0091473D01*
X0134391Y0090475D02*
X0138301Y0090475D01*
X0138301Y0089476D02*
X0133236Y0089476D01*
X0138301Y0088478D02*
X0104640Y0088478D01*
X0102709Y0088478D02*
X0102401Y0088478D01*
X0102313Y0067509D02*
X0108852Y0067509D01*
X0108852Y0066511D02*
X0102313Y0066511D01*
X0112911Y0066000D02*
X0113354Y0065556D01*
X0091256Y0038552D02*
X0090756Y0038552D01*
X0090756Y0037554D02*
X0091256Y0037554D01*
X0091256Y0036555D02*
X0090756Y0036555D01*
X0090756Y0035557D02*
X0091256Y0035557D01*
X0061485Y0048537D02*
X0034201Y0048537D01*
X0037005Y0055527D02*
X0037207Y0055527D01*
X0035660Y0067509D02*
X0032501Y0067509D01*
X0032501Y0068508D02*
X0034803Y0068508D01*
X0034751Y0069506D02*
X0032501Y0069506D01*
X0032239Y0070505D02*
X0034751Y0070505D01*
X0027985Y0070505D02*
X0027017Y0070505D01*
X0027017Y0069506D02*
X0027985Y0069506D01*
X0027985Y0068508D02*
X0027017Y0068508D01*
X0022301Y0086481D02*
X0035751Y0086481D01*
X0034811Y0087479D02*
X0022301Y0087479D01*
X0022301Y0088478D02*
X0034751Y0088478D01*
X0034751Y0089476D02*
X0022301Y0089476D01*
X0022801Y0090229D02*
X0022603Y0090571D01*
X0022501Y0090953D01*
X0022501Y0094166D01*
X0027017Y0094166D01*
X0027017Y0089650D01*
X0023803Y0089650D01*
X0023422Y0089752D01*
X0023080Y0089950D01*
X0022801Y0090229D01*
X0022659Y0090475D02*
X0022301Y0090475D01*
X0022301Y0091473D02*
X0022501Y0091473D01*
X0022501Y0092472D02*
X0022301Y0092472D01*
X0022301Y0093470D02*
X0022501Y0093470D01*
X0022301Y0094469D02*
X0027017Y0094469D01*
X0027985Y0094469D02*
X0038055Y0094469D01*
X0034851Y0092472D02*
X0032501Y0092472D01*
X0032501Y0091473D02*
X0034751Y0091473D01*
X0034751Y0090475D02*
X0032343Y0090475D01*
X0027985Y0090475D02*
X0027017Y0090475D01*
X0027017Y0091473D02*
X0027985Y0091473D01*
X0027985Y0092472D02*
X0027017Y0092472D01*
X0027017Y0093470D02*
X0027985Y0093470D01*
X0027985Y0095468D02*
X0027017Y0095468D01*
X0027017Y0096466D02*
X0027985Y0096466D01*
X0027985Y0097465D02*
X0027017Y0097465D01*
X0027017Y0098463D02*
X0027985Y0098463D01*
X0027985Y0099462D02*
X0027017Y0099462D01*
X0023273Y0099462D02*
X0022301Y0099462D01*
X0022301Y0098463D02*
X0022532Y0098463D01*
X0022501Y0097465D02*
X0022301Y0097465D01*
X0022301Y0096466D02*
X0022501Y0096466D01*
X0022501Y0095468D02*
X0022301Y0095468D01*
X0036769Y0103456D02*
X0039496Y0103456D01*
X0039496Y0104454D02*
X0036769Y0104454D01*
X0036769Y0105453D02*
X0039860Y0105453D01*
X0040332Y0106451D02*
X0036769Y0106451D01*
X0036769Y0107450D02*
X0040332Y0107450D01*
X0040332Y0108448D02*
X0036769Y0108448D01*
X0036570Y0109447D02*
X0040532Y0109447D01*
X0040332Y0110445D02*
X0036232Y0110445D01*
X0036269Y0111444D02*
X0040332Y0111444D01*
X0040332Y0112442D02*
X0036269Y0112442D01*
X0036269Y0113441D02*
X0040332Y0113441D01*
X0040332Y0114439D02*
X0036269Y0114439D01*
X0036235Y0115438D02*
X0040332Y0115438D01*
X0040828Y0116436D02*
X0035475Y0116436D01*
X0033285Y0116436D02*
X0032317Y0116436D01*
X0032317Y0115438D02*
X0033285Y0115438D01*
X0033285Y0114439D02*
X0032317Y0114439D01*
X0032317Y0113441D02*
X0033285Y0113441D01*
X0037421Y0102457D02*
X0039496Y0102457D01*
X0039496Y0101459D02*
X0038419Y0101459D01*
X0049481Y0111444D02*
X0050621Y0111444D01*
X0051620Y0112442D02*
X0048482Y0112442D01*
X0048269Y0113441D02*
X0051832Y0113441D01*
X0051832Y0114439D02*
X0048269Y0114439D01*
X0048269Y0115438D02*
X0051832Y0115438D01*
X0052328Y0116436D02*
X0047773Y0116436D01*
X0059273Y0116436D02*
X0064626Y0116436D01*
X0063867Y0115438D02*
X0059769Y0115438D01*
X0059769Y0114439D02*
X0063832Y0114439D01*
X0063832Y0113441D02*
X0059769Y0113441D01*
X0059769Y0112442D02*
X0063832Y0112442D01*
X0063832Y0111444D02*
X0059769Y0111444D01*
X0059769Y0110445D02*
X0063869Y0110445D01*
X0063532Y0109447D02*
X0059570Y0109447D01*
X0059769Y0108448D02*
X0063332Y0108448D01*
X0063332Y0107450D02*
X0059769Y0107450D01*
X0059769Y0106451D02*
X0062975Y0106451D01*
X0061977Y0105453D02*
X0059769Y0105453D01*
X0059769Y0104454D02*
X0060978Y0104454D01*
X0059980Y0103456D02*
X0059769Y0103456D01*
X0058981Y0102457D02*
X0058967Y0102457D01*
X0066817Y0113441D02*
X0067785Y0113441D01*
X0067785Y0114439D02*
X0066817Y0114439D01*
X0066817Y0115438D02*
X0067785Y0115438D01*
X0067785Y0116436D02*
X0066817Y0116436D01*
X0069975Y0116436D02*
X0075328Y0116436D01*
X0074832Y0115438D02*
X0070735Y0115438D01*
X0070769Y0114439D02*
X0074363Y0114439D01*
X0073365Y0113441D02*
X0070769Y0113441D01*
X0070769Y0112442D02*
X0072366Y0112442D01*
X0071368Y0111444D02*
X0070769Y0111444D01*
M02*
