G75*
%MOIN*%
%OFA0B0*%
%FSLAX25Y25*%
%IPPOS*%
%LPD*%
%AMOC8*
5,1,8,0,0,1.08239X$1,22.5*
%
%ADD10R,0.05131X0.04737*%
%ADD11R,0.04737X0.05131*%
%ADD12R,0.04800X0.04800*%
%ADD13R,0.07800X0.07800*%
%ADD14R,0.05918X0.06706*%
%ADD15R,0.03800X0.06800*%
%ADD16C,0.05800*%
%ADD17C,0.03162*%
%ADD18C,0.07400*%
%ADD19R,0.09800X0.09800*%
%ADD20C,0.03400*%
D10*
X0073954Y0069600D03*
X0080647Y0069600D03*
X0088954Y0076100D03*
X0095647Y0076100D03*
X0098147Y0067100D03*
X0091454Y0067100D03*
X0091454Y0059100D03*
X0098147Y0059100D03*
X0088347Y0052650D03*
X0081654Y0052650D03*
X0113354Y0056750D03*
X0120047Y0056750D03*
X0095647Y0087100D03*
X0088954Y0087100D03*
X0071747Y0088700D03*
X0065054Y0088700D03*
D11*
X0066801Y0106254D03*
X0066801Y0112946D03*
X0075301Y0112946D03*
X0075301Y0106254D03*
X0058801Y0106254D03*
X0058801Y0112946D03*
X0049801Y0112946D03*
X0049801Y0106254D03*
X0041301Y0106254D03*
X0041301Y0112946D03*
X0032751Y0112946D03*
X0032751Y0106254D03*
X0101801Y0105754D03*
X0101801Y0112446D03*
X0110801Y0112446D03*
X0110801Y0105754D03*
X0119801Y0105754D03*
X0119801Y0112446D03*
D12*
X0038251Y0089900D03*
X0038251Y0070900D03*
D13*
X0027501Y0066150D03*
X0027501Y0094650D03*
D14*
X0112911Y0066000D03*
X0120391Y0066000D03*
D15*
X0119706Y0039780D03*
X0107895Y0039780D03*
X0091006Y0039780D03*
X0079195Y0039780D03*
X0060106Y0039480D03*
X0048295Y0039480D03*
X0048295Y0011920D03*
X0060106Y0011920D03*
X0079195Y0012220D03*
X0091006Y0012220D03*
X0107895Y0012220D03*
X0119706Y0012220D03*
D16*
X0123359Y0074051D03*
X0131233Y0092949D03*
X0103674Y0092949D03*
D17*
X0107611Y0083500D03*
X0131233Y0083500D03*
D18*
X0131501Y0046093D03*
X0131501Y0036250D03*
X0131501Y0026407D03*
D19*
X0080301Y0081600D03*
D20*
X0035801Y0034600D03*
X0031601Y0043600D03*
X0039501Y0057900D03*
X0046301Y0068800D03*
X0042801Y0072600D03*
X0042801Y0085900D03*
X0042096Y0099100D03*
X0045801Y0099100D03*
X0049301Y0099100D03*
X0052801Y0099100D03*
X0059301Y0099100D03*
X0066201Y0093300D03*
X0071051Y0093350D03*
X0076501Y0096100D03*
X0075801Y0099600D03*
X0078951Y0098850D03*
X0090051Y0099150D03*
X0095647Y0083100D03*
X0099801Y0080600D03*
X0092301Y0072100D03*
X0085801Y0069100D03*
X0085801Y0065850D03*
X0081801Y0063350D03*
X0078301Y0063350D03*
X0077601Y0058700D03*
X0074801Y0054100D03*
X0072101Y0051500D03*
X0065901Y0052000D03*
X0082051Y0048750D03*
X0092451Y0052250D03*
X0116101Y0071100D03*
X0119901Y0051200D03*
X0123601Y0051200D03*
X0085401Y0028800D03*
X0085401Y0023300D03*
X0076601Y0017800D03*
X0072801Y0019500D03*
X0054101Y0011900D03*
X0057301Y0075700D03*
X0057301Y0083600D03*
X0063851Y0083600D03*
X0065301Y0118600D03*
X0107738Y0098883D03*
X0111994Y0099139D03*
X0115750Y0098998D03*
X0120301Y0118600D03*
M02*
