G75*
%MOIN*%
%OFA0B0*%
%FSLAX25Y25*%
%IPPOS*%
%LPD*%
%AMOC8*
5,1,8,0,0,1.08239X$1,22.5*
%
%ADD10R,0.04331X0.03937*%
%ADD11R,0.03937X0.04331*%
%ADD12R,0.04000X0.04000*%
%ADD13R,0.07000X0.07000*%
%ADD14R,0.05118X0.05906*%
%ADD15R,0.03000X0.06000*%
%ADD16C,0.05000*%
%ADD17C,0.06600*%
%ADD18R,0.09000X0.09000*%
%ADD19C,0.01200*%
%ADD20C,0.02600*%
%ADD21C,0.01000*%
D10*
X0073954Y0069600D03*
X0080647Y0069600D03*
X0088954Y0076100D03*
X0095647Y0076100D03*
X0098147Y0067100D03*
X0091454Y0067100D03*
X0091454Y0059100D03*
X0098147Y0059100D03*
X0088347Y0052650D03*
X0081654Y0052650D03*
X0113354Y0056750D03*
X0120047Y0056750D03*
X0095647Y0087100D03*
X0088954Y0087100D03*
X0071747Y0088700D03*
X0065054Y0088700D03*
D11*
X0066801Y0106254D03*
X0066801Y0112946D03*
X0075301Y0112946D03*
X0075301Y0106254D03*
X0058801Y0106254D03*
X0058801Y0112946D03*
X0049801Y0112946D03*
X0049801Y0106254D03*
X0041301Y0106254D03*
X0041301Y0112946D03*
X0032751Y0112946D03*
X0032751Y0106254D03*
X0101801Y0105754D03*
X0101801Y0112446D03*
X0110801Y0112446D03*
X0110801Y0105754D03*
X0119801Y0105754D03*
X0119801Y0112446D03*
D12*
X0038251Y0089900D03*
X0038251Y0070900D03*
D13*
X0027501Y0066150D03*
X0027501Y0094650D03*
D14*
X0112911Y0066000D03*
X0120391Y0066000D03*
D15*
X0119706Y0039780D03*
X0107895Y0039780D03*
X0091006Y0039780D03*
X0079195Y0039780D03*
X0060106Y0039480D03*
X0048295Y0039480D03*
X0048295Y0011920D03*
X0060106Y0011920D03*
X0079195Y0012220D03*
X0091006Y0012220D03*
X0107895Y0012220D03*
X0119706Y0012220D03*
D16*
X0123359Y0074051D03*
X0131233Y0092949D03*
X0103674Y0092949D03*
D17*
X0131501Y0046093D03*
X0131501Y0036250D03*
X0131501Y0026407D03*
D18*
X0080301Y0081600D03*
D19*
X0073301Y0088600D01*
X0071747Y0088700D01*
X0071747Y0092654D01*
X0071051Y0093350D01*
X0072551Y0096100D02*
X0069001Y0096100D01*
X0066201Y0093300D01*
X0065054Y0092154D01*
X0065054Y0088700D01*
X0060401Y0092100D02*
X0049201Y0081100D01*
X0049201Y0067500D01*
X0044701Y0063100D01*
X0039501Y0057900D01*
X0031601Y0053800D02*
X0031601Y0043600D01*
X0027801Y0042600D02*
X0027801Y0053500D01*
X0042801Y0068500D01*
X0042801Y0072600D01*
X0042801Y0085900D01*
X0042801Y0093400D01*
X0032751Y0103450D01*
X0032751Y0106254D01*
X0027501Y0107696D02*
X0027501Y0094650D01*
X0027501Y0107696D02*
X0032751Y0112946D01*
X0032751Y0114950D01*
X0036501Y0118700D01*
X0057701Y0118700D01*
X0058801Y0117600D01*
X0059801Y0118600D01*
X0065301Y0118600D01*
X0069454Y0118600D01*
X0075301Y0112946D01*
X0075801Y0112446D01*
X0101801Y0112446D01*
X0110801Y0112446D01*
X0119801Y0112446D01*
X0120301Y0112946D01*
X0120301Y0118600D01*
X0119801Y0105754D02*
X0119801Y0103049D01*
X0115750Y0098998D01*
X0111994Y0099139D02*
X0111801Y0099600D01*
X0111801Y0104754D01*
X0110801Y0105754D01*
X0107738Y0098883D02*
X0101801Y0104820D01*
X0101801Y0105754D01*
X0094501Y0101550D02*
X0099801Y0096200D01*
X0099801Y0080600D01*
X0095647Y0083100D02*
X0095647Y0076100D01*
X0095647Y0075446D01*
X0092301Y0072100D01*
X0093147Y0072100D01*
X0098147Y0067100D01*
X0102147Y0071100D01*
X0116101Y0071100D01*
X0113354Y0065556D02*
X0113354Y0056750D01*
X0118904Y0051200D01*
X0119901Y0051200D01*
X0119901Y0039974D01*
X0119706Y0039780D01*
X0119706Y0012220D01*
X0119706Y0010206D01*
X0117201Y0007700D01*
X0094201Y0007700D01*
X0091801Y0010100D01*
X0091801Y0011426D01*
X0091006Y0012220D01*
X0091006Y0010606D01*
X0088101Y0007700D01*
X0073101Y0007700D01*
X0072801Y0008000D01*
X0072801Y0019500D01*
X0075701Y0018700D02*
X0076601Y0017800D01*
X0075701Y0018700D02*
X0075701Y0043900D01*
X0069001Y0050600D01*
X0068951Y0078750D01*
X0064851Y0082850D01*
X0063851Y0083600D01*
X0057301Y0083600D02*
X0057301Y0075700D01*
X0046301Y0068800D02*
X0046301Y0068500D01*
X0031601Y0053800D01*
X0027801Y0042600D02*
X0035801Y0034600D01*
X0048295Y0039480D02*
X0054716Y0045900D01*
X0062501Y0045900D01*
X0065901Y0049200D01*
X0065901Y0052000D01*
X0072101Y0051500D02*
X0072501Y0050900D01*
X0079201Y0044200D01*
X0079201Y0039785D01*
X0079195Y0039780D01*
X0079195Y0012220D01*
X0073101Y0007700D02*
X0063101Y0007700D01*
X0060801Y0010000D01*
X0060801Y0011226D01*
X0060106Y0011920D01*
X0060086Y0011900D01*
X0054101Y0011900D01*
X0048295Y0011920D02*
X0048295Y0039480D01*
X0060106Y0039480D02*
X0060106Y0011920D01*
X0085401Y0023300D02*
X0085401Y0028800D01*
X0091006Y0039780D02*
X0091006Y0012220D01*
X0107895Y0012220D02*
X0107895Y0039780D01*
X0107901Y0039785D01*
X0107901Y0044400D01*
X0106101Y0046200D01*
X0080801Y0046200D01*
X0074801Y0052200D01*
X0074801Y0054100D01*
X0077601Y0058700D02*
X0073954Y0062346D01*
X0073954Y0069600D01*
X0072954Y0070754D01*
X0073801Y0071600D01*
X0073801Y0075100D01*
X0080301Y0081600D01*
X0085801Y0076100D01*
X0088954Y0076100D01*
X0085801Y0069100D02*
X0081147Y0069100D01*
X0080647Y0069600D01*
X0080801Y0065850D02*
X0078301Y0063350D01*
X0081801Y0063350D02*
X0086051Y0059100D01*
X0091454Y0059100D01*
X0094897Y0055850D02*
X0084801Y0055850D01*
X0082301Y0053350D01*
X0082301Y0052196D01*
X0081654Y0052650D01*
X0082051Y0050754D01*
X0082051Y0048750D01*
X0088551Y0052246D02*
X0088347Y0052650D01*
X0088551Y0052246D02*
X0092451Y0052250D01*
X0099951Y0052250D01*
X0104401Y0056700D01*
X0113304Y0056700D01*
X0120047Y0056750D02*
X0123601Y0053196D01*
X0123601Y0051200D01*
X0123601Y0044150D01*
X0131501Y0036250D01*
X0120391Y0057094D02*
X0120391Y0066000D01*
X0098147Y0067100D02*
X0098147Y0059100D01*
X0094897Y0055850D01*
X0090204Y0065850D02*
X0085801Y0065850D01*
X0080801Y0065850D01*
X0090204Y0065850D02*
X0091454Y0067100D01*
X0080301Y0081600D02*
X0085801Y0087100D01*
X0088954Y0087100D01*
X0093551Y0091100D02*
X0077501Y0091100D01*
X0072551Y0096100D01*
X0072701Y0099100D02*
X0067401Y0099100D01*
X0060401Y0092100D01*
X0059301Y0099100D02*
X0058801Y0099600D01*
X0058801Y0106254D01*
X0060108Y0106254D01*
X0066801Y0112946D01*
X0066801Y0106254D02*
X0075301Y0106254D01*
X0075851Y0104504D01*
X0075851Y0101600D01*
X0075801Y0099600D01*
X0075851Y0101600D02*
X0094401Y0101600D01*
X0094501Y0101550D01*
X0093551Y0091100D02*
X0095647Y0089004D01*
X0095647Y0087100D01*
X0095647Y0083100D01*
X0076501Y0096100D02*
X0075701Y0096100D01*
X0072701Y0099100D01*
X0058801Y0112946D02*
X0058801Y0117600D01*
X0053801Y0110100D02*
X0053801Y0100100D01*
X0052801Y0099100D01*
X0049801Y0099600D02*
X0049301Y0099100D01*
X0049801Y0099600D02*
X0049801Y0106254D01*
X0053801Y0110100D02*
X0050954Y0112946D01*
X0049801Y0112946D01*
X0045801Y0111100D02*
X0043954Y0112946D01*
X0041301Y0112946D01*
X0045801Y0111100D02*
X0045801Y0099100D01*
X0042096Y0099100D02*
X0042096Y0105458D01*
X0041301Y0106254D01*
D20*
X0035801Y0034600D03*
X0031601Y0043600D03*
X0039501Y0057900D03*
X0046301Y0068800D03*
X0042801Y0072600D03*
X0042801Y0085900D03*
X0042096Y0099100D03*
X0045801Y0099100D03*
X0049301Y0099100D03*
X0052801Y0099100D03*
X0059301Y0099100D03*
X0066201Y0093300D03*
X0071051Y0093350D03*
X0076501Y0096100D03*
X0075801Y0099600D03*
X0078951Y0098850D03*
X0090051Y0099150D03*
X0095647Y0083100D03*
X0099801Y0080600D03*
X0092301Y0072100D03*
X0085801Y0069100D03*
X0085801Y0065850D03*
X0081801Y0063350D03*
X0078301Y0063350D03*
X0077601Y0058700D03*
X0074801Y0054100D03*
X0072101Y0051500D03*
X0065901Y0052000D03*
X0082051Y0048750D03*
X0092451Y0052250D03*
X0116101Y0071100D03*
X0119901Y0051200D03*
X0123601Y0051200D03*
X0085401Y0028800D03*
X0085401Y0023300D03*
X0076601Y0017800D03*
X0072801Y0019500D03*
X0054101Y0011900D03*
X0057301Y0075700D03*
X0057301Y0083600D03*
X0063851Y0083600D03*
X0065301Y0118600D03*
X0107738Y0098883D03*
X0111994Y0099139D03*
X0115750Y0098998D03*
X0120301Y0118600D03*
D21*
X0090051Y0099150D02*
X0080451Y0099100D01*
X0078951Y0098850D01*
X0112911Y0066000D02*
X0113354Y0065556D01*
X0113354Y0056750D02*
X0113304Y0056700D01*
X0120047Y0056750D02*
X0120391Y0057094D01*
M02*
