G75*
%MOIN*%
%OFA0B0*%
%FSLAX25Y25*%
%IPPOS*%
%LPD*%
%AMOC8*
5,1,8,0,0,1.08239X$1,22.5*
%
%ADD10R,0.05131X0.04737*%
%ADD11R,0.04737X0.05131*%
%ADD12R,0.04800X0.04800*%
%ADD13R,0.07800X0.07800*%
%ADD14R,0.03800X0.06800*%
%ADD15C,0.07400*%
%ADD16C,0.04737*%
%ADD17R,0.09800X0.09800*%
%ADD18C,0.03400*%
D10*
X0073954Y0069600D03*
X0080647Y0069600D03*
X0088954Y0076100D03*
X0095647Y0076100D03*
X0098147Y0067100D03*
X0091454Y0067100D03*
X0091454Y0059100D03*
X0098147Y0059100D03*
X0088347Y0052650D03*
X0081654Y0052650D03*
X0113354Y0056750D03*
X0120047Y0056750D03*
X0095647Y0087100D03*
X0088954Y0087100D03*
X0071747Y0088700D03*
X0065054Y0088700D03*
D11*
X0067301Y0106254D03*
X0067301Y0112946D03*
X0078801Y0112946D03*
X0078801Y0106254D03*
X0090301Y0106254D03*
X0090301Y0112946D03*
X0101801Y0112946D03*
X0101801Y0106254D03*
X0113301Y0106254D03*
X0113301Y0112946D03*
X0124801Y0112946D03*
X0124801Y0106254D03*
X0055801Y0106254D03*
X0055801Y0112946D03*
X0044301Y0112946D03*
X0044301Y0106254D03*
X0032801Y0106254D03*
X0032801Y0112946D03*
D12*
X0038251Y0089900D03*
X0038251Y0070900D03*
D13*
X0027501Y0066150D03*
X0027501Y0094650D03*
D14*
X0048295Y0039780D03*
X0060106Y0039780D03*
X0079195Y0039780D03*
X0091006Y0039780D03*
X0107895Y0039780D03*
X0119706Y0039780D03*
X0119706Y0012220D03*
X0107895Y0012220D03*
X0091006Y0012220D03*
X0079195Y0012220D03*
X0060106Y0012220D03*
X0048295Y0012220D03*
D15*
X0124559Y0074051D03*
X0132433Y0092949D03*
X0104874Y0092949D03*
X0131901Y0044293D03*
X0131901Y0034450D03*
X0131901Y0024607D03*
D16*
X0132433Y0083500D03*
X0108811Y0083500D03*
D17*
X0080301Y0081600D03*
D18*
X0035801Y0034600D03*
X0031601Y0043600D03*
X0039501Y0057900D03*
X0046301Y0068800D03*
X0042801Y0072600D03*
X0042801Y0085900D03*
X0042096Y0099100D03*
X0045801Y0099100D03*
X0049301Y0099100D03*
X0052801Y0099100D03*
X0059301Y0099100D03*
X0064201Y0095300D03*
X0067951Y0095450D03*
X0071001Y0093600D03*
X0076501Y0096100D03*
X0075801Y0099600D03*
X0078951Y0098850D03*
X0086801Y0095300D03*
X0090901Y0095200D03*
X0094701Y0095200D03*
X0096901Y0092400D03*
X0090051Y0099150D03*
X0095647Y0083100D03*
X0099801Y0080600D03*
X0100901Y0076500D03*
X0098301Y0072100D03*
X0092301Y0072100D03*
X0085801Y0069100D03*
X0085801Y0065850D03*
X0081801Y0063350D03*
X0078301Y0063350D03*
X0077601Y0058700D03*
X0074801Y0055200D03*
X0072101Y0051500D03*
X0065901Y0052000D03*
X0082051Y0048750D03*
X0092451Y0052250D03*
X0091101Y0063200D03*
X0116101Y0071100D03*
X0119901Y0051200D03*
X0123601Y0051200D03*
X0085401Y0028800D03*
X0085401Y0023300D03*
X0076601Y0017800D03*
X0072801Y0019500D03*
X0054101Y0011900D03*
X0057301Y0075700D03*
X0057301Y0083600D03*
X0061251Y0083700D03*
X0065101Y0120200D03*
X0107738Y0098998D03*
X0111994Y0098998D03*
X0116050Y0098998D03*
X0120301Y0121000D03*
M02*
