G75*
%MOIN*%
%OFA0B0*%
%FSLAX25Y25*%
%IPPOS*%
%LPD*%
%AMOC8*
5,1,8,0,0,1.08239X$1,22.5*
%
%ADD10C,0.00000*%
D10*
X0020301Y0006600D02*
X0020301Y0136600D01*
X0053301Y0136600D01*
X0053301Y0129100D01*
X0107301Y0129100D01*
X0107301Y0136600D01*
X0140301Y0136600D01*
X0140301Y0006600D01*
X0020301Y0006600D01*
X0106842Y0083500D02*
X0106844Y0083588D01*
X0106850Y0083676D01*
X0106860Y0083764D01*
X0106874Y0083852D01*
X0106891Y0083938D01*
X0106913Y0084024D01*
X0106938Y0084108D01*
X0106968Y0084192D01*
X0107000Y0084274D01*
X0107037Y0084354D01*
X0107077Y0084433D01*
X0107121Y0084510D01*
X0107168Y0084585D01*
X0107218Y0084657D01*
X0107272Y0084728D01*
X0107328Y0084795D01*
X0107388Y0084861D01*
X0107450Y0084923D01*
X0107516Y0084983D01*
X0107583Y0085039D01*
X0107654Y0085093D01*
X0107726Y0085143D01*
X0107801Y0085190D01*
X0107878Y0085234D01*
X0107957Y0085274D01*
X0108037Y0085311D01*
X0108119Y0085343D01*
X0108203Y0085373D01*
X0108287Y0085398D01*
X0108373Y0085420D01*
X0108459Y0085437D01*
X0108547Y0085451D01*
X0108635Y0085461D01*
X0108723Y0085467D01*
X0108811Y0085469D01*
X0108899Y0085467D01*
X0108987Y0085461D01*
X0109075Y0085451D01*
X0109163Y0085437D01*
X0109249Y0085420D01*
X0109335Y0085398D01*
X0109419Y0085373D01*
X0109503Y0085343D01*
X0109585Y0085311D01*
X0109665Y0085274D01*
X0109744Y0085234D01*
X0109821Y0085190D01*
X0109896Y0085143D01*
X0109968Y0085093D01*
X0110039Y0085039D01*
X0110106Y0084983D01*
X0110172Y0084923D01*
X0110234Y0084861D01*
X0110294Y0084795D01*
X0110350Y0084728D01*
X0110404Y0084657D01*
X0110454Y0084585D01*
X0110501Y0084510D01*
X0110545Y0084433D01*
X0110585Y0084354D01*
X0110622Y0084274D01*
X0110654Y0084192D01*
X0110684Y0084108D01*
X0110709Y0084024D01*
X0110731Y0083938D01*
X0110748Y0083852D01*
X0110762Y0083764D01*
X0110772Y0083676D01*
X0110778Y0083588D01*
X0110780Y0083500D01*
X0110778Y0083412D01*
X0110772Y0083324D01*
X0110762Y0083236D01*
X0110748Y0083148D01*
X0110731Y0083062D01*
X0110709Y0082976D01*
X0110684Y0082892D01*
X0110654Y0082808D01*
X0110622Y0082726D01*
X0110585Y0082646D01*
X0110545Y0082567D01*
X0110501Y0082490D01*
X0110454Y0082415D01*
X0110404Y0082343D01*
X0110350Y0082272D01*
X0110294Y0082205D01*
X0110234Y0082139D01*
X0110172Y0082077D01*
X0110106Y0082017D01*
X0110039Y0081961D01*
X0109968Y0081907D01*
X0109896Y0081857D01*
X0109821Y0081810D01*
X0109744Y0081766D01*
X0109665Y0081726D01*
X0109585Y0081689D01*
X0109503Y0081657D01*
X0109419Y0081627D01*
X0109335Y0081602D01*
X0109249Y0081580D01*
X0109163Y0081563D01*
X0109075Y0081549D01*
X0108987Y0081539D01*
X0108899Y0081533D01*
X0108811Y0081531D01*
X0108723Y0081533D01*
X0108635Y0081539D01*
X0108547Y0081549D01*
X0108459Y0081563D01*
X0108373Y0081580D01*
X0108287Y0081602D01*
X0108203Y0081627D01*
X0108119Y0081657D01*
X0108037Y0081689D01*
X0107957Y0081726D01*
X0107878Y0081766D01*
X0107801Y0081810D01*
X0107726Y0081857D01*
X0107654Y0081907D01*
X0107583Y0081961D01*
X0107516Y0082017D01*
X0107450Y0082077D01*
X0107388Y0082139D01*
X0107328Y0082205D01*
X0107272Y0082272D01*
X0107218Y0082343D01*
X0107168Y0082415D01*
X0107121Y0082490D01*
X0107077Y0082567D01*
X0107037Y0082646D01*
X0107000Y0082726D01*
X0106968Y0082808D01*
X0106938Y0082892D01*
X0106913Y0082976D01*
X0106891Y0083062D01*
X0106874Y0083148D01*
X0106860Y0083236D01*
X0106850Y0083324D01*
X0106844Y0083412D01*
X0106842Y0083500D01*
X0130464Y0083500D02*
X0130466Y0083588D01*
X0130472Y0083676D01*
X0130482Y0083764D01*
X0130496Y0083852D01*
X0130513Y0083938D01*
X0130535Y0084024D01*
X0130560Y0084108D01*
X0130590Y0084192D01*
X0130622Y0084274D01*
X0130659Y0084354D01*
X0130699Y0084433D01*
X0130743Y0084510D01*
X0130790Y0084585D01*
X0130840Y0084657D01*
X0130894Y0084728D01*
X0130950Y0084795D01*
X0131010Y0084861D01*
X0131072Y0084923D01*
X0131138Y0084983D01*
X0131205Y0085039D01*
X0131276Y0085093D01*
X0131348Y0085143D01*
X0131423Y0085190D01*
X0131500Y0085234D01*
X0131579Y0085274D01*
X0131659Y0085311D01*
X0131741Y0085343D01*
X0131825Y0085373D01*
X0131909Y0085398D01*
X0131995Y0085420D01*
X0132081Y0085437D01*
X0132169Y0085451D01*
X0132257Y0085461D01*
X0132345Y0085467D01*
X0132433Y0085469D01*
X0132521Y0085467D01*
X0132609Y0085461D01*
X0132697Y0085451D01*
X0132785Y0085437D01*
X0132871Y0085420D01*
X0132957Y0085398D01*
X0133041Y0085373D01*
X0133125Y0085343D01*
X0133207Y0085311D01*
X0133287Y0085274D01*
X0133366Y0085234D01*
X0133443Y0085190D01*
X0133518Y0085143D01*
X0133590Y0085093D01*
X0133661Y0085039D01*
X0133728Y0084983D01*
X0133794Y0084923D01*
X0133856Y0084861D01*
X0133916Y0084795D01*
X0133972Y0084728D01*
X0134026Y0084657D01*
X0134076Y0084585D01*
X0134123Y0084510D01*
X0134167Y0084433D01*
X0134207Y0084354D01*
X0134244Y0084274D01*
X0134276Y0084192D01*
X0134306Y0084108D01*
X0134331Y0084024D01*
X0134353Y0083938D01*
X0134370Y0083852D01*
X0134384Y0083764D01*
X0134394Y0083676D01*
X0134400Y0083588D01*
X0134402Y0083500D01*
X0134400Y0083412D01*
X0134394Y0083324D01*
X0134384Y0083236D01*
X0134370Y0083148D01*
X0134353Y0083062D01*
X0134331Y0082976D01*
X0134306Y0082892D01*
X0134276Y0082808D01*
X0134244Y0082726D01*
X0134207Y0082646D01*
X0134167Y0082567D01*
X0134123Y0082490D01*
X0134076Y0082415D01*
X0134026Y0082343D01*
X0133972Y0082272D01*
X0133916Y0082205D01*
X0133856Y0082139D01*
X0133794Y0082077D01*
X0133728Y0082017D01*
X0133661Y0081961D01*
X0133590Y0081907D01*
X0133518Y0081857D01*
X0133443Y0081810D01*
X0133366Y0081766D01*
X0133287Y0081726D01*
X0133207Y0081689D01*
X0133125Y0081657D01*
X0133041Y0081627D01*
X0132957Y0081602D01*
X0132871Y0081580D01*
X0132785Y0081563D01*
X0132697Y0081549D01*
X0132609Y0081539D01*
X0132521Y0081533D01*
X0132433Y0081531D01*
X0132345Y0081533D01*
X0132257Y0081539D01*
X0132169Y0081549D01*
X0132081Y0081563D01*
X0131995Y0081580D01*
X0131909Y0081602D01*
X0131825Y0081627D01*
X0131741Y0081657D01*
X0131659Y0081689D01*
X0131579Y0081726D01*
X0131500Y0081766D01*
X0131423Y0081810D01*
X0131348Y0081857D01*
X0131276Y0081907D01*
X0131205Y0081961D01*
X0131138Y0082017D01*
X0131072Y0082077D01*
X0131010Y0082139D01*
X0130950Y0082205D01*
X0130894Y0082272D01*
X0130840Y0082343D01*
X0130790Y0082415D01*
X0130743Y0082490D01*
X0130699Y0082567D01*
X0130659Y0082646D01*
X0130622Y0082726D01*
X0130590Y0082808D01*
X0130560Y0082892D01*
X0130535Y0082976D01*
X0130513Y0083062D01*
X0130496Y0083148D01*
X0130482Y0083236D01*
X0130472Y0083324D01*
X0130466Y0083412D01*
X0130464Y0083500D01*
M02*
