%
M48
M72
T01C0.01000
T02C0.02000
T03C0.02756
T04C0.03937
T05C0.06000
%
T01
X35801Y34600
X31601Y43600
X39501Y57900
X46301Y68800
X42801Y72600
X42801Y85900
X42096Y99100
X45801Y99100
X49301Y99100
X52801Y99100
X59301Y99100
X64201Y95300
X67951Y95450
X71001Y93600
X76501Y96100
X75801Y99600
X78951Y98850
X86801Y95300
X90901Y95200
X94701Y95200
X96901Y92400
X90051Y99150
X95647Y83100
X99801Y80600
X100901Y76500
X98301Y72100
X92301Y72100
X85801Y69100
X85801Y65850
X81801Y63350
X78301Y63350
X77601Y58700
X74801Y55200
X72101Y51500
X65901Y52000
X82051Y48750
X92451Y52250
X91101Y63200
X116101Y71100
X119901Y51200
X123601Y51200
X85401Y28800
X85401Y23300
X76601Y17800
X72801Y19500
X54101Y11900
X57301Y75700
X57301Y83600
X61251Y83700
X65101Y120200
X107738Y98998
X111994Y98998
X116050Y98998
X120301Y121000
T02
X38251Y89900
X38251Y70900
T03
X131901Y44293
X131901Y34450
X131901Y24607
T04
X124559Y74051
X132433Y83500
X132433Y92949
X108811Y83500
X104874Y92949
X27501Y94650
X27501Y66150
T05
X80301Y81600
M30
