%
M48
M72
T01C0.01000
T02C0.02000
T03C0.02362
T04C0.02756
T05C0.03937
T06C0.06000
%
T01
X35801Y34600
X31601Y43600
X39501Y57900
X46301Y68800
X42801Y72600
X42801Y85900
X42096Y99100
X45801Y99100
X49301Y99100
X52801Y99100
X59301Y99100
X66201Y93300
X71051Y93350
X76501Y96100
X75801Y99600
X78951Y98850
X90051Y99150
X95647Y83100
X99801Y80600
X92301Y72100
X85801Y69100
X85801Y65850
X81801Y63350
X78301Y63350
X77601Y58700
X74801Y54100
X72101Y51500
X65901Y52000
X82051Y48750
X92451Y52250
X91101Y63200
X116101Y71100
X119901Y51200
X123601Y51200
X85401Y28800
X85401Y23300
X76601Y17800
X72801Y19500
X54101Y11900
X57301Y75700
X57301Y83600
X63851Y83600
X65301Y118600
X107738Y98883
X111994Y99139
X115750Y98998
X120301Y118600
T02
X38251Y89900
X38251Y70900
T03
X107611Y83500
X131233Y83500
T04
X123359Y74051
X131233Y92949
X103674Y92949
X132301Y45993
X132301Y36150
X132301Y26307
T05
X27501Y66150
X27501Y94650
T06
X80301Y81600
M30
