G75*
%MOIN*%
%OFA0B0*%
%FSLAX25Y25*%
%IPPOS*%
%LPD*%
%AMOC8*
5,1,8,0,0,1.08239X$1,22.5*
%
%ADD10R,0.02362X0.01181*%
%ADD11R,0.01181X0.02362*%
%ADD12R,0.13583X0.13583*%
%ADD13R,0.01378X0.15000*%
%ADD14R,0.00984X0.03937*%
%ADD15R,0.02500X0.05000*%
%ADD16R,0.05118X0.05906*%
%ADD17R,0.04000X0.04000*%
%ADD18R,0.05315X0.01575*%
%ADD19R,0.07000X0.07000*%
%ADD20C,0.01181*%
%ADD21R,0.04331X0.03937*%
%ADD22R,0.02165X0.04724*%
%ADD23R,0.07874X0.18110*%
%ADD24R,0.04000X0.02500*%
%ADD25R,0.03268X0.02480*%
%ADD26C,0.05000*%
%ADD27C,0.06600*%
%ADD28R,0.03937X0.04331*%
%ADD29C,0.03937*%
%ADD30R,0.09000X0.09000*%
%ADD31C,0.02600*%
%ADD32C,0.01200*%
%ADD33C,0.01000*%
D10*
X0071049Y0074710D03*
X0071049Y0076679D03*
X0071049Y0078647D03*
X0071049Y0080616D03*
X0071049Y0082584D03*
X0071049Y0084553D03*
X0071049Y0086521D03*
X0071049Y0088490D03*
X0089553Y0088490D03*
X0089553Y0086521D03*
X0089553Y0084553D03*
X0089553Y0082584D03*
X0089553Y0080616D03*
X0089553Y0078647D03*
X0089553Y0076679D03*
X0089553Y0074710D03*
D11*
X0087191Y0072348D03*
X0085222Y0072348D03*
X0083254Y0072348D03*
X0081285Y0072348D03*
X0079317Y0072348D03*
X0077348Y0072348D03*
X0075380Y0072348D03*
X0073411Y0072348D03*
X0073411Y0090852D03*
X0075380Y0090852D03*
X0077348Y0090852D03*
X0079317Y0090852D03*
X0081285Y0090852D03*
X0083254Y0090852D03*
X0085222Y0090852D03*
X0087191Y0090852D03*
D12*
X0080301Y0081600D03*
D13*
X0081679Y0109100D03*
X0078923Y0109100D03*
X0076167Y0109100D03*
X0073411Y0109100D03*
X0070655Y0109100D03*
X0067899Y0109100D03*
X0065143Y0109100D03*
X0062388Y0109100D03*
X0059632Y0109100D03*
X0056876Y0109100D03*
X0054120Y0109100D03*
X0051364Y0109100D03*
X0048608Y0109100D03*
X0045852Y0109100D03*
X0043096Y0109100D03*
X0040340Y0109100D03*
X0084435Y0109100D03*
X0087191Y0109100D03*
X0089947Y0109100D03*
X0092702Y0109100D03*
X0095458Y0109100D03*
X0098214Y0109100D03*
X0100970Y0109100D03*
X0103726Y0109100D03*
X0106482Y0109100D03*
X0109238Y0109100D03*
X0111994Y0109100D03*
X0114750Y0109100D03*
X0117506Y0109100D03*
X0120262Y0109100D03*
D14*
X0088738Y0059419D03*
X0086769Y0059419D03*
X0084801Y0059419D03*
X0082832Y0059419D03*
X0080864Y0059419D03*
X0080864Y0042781D03*
X0082832Y0042781D03*
X0084801Y0042781D03*
X0086769Y0042781D03*
X0088738Y0042781D03*
D15*
X0073801Y0034600D03*
X0068801Y0034600D03*
D16*
X0099161Y0054500D03*
X0106641Y0054500D03*
X0106441Y0065200D03*
X0098961Y0065200D03*
D17*
X0038251Y0070900D03*
X0038251Y0089900D03*
D18*
X0037782Y0085518D03*
X0037782Y0082959D03*
X0037782Y0080400D03*
X0037782Y0077841D03*
X0037782Y0075282D03*
D19*
X0027501Y0066150D03*
X0027501Y0094650D03*
D20*
X0115667Y0064090D02*
X0116455Y0064090D01*
X0115667Y0064090D02*
X0115667Y0066846D01*
X0116455Y0066846D01*
X0116455Y0064090D01*
X0116455Y0065270D02*
X0115667Y0065270D01*
X0115667Y0066450D02*
X0116455Y0066450D01*
X0123147Y0064090D02*
X0123935Y0064090D01*
X0123147Y0064090D02*
X0123147Y0066846D01*
X0123935Y0066846D01*
X0123935Y0064090D01*
X0123935Y0065270D02*
X0123147Y0065270D01*
X0123147Y0066450D02*
X0123935Y0066450D01*
X0123935Y0053854D02*
X0123147Y0053854D01*
X0123147Y0056610D01*
X0123935Y0056610D01*
X0123935Y0053854D01*
X0123935Y0055034D02*
X0123147Y0055034D01*
X0123147Y0056214D02*
X0123935Y0056214D01*
X0120195Y0053854D02*
X0119407Y0053854D01*
X0119407Y0056610D01*
X0120195Y0056610D01*
X0120195Y0053854D01*
X0120195Y0055034D02*
X0119407Y0055034D01*
X0119407Y0056214D02*
X0120195Y0056214D01*
X0116455Y0053854D02*
X0115667Y0053854D01*
X0115667Y0056610D01*
X0116455Y0056610D01*
X0116455Y0053854D01*
X0116455Y0055034D02*
X0115667Y0055034D01*
X0115667Y0056214D02*
X0116455Y0056214D01*
D21*
X0059597Y0053900D03*
X0052904Y0053900D03*
X0050947Y0044200D03*
X0044254Y0044200D03*
X0042497Y0053850D03*
X0035804Y0053850D03*
D22*
X0046261Y0063681D03*
X0053741Y0063681D03*
X0053741Y0073919D03*
X0050001Y0073919D03*
X0046261Y0073919D03*
D23*
X0043238Y0019567D03*
X0031364Y0019567D03*
D24*
X0064964Y0019600D03*
X0072838Y0015860D03*
X0072838Y0023340D03*
X0085364Y0019600D03*
X0093238Y0015860D03*
X0093238Y0023340D03*
X0111964Y0038250D03*
X0119838Y0034510D03*
X0119838Y0041990D03*
D25*
X0115351Y0023978D03*
X0115351Y0014922D03*
D26*
X0123359Y0074051D03*
X0131233Y0092949D03*
X0103674Y0092949D03*
D27*
X0132301Y0045993D03*
X0132301Y0036150D03*
X0132301Y0026307D03*
D28*
X0105101Y0022346D03*
X0105101Y0015654D03*
D29*
X0062801Y0066450D03*
X0062601Y0072850D03*
D30*
X0080301Y0081600D03*
D31*
X0071001Y0093600D03*
X0067951Y0095450D03*
X0064201Y0095300D03*
X0059301Y0099100D03*
X0052801Y0099100D03*
X0049301Y0099100D03*
X0045801Y0099100D03*
X0042096Y0099100D03*
X0042801Y0085900D03*
X0042801Y0072600D03*
X0046301Y0068800D03*
X0039501Y0057900D03*
X0031601Y0043600D03*
X0035801Y0034600D03*
X0054101Y0011900D03*
X0072801Y0019500D03*
X0076601Y0017800D03*
X0085401Y0023300D03*
X0085401Y0028800D03*
X0082051Y0048750D03*
X0074801Y0055200D03*
X0077601Y0058700D03*
X0078301Y0063350D03*
X0081801Y0063350D03*
X0085801Y0065850D03*
X0085801Y0069100D03*
X0092301Y0072100D03*
X0098301Y0072100D03*
X0100901Y0076500D03*
X0099801Y0080600D03*
X0095647Y0083100D03*
X0096901Y0092400D03*
X0094701Y0095200D03*
X0090901Y0095200D03*
X0086801Y0095300D03*
X0090051Y0099150D03*
X0078951Y0098850D03*
X0075801Y0099600D03*
X0076501Y0096100D03*
X0063851Y0083600D03*
X0057301Y0083600D03*
X0057301Y0075700D03*
X0065901Y0052000D03*
X0072101Y0051500D03*
X0091101Y0063200D03*
X0092451Y0052250D03*
X0116101Y0071100D03*
X0119901Y0051200D03*
X0123601Y0051200D03*
X0116050Y0098998D03*
X0111994Y0098998D03*
X0107738Y0098998D03*
X0120301Y0118600D03*
X0065301Y0118600D03*
D32*
X0022401Y0134500D02*
X0022401Y0008700D01*
X0026269Y0008700D01*
X0025327Y0009642D01*
X0025327Y0029492D01*
X0026557Y0030722D01*
X0028901Y0030722D01*
X0028901Y0041492D01*
X0028719Y0041674D01*
X0028201Y0042924D01*
X0028201Y0044276D01*
X0028719Y0045526D01*
X0029675Y0046482D01*
X0030925Y0047000D01*
X0032277Y0047000D01*
X0033527Y0046482D01*
X0034483Y0045526D01*
X0035001Y0044276D01*
X0035001Y0042924D01*
X0034483Y0041674D01*
X0034409Y0041600D01*
X0039989Y0041600D01*
X0039989Y0044647D01*
X0034855Y0049781D01*
X0032769Y0049781D01*
X0031539Y0051012D01*
X0031539Y0056688D01*
X0032769Y0057918D01*
X0035701Y0057918D01*
X0036101Y0058318D01*
X0036101Y0058576D01*
X0036619Y0059826D01*
X0037575Y0060782D01*
X0038825Y0061300D01*
X0040177Y0061300D01*
X0041427Y0060782D01*
X0042383Y0059826D01*
X0042901Y0058576D01*
X0042901Y0057418D01*
X0044873Y0057418D01*
X0045280Y0057309D01*
X0045645Y0057099D01*
X0045943Y0056801D01*
X0046154Y0056436D01*
X0046263Y0056029D01*
X0046263Y0054234D01*
X0042882Y0054234D01*
X0042882Y0053466D01*
X0046263Y0053466D01*
X0046263Y0051671D01*
X0046154Y0051264D01*
X0045943Y0050899D01*
X0045645Y0050601D01*
X0045280Y0050391D01*
X0044873Y0050281D01*
X0042882Y0050281D01*
X0042882Y0053466D01*
X0042113Y0053466D01*
X0042113Y0050281D01*
X0041991Y0050281D01*
X0044004Y0048268D01*
X0047290Y0048268D01*
X0047601Y0047957D01*
X0047912Y0048268D01*
X0053983Y0048268D01*
X0055213Y0047038D01*
X0055213Y0045807D01*
X0065951Y0035068D01*
X0065951Y0037311D01*
X0066060Y0037718D01*
X0066271Y0038082D01*
X0066568Y0038380D01*
X0066933Y0038591D01*
X0067340Y0038700D01*
X0068776Y0038700D01*
X0068776Y0034625D01*
X0068826Y0034625D01*
X0068826Y0038700D01*
X0070262Y0038700D01*
X0070668Y0038591D01*
X0070924Y0038443D01*
X0071681Y0039200D01*
X0074724Y0039200D01*
X0078264Y0042740D01*
X0078264Y0043298D01*
X0078272Y0043317D01*
X0078272Y0045619D01*
X0079323Y0046670D01*
X0079169Y0046824D01*
X0078651Y0048074D01*
X0078651Y0049426D01*
X0079169Y0050676D01*
X0080125Y0051632D01*
X0081375Y0052150D01*
X0082727Y0052150D01*
X0083977Y0051632D01*
X0084933Y0050676D01*
X0085334Y0049710D01*
X0086012Y0050388D01*
X0086112Y0050629D01*
X0086871Y0051389D01*
X0087864Y0051800D01*
X0092201Y0051800D01*
X0092201Y0059976D01*
X0091777Y0059800D01*
X0090830Y0059800D01*
X0090830Y0059419D01*
X0089369Y0059419D01*
X0089369Y0059419D01*
X0090830Y0059419D01*
X0090830Y0057240D01*
X0090721Y0056833D01*
X0090510Y0056468D01*
X0090212Y0056170D01*
X0089848Y0055960D01*
X0089441Y0055851D01*
X0088738Y0055851D01*
X0088738Y0055957D01*
X0088738Y0055957D01*
X0088738Y0055851D01*
X0088631Y0055851D01*
X0088131Y0055351D01*
X0085407Y0055351D01*
X0084907Y0055851D01*
X0084801Y0055851D01*
X0084801Y0055957D01*
X0084801Y0055957D01*
X0084801Y0055957D01*
X0084801Y0055851D01*
X0084694Y0055851D01*
X0084194Y0055351D01*
X0079502Y0055351D01*
X0078272Y0056581D01*
X0078272Y0058883D01*
X0078264Y0058902D01*
X0078264Y0059710D01*
X0078024Y0059950D01*
X0077625Y0059950D01*
X0077501Y0060001D01*
X0077501Y0057308D01*
X0077683Y0057126D01*
X0078201Y0055876D01*
X0078201Y0054524D01*
X0077683Y0053274D01*
X0076727Y0052318D01*
X0075501Y0051810D01*
X0075501Y0050824D01*
X0074983Y0049574D01*
X0074027Y0048618D01*
X0072777Y0048100D01*
X0071425Y0048100D01*
X0070175Y0048618D01*
X0069219Y0049574D01*
X0068897Y0050349D01*
X0068783Y0050074D01*
X0067827Y0049118D01*
X0066577Y0048600D01*
X0065225Y0048600D01*
X0063975Y0049118D01*
X0063019Y0050074D01*
X0062977Y0050175D01*
X0062633Y0049831D01*
X0056562Y0049831D01*
X0055856Y0050538D01*
X0055687Y0050441D01*
X0055280Y0050331D01*
X0053289Y0050331D01*
X0053289Y0053516D01*
X0052520Y0053516D01*
X0049139Y0053516D01*
X0049139Y0051721D01*
X0049248Y0051314D01*
X0049459Y0050949D01*
X0049757Y0050651D01*
X0050122Y0050441D01*
X0050528Y0050331D01*
X0052520Y0050331D01*
X0052520Y0053516D01*
X0052520Y0054284D01*
X0049139Y0054284D01*
X0049139Y0056079D01*
X0049248Y0056486D01*
X0049459Y0056851D01*
X0049757Y0057149D01*
X0050122Y0057359D01*
X0050528Y0057468D01*
X0052520Y0057468D01*
X0052520Y0054284D01*
X0053289Y0054284D01*
X0053289Y0057468D01*
X0055280Y0057468D01*
X0055687Y0057359D01*
X0055856Y0057262D01*
X0056099Y0057505D01*
X0054385Y0059219D01*
X0051789Y0059219D01*
X0050558Y0060449D01*
X0050558Y0066914D01*
X0051789Y0068144D01*
X0055694Y0068144D01*
X0056924Y0066914D01*
X0056924Y0064317D01*
X0061127Y0060114D01*
X0061886Y0059355D01*
X0062297Y0058362D01*
X0062297Y0057968D01*
X0062633Y0057968D01*
X0063201Y0057400D01*
X0063201Y0061537D01*
X0063551Y0062381D01*
X0061992Y0062381D01*
X0060496Y0063001D01*
X0059352Y0064145D01*
X0058732Y0065641D01*
X0058732Y0067259D01*
X0059352Y0068755D01*
X0060147Y0069550D01*
X0059152Y0070545D01*
X0058532Y0072041D01*
X0058532Y0072530D01*
X0057977Y0072300D01*
X0057719Y0072300D01*
X0057049Y0071630D01*
X0056924Y0071578D01*
X0056924Y0070686D01*
X0055694Y0069456D01*
X0051789Y0069456D01*
X0051289Y0069956D01*
X0050001Y0069956D01*
X0050001Y0073918D01*
X0050001Y0073918D01*
X0050001Y0069956D01*
X0049502Y0069956D01*
X0049701Y0069476D01*
X0049701Y0068124D01*
X0049271Y0067086D01*
X0049443Y0066914D01*
X0049443Y0060449D01*
X0048213Y0059219D01*
X0044308Y0059219D01*
X0043078Y0060449D01*
X0043078Y0063046D01*
X0041271Y0064852D01*
X0040512Y0065612D01*
X0040101Y0066604D01*
X0040101Y0067300D01*
X0038251Y0067300D01*
X0038251Y0070900D01*
X0038251Y0066150D01*
X0038251Y0065850D01*
X0042401Y0061700D01*
X0042401Y0053946D01*
X0042497Y0053850D01*
X0052854Y0053850D01*
X0052904Y0053900D01*
X0052520Y0053342D02*
X0053289Y0053342D01*
X0053289Y0054540D02*
X0052520Y0054540D01*
X0052520Y0055739D02*
X0053289Y0055739D01*
X0053289Y0056937D02*
X0052520Y0056937D01*
X0051673Y0059334D02*
X0048328Y0059334D01*
X0049443Y0060533D02*
X0050558Y0060533D01*
X0050558Y0061732D02*
X0049443Y0061732D01*
X0049443Y0062930D02*
X0050558Y0062930D01*
X0050558Y0064129D02*
X0049443Y0064129D01*
X0049443Y0065327D02*
X0050558Y0065327D01*
X0050558Y0066526D02*
X0049443Y0066526D01*
X0049535Y0067724D02*
X0051369Y0067724D01*
X0049701Y0068923D02*
X0059520Y0068923D01*
X0059576Y0070121D02*
X0056358Y0070121D01*
X0056924Y0071320D02*
X0058831Y0071320D01*
X0058532Y0072518D02*
X0058504Y0072518D01*
X0055519Y0073919D02*
X0057301Y0075700D01*
X0055519Y0073919D02*
X0053741Y0073919D01*
X0050001Y0073919D02*
X0050001Y0077700D01*
X0050001Y0077700D01*
X0050001Y0073919D01*
X0050001Y0073919D01*
X0050001Y0076500D01*
X0048401Y0078100D01*
X0044301Y0078100D01*
X0041501Y0075300D01*
X0037801Y0075300D01*
X0037782Y0075282D01*
X0038251Y0074813D01*
X0038251Y0070900D01*
X0038251Y0070900D01*
X0038251Y0067300D01*
X0036040Y0067300D01*
X0035633Y0067409D01*
X0035268Y0067620D01*
X0034971Y0067918D01*
X0034760Y0068282D01*
X0034651Y0068689D01*
X0034651Y0070900D01*
X0038251Y0070900D01*
X0034651Y0070900D01*
X0034651Y0072965D01*
X0034507Y0073004D01*
X0034142Y0073214D01*
X0033845Y0073512D01*
X0033634Y0073877D01*
X0033525Y0074284D01*
X0033525Y0075282D01*
X0033927Y0075282D01*
X0033525Y0075282D01*
X0033525Y0075684D01*
X0033025Y0076184D01*
X0033025Y0087175D01*
X0034255Y0088405D01*
X0034651Y0088405D01*
X0034651Y0089900D01*
X0038251Y0089900D01*
X0041851Y0089900D01*
X0041851Y0092111D01*
X0041742Y0092518D01*
X0041531Y0092882D01*
X0041233Y0093180D01*
X0040868Y0093391D01*
X0040462Y0093500D01*
X0038251Y0093500D01*
X0038251Y0089900D01*
X0038251Y0089900D01*
X0041851Y0089900D01*
X0041851Y0089187D01*
X0042125Y0089300D01*
X0043477Y0089300D01*
X0044727Y0088782D01*
X0045683Y0087826D01*
X0046201Y0086576D01*
X0046201Y0085659D01*
X0053979Y0085659D01*
X0054401Y0085484D01*
X0054419Y0085526D01*
X0055375Y0086482D01*
X0056625Y0087000D01*
X0056883Y0087000D01*
X0058693Y0088810D01*
X0059685Y0089221D01*
X0066499Y0089221D01*
X0064837Y0090884D01*
X0063805Y0091900D01*
X0063525Y0091900D01*
X0062275Y0092418D01*
X0061319Y0093374D01*
X0060801Y0094624D01*
X0060801Y0094882D01*
X0060771Y0094911D01*
X0060012Y0095671D01*
X0059996Y0095708D01*
X0059977Y0095700D01*
X0058625Y0095700D01*
X0057375Y0096218D01*
X0057193Y0096400D01*
X0056264Y0096400D01*
X0055306Y0096797D01*
X0054727Y0096218D01*
X0053477Y0095700D01*
X0052125Y0095700D01*
X0051051Y0096145D01*
X0049977Y0095700D01*
X0048625Y0095700D01*
X0047551Y0096145D01*
X0046477Y0095700D01*
X0045125Y0095700D01*
X0043949Y0096187D01*
X0042772Y0095700D01*
X0041420Y0095700D01*
X0040170Y0096218D01*
X0039214Y0097174D01*
X0038696Y0098424D01*
X0038696Y0099776D01*
X0038873Y0100202D01*
X0038669Y0100320D01*
X0038371Y0100618D01*
X0038160Y0100982D01*
X0038051Y0101389D01*
X0038051Y0109100D01*
X0040307Y0109100D01*
X0040307Y0109100D01*
X0038051Y0109100D01*
X0038051Y0116811D01*
X0038160Y0117218D01*
X0038371Y0117582D01*
X0038669Y0117880D01*
X0039034Y0118091D01*
X0039441Y0118200D01*
X0040340Y0118200D01*
X0040340Y0117503D01*
X0040340Y0117503D01*
X0040340Y0118200D01*
X0041037Y0118200D01*
X0041537Y0118700D01*
X0058435Y0118700D01*
X0058935Y0118200D01*
X0059632Y0118200D01*
X0059632Y0117503D01*
X0059632Y0117503D01*
X0059632Y0117503D01*
X0059632Y0118200D01*
X0060329Y0118200D01*
X0060829Y0118700D01*
X0063946Y0118700D01*
X0064446Y0118200D01*
X0065143Y0118200D01*
X0065143Y0117503D01*
X0065143Y0117503D01*
X0065143Y0118200D01*
X0066043Y0118200D01*
X0066450Y0118091D01*
X0066521Y0118050D01*
X0066593Y0118091D01*
X0067000Y0118200D01*
X0067899Y0118200D01*
X0067899Y0109100D01*
X0067899Y0109100D01*
X0067432Y0109100D01*
X0065176Y0109100D01*
X0065176Y0109100D01*
X0067899Y0109100D01*
X0067899Y0109100D01*
X0067899Y0109100D01*
X0067899Y0100000D01*
X0067000Y0100000D01*
X0066593Y0100109D01*
X0066521Y0100150D01*
X0066450Y0100109D01*
X0066043Y0100000D01*
X0065143Y0100000D01*
X0065001Y0100000D01*
X0065001Y0099264D01*
X0065054Y0098997D01*
X0065001Y0098733D01*
X0065001Y0098649D01*
X0066127Y0098182D01*
X0067083Y0097226D01*
X0067601Y0095976D01*
X0067601Y0095741D01*
X0068032Y0095316D01*
X0068119Y0095526D01*
X0069075Y0096482D01*
X0070325Y0097000D01*
X0070811Y0097000D01*
X0070811Y0100000D01*
X0070655Y0100000D01*
X0070655Y0100697D01*
X0070655Y0100697D01*
X0070655Y0100000D01*
X0069756Y0100000D01*
X0069349Y0100109D01*
X0069277Y0100150D01*
X0069206Y0100109D01*
X0068799Y0100000D01*
X0067899Y0100000D01*
X0067899Y0109100D01*
X0070655Y0109100D01*
X0070655Y0098146D01*
X0067951Y0095450D01*
X0067389Y0096488D02*
X0069089Y0096488D01*
X0070811Y0097687D02*
X0066622Y0097687D01*
X0065031Y0098885D02*
X0070811Y0098885D01*
X0070655Y0100084D02*
X0070655Y0100084D01*
X0069443Y0100084D02*
X0069112Y0100084D01*
X0067899Y0100084D02*
X0067899Y0100084D01*
X0067899Y0101282D02*
X0067899Y0101282D01*
X0067899Y0102481D02*
X0067899Y0102481D01*
X0067899Y0103679D02*
X0067899Y0103679D01*
X0067899Y0104878D02*
X0067899Y0104878D01*
X0067899Y0106076D02*
X0067899Y0106076D01*
X0067899Y0107275D02*
X0067899Y0107275D01*
X0067899Y0108473D02*
X0067899Y0108473D01*
X0067899Y0109100D02*
X0067899Y0109100D01*
X0065143Y0109100D01*
X0065143Y0118257D01*
X0064801Y0118600D01*
X0059632Y0118600D01*
X0041051Y0118600D01*
X0040340Y0117889D01*
X0040340Y0109100D01*
X0038051Y0109672D02*
X0022401Y0109672D01*
X0022401Y0110870D02*
X0038051Y0110870D01*
X0038051Y0112069D02*
X0022401Y0112069D01*
X0022401Y0113268D02*
X0038051Y0113268D01*
X0038051Y0114466D02*
X0022401Y0114466D01*
X0022401Y0115665D02*
X0038051Y0115665D01*
X0038065Y0116863D02*
X0022401Y0116863D01*
X0022401Y0118062D02*
X0038983Y0118062D01*
X0040340Y0118062D02*
X0040340Y0118062D01*
X0043096Y0109100D02*
X0043096Y0100100D01*
X0042096Y0099100D01*
X0039001Y0097687D02*
X0032601Y0097687D01*
X0032601Y0098361D02*
X0032492Y0098768D01*
X0032281Y0099132D01*
X0031983Y0099430D01*
X0031618Y0099641D01*
X0031212Y0099750D01*
X0027885Y0099750D01*
X0027885Y0095034D01*
X0032601Y0095034D01*
X0032601Y0098361D01*
X0032424Y0098885D02*
X0038696Y0098885D01*
X0038824Y0100084D02*
X0022401Y0100084D01*
X0023018Y0099430D02*
X0022721Y0099132D01*
X0022510Y0098768D01*
X0022401Y0098361D01*
X0022401Y0095034D01*
X0027117Y0095034D01*
X0027117Y0099750D01*
X0023790Y0099750D01*
X0023383Y0099641D01*
X0023018Y0099430D01*
X0022578Y0098885D02*
X0022401Y0098885D01*
X0022401Y0097687D02*
X0022401Y0097687D01*
X0022401Y0096488D02*
X0022401Y0096488D01*
X0022401Y0095290D02*
X0022401Y0095290D01*
X0022401Y0094266D02*
X0022401Y0090939D01*
X0022510Y0090532D01*
X0022721Y0090168D01*
X0023018Y0089870D01*
X0023383Y0089659D01*
X0023790Y0089550D01*
X0027117Y0089550D01*
X0027117Y0094266D01*
X0027885Y0094266D01*
X0027885Y0095034D01*
X0027117Y0095034D01*
X0027117Y0094266D01*
X0022401Y0094266D01*
X0022401Y0090496D02*
X0022531Y0090496D01*
X0022401Y0089297D02*
X0034651Y0089297D01*
X0034651Y0089900D02*
X0038251Y0089900D01*
X0038301Y0094650D01*
X0027501Y0094650D01*
X0027501Y0066150D01*
X0038251Y0066150D01*
X0040133Y0066526D02*
X0027885Y0066526D01*
X0027885Y0066534D02*
X0032601Y0066534D01*
X0032601Y0069861D01*
X0032492Y0070268D01*
X0032281Y0070632D01*
X0031983Y0070930D01*
X0031618Y0071141D01*
X0031212Y0071250D01*
X0027885Y0071250D01*
X0027885Y0066534D01*
X0027885Y0065766D01*
X0032601Y0065766D01*
X0032601Y0062439D01*
X0032492Y0062032D01*
X0032281Y0061668D01*
X0031983Y0061370D01*
X0031618Y0061159D01*
X0031212Y0061050D01*
X0027885Y0061050D01*
X0027885Y0065766D01*
X0027117Y0065766D01*
X0027117Y0061050D01*
X0023790Y0061050D01*
X0023383Y0061159D01*
X0023018Y0061370D01*
X0022721Y0061668D01*
X0022510Y0062032D01*
X0022401Y0062439D01*
X0022401Y0065766D01*
X0027117Y0065766D01*
X0027117Y0066534D01*
X0027117Y0071250D01*
X0023790Y0071250D01*
X0023383Y0071141D01*
X0023018Y0070930D01*
X0022721Y0070632D01*
X0022510Y0070268D01*
X0022401Y0069861D01*
X0022401Y0066534D01*
X0027117Y0066534D01*
X0027885Y0066534D01*
X0027117Y0066526D02*
X0022401Y0066526D01*
X0022401Y0067724D02*
X0022401Y0067724D01*
X0022401Y0068923D02*
X0022401Y0068923D01*
X0022401Y0070121D02*
X0022471Y0070121D01*
X0022401Y0071320D02*
X0034651Y0071320D01*
X0034651Y0072518D02*
X0022401Y0072518D01*
X0022401Y0073717D02*
X0033726Y0073717D01*
X0033525Y0074915D02*
X0022401Y0074915D01*
X0022401Y0076114D02*
X0033095Y0076114D01*
X0033927Y0075282D02*
X0033927Y0075282D01*
X0033025Y0077312D02*
X0022401Y0077312D01*
X0022401Y0078511D02*
X0033025Y0078511D01*
X0033025Y0079709D02*
X0022401Y0079709D01*
X0022401Y0080908D02*
X0033025Y0080908D01*
X0033025Y0082106D02*
X0022401Y0082106D01*
X0022401Y0083305D02*
X0033025Y0083305D01*
X0033025Y0084503D02*
X0022401Y0084503D01*
X0022401Y0085702D02*
X0033025Y0085702D01*
X0033025Y0086900D02*
X0022401Y0086900D01*
X0022401Y0088099D02*
X0033948Y0088099D01*
X0034651Y0089900D02*
X0034651Y0092111D01*
X0034760Y0092518D01*
X0034971Y0092882D01*
X0035268Y0093180D01*
X0035633Y0093391D01*
X0036040Y0093500D01*
X0038251Y0093500D01*
X0038251Y0089900D01*
X0038251Y0089900D01*
X0038251Y0089900D01*
X0038251Y0090496D02*
X0038251Y0090496D01*
X0038251Y0091694D02*
X0038251Y0091694D01*
X0038251Y0092893D02*
X0038251Y0092893D01*
X0041521Y0092893D02*
X0061800Y0092893D01*
X0061021Y0094091D02*
X0032601Y0094091D01*
X0032601Y0094266D02*
X0027885Y0094266D01*
X0027885Y0089550D01*
X0031212Y0089550D01*
X0031618Y0089659D01*
X0031983Y0089870D01*
X0032281Y0090168D01*
X0032492Y0090532D01*
X0032601Y0090939D01*
X0032601Y0094266D01*
X0032601Y0095290D02*
X0060393Y0095290D01*
X0062301Y0097200D02*
X0062301Y0099000D01*
X0061801Y0099100D01*
X0059301Y0099100D01*
X0056801Y0099100D01*
X0054120Y0101781D01*
X0054120Y0109100D01*
X0051364Y0109100D02*
X0051364Y0101037D01*
X0052801Y0099600D01*
X0052801Y0099100D01*
X0054998Y0096488D02*
X0056051Y0096488D01*
X0049301Y0099100D02*
X0048608Y0099793D01*
X0048608Y0109100D01*
X0045852Y0109100D02*
X0045852Y0099151D01*
X0045801Y0099100D01*
X0039899Y0096488D02*
X0032601Y0096488D01*
X0032601Y0092893D02*
X0034981Y0092893D01*
X0034651Y0091694D02*
X0032601Y0091694D01*
X0032471Y0090496D02*
X0034651Y0090496D01*
X0037782Y0085518D02*
X0037964Y0085500D01*
X0042001Y0085500D01*
X0042801Y0085900D01*
X0045410Y0088099D02*
X0057981Y0088099D01*
X0056384Y0086900D02*
X0046067Y0086900D01*
X0046201Y0085702D02*
X0054594Y0085702D01*
X0053442Y0082959D02*
X0055785Y0080616D01*
X0071049Y0080616D01*
X0071049Y0078647D02*
X0053154Y0078647D01*
X0051401Y0080400D01*
X0037782Y0080400D01*
X0037841Y0082900D02*
X0037782Y0082959D01*
X0053442Y0082959D01*
X0057301Y0083600D02*
X0060222Y0086521D01*
X0071049Y0086521D01*
X0071049Y0084553D02*
X0066654Y0084553D01*
X0064867Y0082584D02*
X0063851Y0083600D01*
X0064867Y0082584D02*
X0071049Y0082584D01*
X0074330Y0082200D02*
X0079701Y0082200D01*
X0079701Y0087571D01*
X0080901Y0087571D01*
X0080901Y0082200D01*
X0086272Y0082200D01*
X0086272Y0081000D01*
X0080901Y0081000D01*
X0080901Y0082200D01*
X0079701Y0082200D01*
X0079701Y0081000D01*
X0080901Y0081000D01*
X0080901Y0075629D01*
X0079825Y0075629D01*
X0079701Y0075629D01*
X0079701Y0081000D01*
X0074330Y0081000D01*
X0074330Y0082200D01*
X0074330Y0082106D02*
X0079701Y0082106D01*
X0079701Y0080908D02*
X0080901Y0080908D01*
X0080901Y0082106D02*
X0086272Y0082106D01*
X0089553Y0082584D02*
X0095035Y0082584D01*
X0095647Y0083100D01*
X0095817Y0080616D02*
X0089553Y0080616D01*
X0089553Y0078647D02*
X0095254Y0078647D01*
X0097401Y0076500D01*
X0100901Y0076500D01*
X0099801Y0080600D02*
X0095817Y0080616D01*
X0093454Y0084553D02*
X0096201Y0087300D01*
X0093454Y0084553D02*
X0089553Y0084553D01*
X0089553Y0086521D02*
X0092022Y0086521D01*
X0096901Y0091400D01*
X0096901Y0092400D01*
X0094001Y0092500D02*
X0094001Y0094500D01*
X0094701Y0095200D01*
X0094001Y0092500D02*
X0089991Y0088490D01*
X0089553Y0088490D01*
X0087191Y0090852D02*
X0087191Y0091490D01*
X0090901Y0095200D01*
X0086801Y0095300D02*
X0085222Y0093721D01*
X0085222Y0090852D01*
X0080901Y0086900D02*
X0079701Y0086900D01*
X0079701Y0085702D02*
X0080901Y0085702D01*
X0080901Y0084503D02*
X0079701Y0084503D01*
X0079701Y0083305D02*
X0080901Y0083305D01*
X0080901Y0079709D02*
X0079701Y0079709D01*
X0079701Y0078511D02*
X0080901Y0078511D01*
X0080901Y0077312D02*
X0079701Y0077312D01*
X0079701Y0076114D02*
X0080901Y0076114D01*
X0081285Y0072348D02*
X0081285Y0064366D01*
X0081801Y0063350D01*
X0082832Y0062319D01*
X0085051Y0065850D02*
X0085801Y0065850D01*
X0085051Y0065850D02*
X0083301Y0067600D01*
X0083254Y0068147D01*
X0083254Y0072348D01*
X0085222Y0072348D02*
X0085222Y0069179D01*
X0085801Y0069100D01*
X0087191Y0072010D02*
X0091701Y0067500D01*
X0092163Y0072100D02*
X0089553Y0074710D01*
X0089553Y0076679D02*
X0092322Y0076679D01*
X0094701Y0074300D01*
X0093851Y0075150D02*
X0096901Y0072100D01*
X0098301Y0072100D01*
X0092301Y0072100D02*
X0092163Y0072100D01*
X0087191Y0072010D02*
X0087191Y0072348D01*
X0079317Y0072348D02*
X0079317Y0068216D01*
X0074801Y0063700D01*
X0074801Y0055200D01*
X0076306Y0052143D02*
X0081359Y0052143D01*
X0082743Y0052143D02*
X0092201Y0052143D01*
X0092201Y0053342D02*
X0077711Y0053342D01*
X0077601Y0052300D02*
X0077601Y0058700D01*
X0077501Y0058136D02*
X0078272Y0058136D01*
X0078272Y0056937D02*
X0077761Y0056937D01*
X0078201Y0055739D02*
X0079114Y0055739D01*
X0078201Y0054540D02*
X0092201Y0054540D01*
X0092201Y0055739D02*
X0088520Y0055739D01*
X0090749Y0056937D02*
X0092201Y0056937D01*
X0092201Y0058136D02*
X0090830Y0058136D01*
X0090830Y0059334D02*
X0092201Y0059334D01*
X0094901Y0061300D02*
X0094901Y0049100D01*
X0088401Y0049100D01*
X0086427Y0050945D02*
X0084664Y0050945D01*
X0085318Y0049746D02*
X0085370Y0049746D01*
X0089801Y0046900D02*
X0095601Y0046900D01*
X0097101Y0048400D01*
X0097101Y0052440D01*
X0099161Y0054500D01*
X0099801Y0049447D02*
X0102590Y0049447D01*
X0102901Y0049759D01*
X0103212Y0049447D01*
X0110070Y0049447D01*
X0111300Y0050677D01*
X0111300Y0056181D01*
X0113130Y0058011D01*
X0113361Y0058241D01*
X0113361Y0058073D01*
X0112976Y0057145D01*
X0112976Y0053319D01*
X0113386Y0052330D01*
X0114143Y0051573D01*
X0115132Y0051163D01*
X0116990Y0051163D01*
X0117979Y0051573D01*
X0118344Y0051938D01*
X0118562Y0051813D01*
X0119119Y0051663D01*
X0119801Y0051663D01*
X0120201Y0051663D01*
X0120201Y0050524D01*
X0120719Y0049274D01*
X0121675Y0048318D01*
X0122925Y0047800D01*
X0124277Y0047800D01*
X0125527Y0048318D01*
X0126483Y0049274D01*
X0127001Y0050524D01*
X0127001Y0051876D01*
X0126514Y0053051D01*
X0126625Y0053319D01*
X0126625Y0057145D01*
X0126241Y0058073D01*
X0126241Y0059297D01*
X0125830Y0060289D01*
X0124647Y0061473D01*
X0125459Y0061809D01*
X0126216Y0062566D01*
X0126625Y0063555D01*
X0126625Y0067381D01*
X0126216Y0068370D01*
X0125459Y0069127D01*
X0124475Y0069534D01*
X0125965Y0070151D01*
X0127259Y0071445D01*
X0127959Y0073136D01*
X0127959Y0074966D01*
X0127259Y0076657D01*
X0125965Y0077951D01*
X0124274Y0078651D01*
X0122444Y0078651D01*
X0120753Y0077951D01*
X0119503Y0076700D01*
X0113164Y0076700D01*
X0112171Y0076289D01*
X0111412Y0075529D01*
X0109312Y0073429D01*
X0108901Y0072437D01*
X0108901Y0070253D01*
X0106374Y0070253D01*
X0106374Y0080461D01*
X0106958Y0080219D01*
X0108264Y0080219D01*
X0109470Y0080718D01*
X0110393Y0081641D01*
X0110892Y0082847D01*
X0110892Y0084153D01*
X0110393Y0085359D01*
X0109470Y0086282D01*
X0108264Y0086781D01*
X0106958Y0086781D01*
X0106374Y0086539D01*
X0106374Y0089143D01*
X0107574Y0090343D01*
X0108274Y0092034D01*
X0108274Y0093864D01*
X0107574Y0095555D01*
X0107531Y0095598D01*
X0108414Y0095598D01*
X0109664Y0096115D01*
X0109866Y0096317D01*
X0110068Y0096115D01*
X0111317Y0095598D01*
X0112670Y0095598D01*
X0113920Y0096115D01*
X0114022Y0096217D01*
X0114124Y0096115D01*
X0115373Y0095598D01*
X0116726Y0095598D01*
X0117976Y0096115D01*
X0118932Y0097072D01*
X0119450Y0098321D01*
X0119450Y0099674D01*
X0119309Y0100014D01*
X0119362Y0100000D01*
X0120261Y0100000D01*
X0120261Y0109100D01*
X0117539Y0109100D01*
X0119795Y0109100D01*
X0120261Y0109100D01*
X0120261Y0109100D01*
X0120261Y0118200D01*
X0119362Y0118200D01*
X0118955Y0118091D01*
X0118884Y0118050D01*
X0118812Y0118091D01*
X0118405Y0118200D01*
X0117506Y0118200D01*
X0117506Y0117503D01*
X0117506Y0117503D01*
X0117506Y0118200D01*
X0116809Y0118200D01*
X0116309Y0118700D01*
X0071852Y0118700D01*
X0071352Y0118200D01*
X0070655Y0118200D01*
X0069756Y0118200D01*
X0069349Y0118091D01*
X0069277Y0118050D01*
X0069206Y0118091D01*
X0068799Y0118200D01*
X0067899Y0118200D01*
X0067899Y0109100D01*
X0068366Y0109100D01*
X0070622Y0109100D01*
X0070622Y0109100D01*
X0067899Y0109100D01*
X0067899Y0109672D02*
X0067899Y0109672D01*
X0067899Y0110870D02*
X0067899Y0110870D01*
X0067899Y0112069D02*
X0067899Y0112069D01*
X0067899Y0113268D02*
X0067899Y0113268D01*
X0067899Y0114466D02*
X0067899Y0114466D01*
X0067899Y0115665D02*
X0067899Y0115665D01*
X0067899Y0116863D02*
X0067899Y0116863D01*
X0067899Y0118062D02*
X0067899Y0118062D01*
X0066542Y0118062D02*
X0066501Y0118062D01*
X0065301Y0118600D02*
X0064801Y0118600D01*
X0065143Y0118062D02*
X0065143Y0118062D01*
X0069257Y0118062D02*
X0069298Y0118062D01*
X0070655Y0118062D02*
X0070655Y0118062D01*
X0070655Y0118200D02*
X0070655Y0117503D01*
X0070655Y0118200D01*
X0070655Y0117503D02*
X0070655Y0117503D01*
X0076167Y0109100D02*
X0076167Y0100216D01*
X0075801Y0099600D01*
X0076501Y0096100D02*
X0077348Y0095253D01*
X0077348Y0090852D01*
X0073411Y0090852D02*
X0071001Y0093262D01*
X0071001Y0093600D01*
X0066739Y0092800D02*
X0071049Y0088490D01*
X0066423Y0089297D02*
X0043484Y0089297D01*
X0042118Y0089297D02*
X0041851Y0089297D01*
X0041851Y0090496D02*
X0065225Y0090496D01*
X0064014Y0091694D02*
X0041851Y0091694D01*
X0038080Y0101282D02*
X0022401Y0101282D01*
X0022401Y0102481D02*
X0038051Y0102481D01*
X0038051Y0103679D02*
X0022401Y0103679D01*
X0022401Y0104878D02*
X0038051Y0104878D01*
X0038051Y0106076D02*
X0022401Y0106076D01*
X0022401Y0107275D02*
X0038051Y0107275D01*
X0038051Y0108473D02*
X0022401Y0108473D01*
X0027117Y0098885D02*
X0027885Y0098885D01*
X0027885Y0097687D02*
X0027117Y0097687D01*
X0027117Y0096488D02*
X0027885Y0096488D01*
X0027885Y0095290D02*
X0027117Y0095290D01*
X0027117Y0094091D02*
X0027885Y0094091D01*
X0027885Y0092893D02*
X0027117Y0092893D01*
X0027117Y0091694D02*
X0027885Y0091694D01*
X0027885Y0090496D02*
X0027117Y0090496D01*
X0042801Y0072600D02*
X0042801Y0067141D01*
X0046261Y0063681D01*
X0046201Y0063741D01*
X0043078Y0062930D02*
X0032601Y0062930D01*
X0032601Y0064129D02*
X0041995Y0064129D01*
X0040797Y0065327D02*
X0032601Y0065327D01*
X0032601Y0067724D02*
X0035164Y0067724D01*
X0034651Y0068923D02*
X0032601Y0068923D01*
X0032531Y0070121D02*
X0034651Y0070121D01*
X0038251Y0070121D02*
X0038251Y0070121D01*
X0038251Y0070900D02*
X0038251Y0070900D01*
X0038251Y0068923D02*
X0038251Y0068923D01*
X0038251Y0067724D02*
X0038251Y0067724D01*
X0037326Y0060533D02*
X0022401Y0060533D01*
X0022401Y0059334D02*
X0036415Y0059334D01*
X0035919Y0058136D02*
X0022401Y0058136D01*
X0022401Y0056937D02*
X0031788Y0056937D01*
X0031539Y0055739D02*
X0022401Y0055739D01*
X0022401Y0054540D02*
X0031539Y0054540D01*
X0031539Y0053342D02*
X0022401Y0053342D01*
X0022401Y0052143D02*
X0031539Y0052143D01*
X0031606Y0050945D02*
X0022401Y0050945D01*
X0022401Y0049746D02*
X0034890Y0049746D01*
X0036088Y0048548D02*
X0022401Y0048548D01*
X0022401Y0047349D02*
X0037287Y0047349D01*
X0038485Y0046151D02*
X0033858Y0046151D01*
X0034721Y0044952D02*
X0039684Y0044952D01*
X0039989Y0043754D02*
X0035001Y0043754D01*
X0034848Y0042555D02*
X0039989Y0042555D01*
X0044254Y0044200D02*
X0035804Y0052650D01*
X0035804Y0053850D01*
X0036004Y0054404D01*
X0039501Y0057900D01*
X0042587Y0059334D02*
X0044193Y0059334D01*
X0043078Y0060533D02*
X0041676Y0060533D01*
X0043078Y0061732D02*
X0032318Y0061732D01*
X0027885Y0061732D02*
X0027117Y0061732D01*
X0027117Y0062930D02*
X0027885Y0062930D01*
X0027885Y0064129D02*
X0027117Y0064129D01*
X0027117Y0065327D02*
X0027885Y0065327D01*
X0027885Y0067724D02*
X0027117Y0067724D01*
X0027117Y0068923D02*
X0027885Y0068923D01*
X0027885Y0070121D02*
X0027117Y0070121D01*
X0022684Y0061732D02*
X0022401Y0061732D01*
X0022401Y0046151D02*
X0029343Y0046151D01*
X0028481Y0044952D02*
X0022401Y0044952D01*
X0022401Y0043754D02*
X0028201Y0043754D01*
X0028353Y0042555D02*
X0022401Y0042555D01*
X0022401Y0041357D02*
X0028901Y0041357D01*
X0028901Y0040158D02*
X0022401Y0040158D01*
X0022401Y0038960D02*
X0028901Y0038960D01*
X0028901Y0037761D02*
X0022401Y0037761D01*
X0022401Y0036563D02*
X0028901Y0036563D01*
X0028901Y0035364D02*
X0022401Y0035364D01*
X0022401Y0034166D02*
X0028901Y0034166D01*
X0028901Y0032967D02*
X0022401Y0032967D01*
X0022401Y0031769D02*
X0028901Y0031769D01*
X0026405Y0030570D02*
X0022401Y0030570D01*
X0022401Y0029372D02*
X0025327Y0029372D01*
X0025327Y0028173D02*
X0022401Y0028173D01*
X0022401Y0026975D02*
X0025327Y0026975D01*
X0025327Y0025776D02*
X0022401Y0025776D01*
X0022401Y0024578D02*
X0025327Y0024578D01*
X0025327Y0023379D02*
X0022401Y0023379D01*
X0022401Y0022181D02*
X0025327Y0022181D01*
X0025327Y0020982D02*
X0022401Y0020982D01*
X0022401Y0019784D02*
X0025327Y0019784D01*
X0025327Y0018585D02*
X0022401Y0018585D01*
X0022401Y0017387D02*
X0025327Y0017387D01*
X0025327Y0016188D02*
X0022401Y0016188D01*
X0022401Y0014990D02*
X0025327Y0014990D01*
X0025327Y0013791D02*
X0022401Y0013791D01*
X0022401Y0012593D02*
X0025327Y0012593D01*
X0025327Y0011394D02*
X0022401Y0011394D01*
X0022401Y0010196D02*
X0025327Y0010196D01*
X0025972Y0008997D02*
X0022401Y0008997D01*
X0031364Y0019567D02*
X0031601Y0019804D01*
X0031601Y0038900D01*
X0049701Y0038900D01*
X0051151Y0037450D01*
X0050401Y0038200D01*
X0051151Y0037450D02*
X0062701Y0025900D01*
X0087801Y0025900D01*
X0090361Y0023340D01*
X0093238Y0023340D01*
X0094532Y0022346D01*
X0105101Y0022346D01*
X0105064Y0031309D01*
X0111964Y0038250D01*
X0107864Y0037956D02*
X0107864Y0040370D01*
X0109094Y0041600D01*
X0114834Y0041600D01*
X0115738Y0040696D01*
X0115738Y0044110D01*
X0116968Y0045340D01*
X0122708Y0045340D01*
X0123375Y0044672D01*
X0123740Y0044677D01*
X0123764Y0044667D01*
X0123791Y0044667D01*
X0124262Y0044469D01*
X0124738Y0044279D01*
X0124756Y0044261D01*
X0124781Y0044251D01*
X0125140Y0043886D01*
X0127214Y0041866D01*
X0127230Y0041859D01*
X0127598Y0041492D01*
X0127970Y0041129D01*
X0127977Y0041113D01*
X0127990Y0041100D01*
X0128189Y0040620D01*
X0128394Y0040142D01*
X0128394Y0040124D01*
X0128401Y0040108D01*
X0128401Y0039887D01*
X0129242Y0040728D01*
X0130071Y0041071D01*
X0129242Y0041415D01*
X0127723Y0042934D01*
X0126901Y0044918D01*
X0126901Y0047067D01*
X0127723Y0049051D01*
X0129242Y0050570D01*
X0131227Y0051393D01*
X0133375Y0051393D01*
X0135360Y0050570D01*
X0136879Y0049051D01*
X0137701Y0047067D01*
X0137701Y0044918D01*
X0136879Y0042934D01*
X0135360Y0041415D01*
X0134531Y0041071D01*
X0135360Y0040728D01*
X0136879Y0039209D01*
X0137701Y0037224D01*
X0137701Y0035076D01*
X0136879Y0033091D01*
X0135360Y0031572D01*
X0134531Y0031229D01*
X0135360Y0030885D01*
X0136879Y0029366D01*
X0137701Y0027382D01*
X0137701Y0025233D01*
X0136879Y0023249D01*
X0135360Y0021730D01*
X0133375Y0020907D01*
X0131227Y0020907D01*
X0130868Y0021056D01*
X0122445Y0012633D01*
X0121453Y0012222D01*
X0118495Y0012222D01*
X0117855Y0011582D01*
X0113526Y0011582D01*
X0113190Y0010771D01*
X0111119Y0008700D01*
X0138201Y0008700D01*
X0138201Y0134500D01*
X0109401Y0134500D01*
X0109401Y0128230D01*
X0108171Y0127000D01*
X0052431Y0127000D01*
X0051201Y0128230D01*
X0051201Y0134500D01*
X0022401Y0134500D01*
X0022401Y0133642D02*
X0051201Y0133642D01*
X0051201Y0132444D02*
X0022401Y0132444D01*
X0022401Y0131245D02*
X0051201Y0131245D01*
X0051201Y0130047D02*
X0022401Y0130047D01*
X0022401Y0128848D02*
X0051201Y0128848D01*
X0051781Y0127650D02*
X0022401Y0127650D01*
X0022401Y0126451D02*
X0138201Y0126451D01*
X0138201Y0125253D02*
X0022401Y0125253D01*
X0022401Y0124054D02*
X0138201Y0124054D01*
X0138201Y0122856D02*
X0022401Y0122856D01*
X0022401Y0121657D02*
X0138201Y0121657D01*
X0138201Y0120459D02*
X0022401Y0120459D01*
X0022401Y0119260D02*
X0138201Y0119260D01*
X0138201Y0118062D02*
X0121619Y0118062D01*
X0121568Y0118091D02*
X0121161Y0118200D01*
X0120262Y0118200D01*
X0120262Y0109100D01*
X0122550Y0109100D01*
X0122550Y0116811D01*
X0122441Y0117218D01*
X0122231Y0117582D01*
X0121933Y0117880D01*
X0121568Y0118091D01*
X0120262Y0118062D02*
X0120261Y0118062D01*
X0120262Y0118561D02*
X0120262Y0109100D01*
X0120262Y0109100D01*
X0122550Y0109100D01*
X0122550Y0101389D01*
X0122441Y0100982D01*
X0122231Y0100618D01*
X0121933Y0100320D01*
X0121568Y0100109D01*
X0121161Y0100000D01*
X0120262Y0100000D01*
X0120262Y0109100D01*
X0120261Y0109100D01*
X0120262Y0109100D01*
X0131213Y0098149D01*
X0131233Y0092949D01*
X0131144Y0092893D02*
X0108274Y0092893D01*
X0108180Y0094091D02*
X0127293Y0094091D01*
X0127234Y0093909D02*
X0127434Y0094523D01*
X0127727Y0095098D01*
X0128106Y0095620D01*
X0128562Y0096076D01*
X0129084Y0096455D01*
X0129659Y0096748D01*
X0130273Y0096948D01*
X0130910Y0097049D01*
X0131144Y0097049D01*
X0131144Y0093038D01*
X0131322Y0093038D01*
X0131322Y0097049D01*
X0131556Y0097049D01*
X0132193Y0096948D01*
X0132807Y0096748D01*
X0133382Y0096455D01*
X0133904Y0096076D01*
X0134360Y0095620D01*
X0134740Y0095098D01*
X0135033Y0094523D01*
X0135232Y0093909D01*
X0135333Y0093271D01*
X0135333Y0093038D01*
X0131322Y0093038D01*
X0131322Y0092860D01*
X0131322Y0088849D01*
X0131556Y0088849D01*
X0132193Y0088950D01*
X0132807Y0089149D01*
X0133382Y0089442D01*
X0133904Y0089822D01*
X0134360Y0090278D01*
X0134740Y0090800D01*
X0135033Y0091375D01*
X0135232Y0091989D01*
X0135333Y0092626D01*
X0135333Y0092860D01*
X0131322Y0092860D01*
X0131144Y0092860D01*
X0127133Y0092860D01*
X0127133Y0092626D01*
X0127234Y0091989D01*
X0127434Y0091375D01*
X0127727Y0090800D01*
X0128106Y0090278D01*
X0128562Y0089822D01*
X0129084Y0089442D01*
X0129659Y0089149D01*
X0130273Y0088950D01*
X0130910Y0088849D01*
X0131144Y0088849D01*
X0131144Y0092860D01*
X0131144Y0093038D01*
X0127133Y0093038D01*
X0127133Y0093271D01*
X0127234Y0093909D01*
X0127866Y0095290D02*
X0107683Y0095290D01*
X0108133Y0091694D02*
X0127330Y0091694D01*
X0127948Y0090496D02*
X0107637Y0090496D01*
X0106528Y0089297D02*
X0129369Y0089297D01*
X0131144Y0089297D02*
X0131322Y0089297D01*
X0131322Y0090496D02*
X0131144Y0090496D01*
X0131144Y0091694D02*
X0131322Y0091694D01*
X0131322Y0092893D02*
X0138201Y0092893D01*
X0138201Y0094091D02*
X0135173Y0094091D01*
X0134600Y0095290D02*
X0138201Y0095290D01*
X0138201Y0096488D02*
X0133317Y0096488D01*
X0131322Y0096488D02*
X0131144Y0096488D01*
X0131144Y0095290D02*
X0131322Y0095290D01*
X0131322Y0094091D02*
X0131144Y0094091D01*
X0129149Y0096488D02*
X0118349Y0096488D01*
X0119187Y0097687D02*
X0138201Y0097687D01*
X0138201Y0098885D02*
X0119450Y0098885D01*
X0120261Y0100084D02*
X0120262Y0100084D01*
X0120261Y0101282D02*
X0120262Y0101282D01*
X0120261Y0102481D02*
X0120262Y0102481D01*
X0120261Y0103679D02*
X0120262Y0103679D01*
X0120261Y0104878D02*
X0120262Y0104878D01*
X0120261Y0106076D02*
X0120262Y0106076D01*
X0120261Y0107275D02*
X0120262Y0107275D01*
X0120261Y0108473D02*
X0120262Y0108473D01*
X0120262Y0109100D02*
X0117506Y0109100D01*
X0117539Y0109100D02*
X0117539Y0109100D01*
X0120261Y0109672D02*
X0120262Y0109672D01*
X0120261Y0110870D02*
X0120262Y0110870D01*
X0120261Y0112069D02*
X0120262Y0112069D01*
X0120261Y0113268D02*
X0120262Y0113268D01*
X0120261Y0114466D02*
X0120262Y0114466D01*
X0120261Y0115665D02*
X0120262Y0115665D01*
X0120261Y0116863D02*
X0120262Y0116863D01*
X0120262Y0118561D02*
X0120301Y0118600D01*
X0118904Y0118062D02*
X0118863Y0118062D01*
X0117506Y0118062D02*
X0117506Y0118062D01*
X0122536Y0116863D02*
X0138201Y0116863D01*
X0138201Y0115665D02*
X0122550Y0115665D01*
X0122550Y0114466D02*
X0138201Y0114466D01*
X0138201Y0113268D02*
X0122550Y0113268D01*
X0122550Y0112069D02*
X0138201Y0112069D01*
X0138201Y0110870D02*
X0122550Y0110870D01*
X0122550Y0109672D02*
X0138201Y0109672D01*
X0138201Y0108473D02*
X0122550Y0108473D01*
X0122550Y0107275D02*
X0138201Y0107275D01*
X0138201Y0106076D02*
X0122550Y0106076D01*
X0122550Y0104878D02*
X0138201Y0104878D01*
X0138201Y0103679D02*
X0122550Y0103679D01*
X0122550Y0102481D02*
X0138201Y0102481D01*
X0138201Y0101282D02*
X0122522Y0101282D01*
X0121474Y0100084D02*
X0138201Y0100084D01*
X0138201Y0091694D02*
X0135137Y0091694D01*
X0134519Y0090496D02*
X0138201Y0090496D01*
X0138201Y0089297D02*
X0133098Y0089297D01*
X0131886Y0086781D02*
X0130581Y0086781D01*
X0129375Y0086282D01*
X0128452Y0085359D01*
X0127952Y0084153D01*
X0127952Y0082847D01*
X0128452Y0081641D01*
X0129375Y0080718D01*
X0130581Y0080219D01*
X0131886Y0080219D01*
X0133092Y0080718D01*
X0134015Y0081641D01*
X0134514Y0082847D01*
X0134514Y0084153D01*
X0134015Y0085359D01*
X0133092Y0086282D01*
X0131886Y0086781D01*
X0133672Y0085702D02*
X0138201Y0085702D01*
X0138201Y0086900D02*
X0106374Y0086900D01*
X0106374Y0088099D02*
X0138201Y0088099D01*
X0138201Y0084503D02*
X0134369Y0084503D01*
X0134514Y0083305D02*
X0138201Y0083305D01*
X0138201Y0082106D02*
X0134207Y0082106D01*
X0133281Y0080908D02*
X0138201Y0080908D01*
X0138201Y0079709D02*
X0106374Y0079709D01*
X0106374Y0078511D02*
X0122105Y0078511D01*
X0120115Y0077312D02*
X0106374Y0077312D01*
X0106374Y0076114D02*
X0111996Y0076114D01*
X0110798Y0074915D02*
X0106374Y0074915D01*
X0106374Y0073717D02*
X0109599Y0073717D01*
X0108934Y0072518D02*
X0106374Y0072518D01*
X0106374Y0071320D02*
X0108901Y0071320D01*
X0111601Y0071900D02*
X0113701Y0074000D01*
X0123308Y0074000D01*
X0127133Y0071320D02*
X0138201Y0071320D01*
X0138201Y0072518D02*
X0127703Y0072518D01*
X0127959Y0073717D02*
X0138201Y0073717D01*
X0138201Y0074915D02*
X0127959Y0074915D01*
X0127484Y0076114D02*
X0138201Y0076114D01*
X0138201Y0077312D02*
X0126604Y0077312D01*
X0124613Y0078511D02*
X0138201Y0078511D01*
X0138201Y0070121D02*
X0125891Y0070121D01*
X0125663Y0068923D02*
X0138201Y0068923D01*
X0138201Y0067724D02*
X0126483Y0067724D01*
X0126625Y0066526D02*
X0138201Y0066526D01*
X0138201Y0065327D02*
X0126625Y0065327D01*
X0126625Y0064129D02*
X0138201Y0064129D01*
X0138201Y0062930D02*
X0126366Y0062930D01*
X0125271Y0061732D02*
X0138201Y0061732D01*
X0138201Y0060533D02*
X0125586Y0060533D01*
X0126225Y0059334D02*
X0138201Y0059334D01*
X0138201Y0058136D02*
X0126241Y0058136D01*
X0126625Y0056937D02*
X0138201Y0056937D01*
X0138201Y0055739D02*
X0126625Y0055739D01*
X0126625Y0054540D02*
X0138201Y0054540D01*
X0138201Y0053342D02*
X0126625Y0053342D01*
X0126890Y0052143D02*
X0138201Y0052143D01*
X0138201Y0050945D02*
X0134456Y0050945D01*
X0136184Y0049746D02*
X0138201Y0049746D01*
X0138201Y0048548D02*
X0137087Y0048548D01*
X0137584Y0047349D02*
X0138201Y0047349D01*
X0138201Y0046151D02*
X0137701Y0046151D01*
X0137701Y0044952D02*
X0138201Y0044952D01*
X0138201Y0043754D02*
X0137219Y0043754D01*
X0136500Y0042555D02*
X0138201Y0042555D01*
X0138201Y0041357D02*
X0135220Y0041357D01*
X0135929Y0040158D02*
X0138201Y0040158D01*
X0138201Y0038960D02*
X0136982Y0038960D01*
X0137478Y0037761D02*
X0138201Y0037761D01*
X0138201Y0036563D02*
X0137701Y0036563D01*
X0137701Y0035364D02*
X0138201Y0035364D01*
X0138201Y0034166D02*
X0137324Y0034166D01*
X0136755Y0032967D02*
X0138201Y0032967D01*
X0138201Y0031769D02*
X0135556Y0031769D01*
X0135675Y0030570D02*
X0138201Y0030570D01*
X0138201Y0029372D02*
X0136873Y0029372D01*
X0137373Y0028173D02*
X0138201Y0028173D01*
X0138201Y0026975D02*
X0137701Y0026975D01*
X0137701Y0025776D02*
X0138201Y0025776D01*
X0138201Y0024578D02*
X0137429Y0024578D01*
X0136933Y0023379D02*
X0138201Y0023379D01*
X0138201Y0022181D02*
X0135811Y0022181D01*
X0133555Y0020982D02*
X0138201Y0020982D01*
X0138201Y0019784D02*
X0129595Y0019784D01*
X0128397Y0018585D02*
X0138201Y0018585D01*
X0138201Y0017387D02*
X0127198Y0017387D01*
X0126000Y0016188D02*
X0138201Y0016188D01*
X0138201Y0014990D02*
X0124801Y0014990D01*
X0123603Y0013791D02*
X0138201Y0013791D01*
X0138201Y0012593D02*
X0122346Y0012593D01*
X0120916Y0014922D02*
X0132301Y0026307D01*
X0125701Y0032800D01*
X0125701Y0039570D01*
X0123238Y0041970D01*
X0119838Y0041990D01*
X0123096Y0044952D02*
X0126901Y0044952D01*
X0126901Y0046151D02*
X0098670Y0046151D01*
X0098630Y0046111D02*
X0099390Y0046871D01*
X0099801Y0047863D01*
X0099801Y0049447D01*
X0099801Y0048548D02*
X0121445Y0048548D01*
X0120523Y0049746D02*
X0110369Y0049746D01*
X0111300Y0050945D02*
X0120201Y0050945D01*
X0119901Y0051200D02*
X0119901Y0055132D01*
X0119801Y0055232D01*
X0119801Y0051663D01*
X0119801Y0055232D01*
X0119801Y0055232D01*
X0119801Y0054540D02*
X0119801Y0054540D01*
X0119801Y0053342D02*
X0119801Y0053342D01*
X0119801Y0052143D02*
X0119801Y0052143D01*
X0123601Y0051200D02*
X0123601Y0055172D01*
X0123541Y0055232D01*
X0123541Y0058760D01*
X0122001Y0060300D01*
X0117701Y0060300D01*
X0116061Y0058660D01*
X0116061Y0055232D01*
X0112976Y0055739D02*
X0111300Y0055739D01*
X0111300Y0054540D02*
X0112976Y0054540D01*
X0112976Y0053342D02*
X0111300Y0053342D01*
X0111300Y0052143D02*
X0113573Y0052143D01*
X0112976Y0056937D02*
X0112057Y0056937D01*
X0113255Y0058136D02*
X0113361Y0058136D01*
X0111601Y0060300D02*
X0111601Y0071900D01*
X0116061Y0071060D02*
X0116061Y0065468D01*
X0111601Y0060300D02*
X0106641Y0055340D01*
X0102913Y0049746D02*
X0102889Y0049746D01*
X0099588Y0047349D02*
X0127018Y0047349D01*
X0127514Y0048548D02*
X0125757Y0048548D01*
X0126679Y0049746D02*
X0128418Y0049746D01*
X0127001Y0050945D02*
X0130146Y0050945D01*
X0127383Y0043754D02*
X0125277Y0043754D01*
X0126506Y0042555D02*
X0128101Y0042555D01*
X0127736Y0041357D02*
X0129382Y0041357D01*
X0128672Y0040158D02*
X0128387Y0040158D01*
X0119838Y0034510D02*
X0119838Y0028465D01*
X0115351Y0023978D01*
X0115351Y0023750D01*
X0110901Y0019300D01*
X0110901Y0012300D01*
X0107701Y0009100D01*
X0070201Y0009100D01*
X0048601Y0030800D01*
X0044801Y0034600D01*
X0035801Y0034600D01*
X0034301Y0031541D02*
X0035125Y0031200D01*
X0036477Y0031200D01*
X0037727Y0031718D01*
X0037909Y0031900D01*
X0043683Y0031900D01*
X0045360Y0030222D01*
X0043838Y0030222D01*
X0043838Y0020167D01*
X0048775Y0020167D01*
X0048775Y0026798D01*
X0066789Y0008700D01*
X0036459Y0008700D01*
X0037401Y0009642D01*
X0037401Y0029492D01*
X0036171Y0030722D01*
X0034301Y0030722D01*
X0034301Y0031541D01*
X0036323Y0030570D02*
X0045012Y0030570D01*
X0043838Y0029372D02*
X0042638Y0029372D01*
X0042638Y0030222D02*
X0039090Y0030222D01*
X0038683Y0030113D01*
X0038318Y0029902D01*
X0038021Y0029604D01*
X0037810Y0029240D01*
X0037701Y0028833D01*
X0037701Y0020167D01*
X0042638Y0020167D01*
X0042638Y0030222D01*
X0043814Y0031769D02*
X0037778Y0031769D01*
X0037886Y0029372D02*
X0037401Y0029372D01*
X0037401Y0028173D02*
X0037701Y0028173D01*
X0037701Y0026975D02*
X0037401Y0026975D01*
X0037401Y0025776D02*
X0037701Y0025776D01*
X0037701Y0024578D02*
X0037401Y0024578D01*
X0037401Y0023379D02*
X0037701Y0023379D01*
X0037701Y0022181D02*
X0037401Y0022181D01*
X0037401Y0020982D02*
X0037701Y0020982D01*
X0037401Y0019784D02*
X0042638Y0019784D01*
X0042638Y0020167D02*
X0042638Y0018967D01*
X0043838Y0018967D01*
X0043838Y0020167D01*
X0042638Y0020167D01*
X0042638Y0020982D02*
X0043838Y0020982D01*
X0043838Y0019784D02*
X0055757Y0019784D01*
X0054564Y0020982D02*
X0048775Y0020982D01*
X0048775Y0022181D02*
X0053371Y0022181D01*
X0052178Y0023379D02*
X0048775Y0023379D01*
X0048775Y0024578D02*
X0050985Y0024578D01*
X0049792Y0025776D02*
X0048775Y0025776D01*
X0052639Y0030570D02*
X0054212Y0030570D01*
X0053832Y0029372D02*
X0055411Y0029372D01*
X0055025Y0028173D02*
X0056609Y0028173D01*
X0056218Y0026975D02*
X0057808Y0026975D01*
X0057411Y0025776D02*
X0059006Y0025776D01*
X0058604Y0024578D02*
X0060205Y0024578D01*
X0059797Y0023379D02*
X0061731Y0023379D01*
X0062164Y0023200D02*
X0061171Y0023611D01*
X0049621Y0035161D01*
X0049621Y0035161D01*
X0048583Y0036200D01*
X0047019Y0036200D01*
X0047090Y0036129D01*
X0050133Y0033087D01*
X0050136Y0033085D01*
X0050513Y0032706D01*
X0050890Y0032329D01*
X0050891Y0032326D01*
X0061157Y0022013D01*
X0062094Y0022950D01*
X0067834Y0022950D01*
X0069064Y0021720D01*
X0069064Y0018306D01*
X0069968Y0019210D01*
X0073505Y0019210D01*
X0073719Y0019726D01*
X0074483Y0020490D01*
X0072863Y0020490D01*
X0072863Y0023200D01*
X0072813Y0023200D01*
X0072813Y0020490D01*
X0070627Y0020490D01*
X0070220Y0020599D01*
X0069855Y0020810D01*
X0069558Y0021108D01*
X0069347Y0021473D01*
X0069238Y0021880D01*
X0069238Y0023200D01*
X0062164Y0023200D01*
X0061325Y0022181D02*
X0060990Y0022181D01*
X0064964Y0019600D02*
X0064964Y0017937D01*
X0070901Y0012000D01*
X0089378Y0012000D01*
X0093238Y0015860D01*
X0093744Y0015654D01*
X0105101Y0015654D01*
X0111416Y0008997D02*
X0138201Y0008997D01*
X0138201Y0010196D02*
X0112615Y0010196D01*
X0113448Y0011394D02*
X0138201Y0011394D01*
X0131047Y0020982D02*
X0130794Y0020982D01*
X0120916Y0014922D02*
X0115351Y0014922D01*
X0102383Y0026612D02*
X0102263Y0026612D01*
X0101032Y0025382D01*
X0101032Y0025046D01*
X0097338Y0025046D01*
X0097338Y0025460D01*
X0096108Y0026690D01*
X0090829Y0026690D01*
X0089330Y0028189D01*
X0088801Y0028408D01*
X0088801Y0029476D01*
X0088283Y0030726D01*
X0087327Y0031682D01*
X0086077Y0032200D01*
X0084725Y0032200D01*
X0083475Y0031682D01*
X0083293Y0031500D01*
X0077151Y0031500D01*
X0077151Y0034273D01*
X0081590Y0038712D01*
X0084194Y0038712D01*
X0084694Y0039212D01*
X0084801Y0039212D01*
X0084907Y0039212D01*
X0085407Y0038712D01*
X0090100Y0038712D01*
X0091330Y0039942D01*
X0091330Y0042245D01*
X0091338Y0042264D01*
X0091338Y0044200D01*
X0096138Y0044200D01*
X0097130Y0044611D01*
X0098630Y0046111D01*
X0097472Y0044952D02*
X0116580Y0044952D01*
X0115738Y0043754D02*
X0091338Y0043754D01*
X0091338Y0042555D02*
X0115738Y0042555D01*
X0115738Y0041357D02*
X0115077Y0041357D01*
X0108851Y0041357D02*
X0091330Y0041357D01*
X0091330Y0040158D02*
X0107864Y0040158D01*
X0107864Y0038960D02*
X0090347Y0038960D01*
X0085160Y0038960D02*
X0084442Y0038960D01*
X0084801Y0039212D02*
X0084801Y0039319D01*
X0084801Y0039319D01*
X0084801Y0039319D01*
X0084801Y0039212D01*
X0080639Y0037761D02*
X0107671Y0037761D01*
X0107864Y0037956D02*
X0103527Y0033593D01*
X0103525Y0033592D01*
X0103148Y0033212D01*
X0102770Y0032832D01*
X0102770Y0032831D01*
X0102769Y0032829D01*
X0102565Y0032333D01*
X0102362Y0031839D01*
X0102362Y0031837D01*
X0102362Y0031835D01*
X0102364Y0031303D01*
X0102365Y0030764D01*
X0102366Y0030763D01*
X0102383Y0026612D01*
X0102382Y0026975D02*
X0090545Y0026975D01*
X0089346Y0028173D02*
X0102377Y0028173D01*
X0102372Y0029372D02*
X0088801Y0029372D01*
X0088348Y0030570D02*
X0102367Y0030570D01*
X0102362Y0031769D02*
X0087118Y0031769D01*
X0085401Y0028800D02*
X0068401Y0028800D01*
X0053001Y0044200D01*
X0050947Y0044200D01*
X0055213Y0046151D02*
X0078804Y0046151D01*
X0078951Y0047349D02*
X0054902Y0047349D01*
X0056067Y0044952D02*
X0078272Y0044952D01*
X0078272Y0043754D02*
X0057265Y0043754D01*
X0058464Y0042555D02*
X0078079Y0042555D01*
X0076881Y0041357D02*
X0059662Y0041357D01*
X0060861Y0040158D02*
X0075682Y0040158D01*
X0071441Y0038960D02*
X0062059Y0038960D01*
X0063258Y0037761D02*
X0066085Y0037761D01*
X0065951Y0036563D02*
X0064456Y0036563D01*
X0065655Y0035364D02*
X0065951Y0035364D01*
X0068776Y0035364D02*
X0068826Y0035364D01*
X0068801Y0034600D02*
X0068801Y0039400D01*
X0077601Y0048200D01*
X0077601Y0052300D01*
X0079438Y0050945D02*
X0075501Y0050945D01*
X0075055Y0049746D02*
X0078784Y0049746D01*
X0078651Y0048548D02*
X0073859Y0048548D01*
X0072101Y0051500D02*
X0072101Y0064000D01*
X0077348Y0069247D01*
X0077348Y0072348D01*
X0075380Y0072348D02*
X0075380Y0070479D01*
X0065901Y0061000D01*
X0065901Y0052000D01*
X0068456Y0049746D02*
X0069147Y0049746D01*
X0070343Y0048548D02*
X0043725Y0048548D01*
X0042526Y0049746D02*
X0063346Y0049746D01*
X0059597Y0053900D02*
X0059597Y0057825D01*
X0053741Y0063681D01*
X0057112Y0064129D02*
X0059369Y0064129D01*
X0058862Y0065327D02*
X0056924Y0065327D01*
X0056924Y0066526D02*
X0058732Y0066526D01*
X0058925Y0067724D02*
X0056113Y0067724D01*
X0058311Y0062930D02*
X0060667Y0062930D01*
X0059509Y0061732D02*
X0063281Y0061732D01*
X0063201Y0060533D02*
X0060708Y0060533D01*
X0061895Y0059334D02*
X0063201Y0059334D01*
X0063201Y0058136D02*
X0062297Y0058136D01*
X0055468Y0058136D02*
X0042901Y0058136D01*
X0045806Y0056937D02*
X0049545Y0056937D01*
X0049139Y0055739D02*
X0046263Y0055739D01*
X0046263Y0054540D02*
X0049139Y0054540D01*
X0049139Y0053342D02*
X0046263Y0053342D01*
X0046263Y0052143D02*
X0049139Y0052143D01*
X0049463Y0050945D02*
X0045969Y0050945D01*
X0042882Y0050945D02*
X0042113Y0050945D01*
X0042113Y0052143D02*
X0042882Y0052143D01*
X0042882Y0053342D02*
X0042113Y0053342D01*
X0052520Y0052143D02*
X0053289Y0052143D01*
X0053289Y0050945D02*
X0052520Y0050945D01*
X0049418Y0035364D02*
X0047855Y0035364D01*
X0049053Y0034166D02*
X0050617Y0034166D01*
X0050253Y0032967D02*
X0051815Y0032967D01*
X0051446Y0031769D02*
X0053014Y0031769D01*
X0043838Y0028173D02*
X0042638Y0028173D01*
X0042638Y0026975D02*
X0043838Y0026975D01*
X0043838Y0025776D02*
X0042638Y0025776D01*
X0042638Y0024578D02*
X0043838Y0024578D01*
X0043838Y0023379D02*
X0042638Y0023379D01*
X0042638Y0022181D02*
X0043838Y0022181D01*
X0043238Y0019567D02*
X0043238Y0015063D01*
X0046401Y0011900D01*
X0054101Y0011900D01*
X0048775Y0011394D02*
X0064108Y0011394D01*
X0065301Y0010196D02*
X0048747Y0010196D01*
X0048775Y0010301D02*
X0048666Y0009894D01*
X0048455Y0009529D01*
X0048157Y0009231D01*
X0047792Y0009021D01*
X0047386Y0008912D01*
X0043838Y0008912D01*
X0043838Y0018967D01*
X0048775Y0018967D01*
X0048775Y0010301D01*
X0047704Y0008997D02*
X0066494Y0008997D01*
X0062915Y0012593D02*
X0048775Y0012593D01*
X0048775Y0013791D02*
X0061722Y0013791D01*
X0060529Y0014990D02*
X0048775Y0014990D01*
X0048775Y0016188D02*
X0059336Y0016188D01*
X0058143Y0017387D02*
X0048775Y0017387D01*
X0048775Y0018585D02*
X0056950Y0018585D01*
X0069064Y0018585D02*
X0069343Y0018585D01*
X0069064Y0019784D02*
X0073776Y0019784D01*
X0072838Y0019537D02*
X0072801Y0019500D01*
X0072838Y0019537D02*
X0072838Y0023340D01*
X0072813Y0022181D02*
X0072863Y0022181D01*
X0072863Y0020982D02*
X0072813Y0020982D01*
X0076601Y0017800D02*
X0074501Y0015723D01*
X0072838Y0015860D01*
X0069683Y0020982D02*
X0069064Y0020982D01*
X0069238Y0022181D02*
X0068603Y0022181D01*
X0077151Y0031769D02*
X0083683Y0031769D01*
X0079441Y0036563D02*
X0106479Y0036563D01*
X0105288Y0035364D02*
X0078242Y0035364D01*
X0077151Y0034166D02*
X0104096Y0034166D01*
X0102905Y0032967D02*
X0077151Y0032967D01*
X0068826Y0036563D02*
X0068776Y0036563D01*
X0068776Y0037761D02*
X0068826Y0037761D01*
X0085401Y0023300D02*
X0085401Y0019937D01*
X0085364Y0019600D01*
X0097022Y0025776D02*
X0101427Y0025776D01*
X0085019Y0055739D02*
X0084583Y0055739D01*
X0078264Y0059334D02*
X0077501Y0059334D01*
X0068301Y0067700D02*
X0072949Y0072348D01*
X0073411Y0072348D01*
X0071049Y0074710D02*
X0066689Y0070350D01*
X0062801Y0066450D01*
X0062601Y0072850D02*
X0066430Y0076679D01*
X0071049Y0076679D01*
X0066739Y0092800D02*
X0064201Y0095300D01*
X0062301Y0097200D01*
X0062301Y0099000D02*
X0062301Y0109013D01*
X0062388Y0109100D01*
X0059632Y0109100D02*
X0059632Y0118600D01*
X0059632Y0118062D02*
X0059632Y0118062D01*
X0065143Y0100697D02*
X0065143Y0100000D01*
X0065143Y0100697D01*
X0065143Y0100697D01*
X0065143Y0100084D02*
X0065143Y0100084D01*
X0066356Y0100084D02*
X0066687Y0100084D01*
X0050001Y0077312D02*
X0050001Y0077312D01*
X0050001Y0076114D02*
X0050001Y0076114D01*
X0050001Y0074915D02*
X0050001Y0074915D01*
X0050001Y0073717D02*
X0050001Y0073717D01*
X0050001Y0072518D02*
X0050001Y0072518D01*
X0050001Y0071320D02*
X0050001Y0071320D01*
X0050001Y0070121D02*
X0050001Y0070121D01*
X0046301Y0068800D02*
X0046301Y0073878D01*
X0046261Y0073919D01*
X0031601Y0043600D02*
X0031601Y0038900D01*
X0037701Y0018967D02*
X0037701Y0010301D01*
X0037810Y0009894D01*
X0038021Y0009529D01*
X0038318Y0009231D01*
X0038683Y0009021D01*
X0039090Y0008912D01*
X0042638Y0008912D01*
X0042638Y0018967D01*
X0037701Y0018967D01*
X0037701Y0018585D02*
X0037401Y0018585D01*
X0037401Y0017387D02*
X0037701Y0017387D01*
X0037701Y0016188D02*
X0037401Y0016188D01*
X0037401Y0014990D02*
X0037701Y0014990D01*
X0037701Y0013791D02*
X0037401Y0013791D01*
X0037401Y0012593D02*
X0037701Y0012593D01*
X0037701Y0011394D02*
X0037401Y0011394D01*
X0037401Y0010196D02*
X0037729Y0010196D01*
X0036756Y0008997D02*
X0038772Y0008997D01*
X0042638Y0008997D02*
X0043838Y0008997D01*
X0043838Y0010196D02*
X0042638Y0010196D01*
X0042638Y0011394D02*
X0043838Y0011394D01*
X0043838Y0012593D02*
X0042638Y0012593D01*
X0042638Y0013791D02*
X0043838Y0013791D01*
X0043838Y0014990D02*
X0042638Y0014990D01*
X0042638Y0016188D02*
X0043838Y0016188D01*
X0043838Y0017387D02*
X0042638Y0017387D01*
X0042638Y0018585D02*
X0043838Y0018585D01*
X0094901Y0061300D02*
X0098961Y0065200D01*
X0103674Y0067967D02*
X0106441Y0065200D01*
X0103674Y0067967D02*
X0103674Y0092949D01*
X0107738Y0098998D02*
X0107738Y0099437D01*
X0109301Y0101000D01*
X0109238Y0109100D01*
X0111994Y0109100D02*
X0111994Y0098998D01*
X0114801Y0100246D02*
X0114801Y0107100D01*
X0114750Y0109100D01*
X0114801Y0100246D02*
X0116050Y0098998D01*
X0110050Y0085702D02*
X0128795Y0085702D01*
X0128097Y0084503D02*
X0110747Y0084503D01*
X0110892Y0083305D02*
X0127952Y0083305D01*
X0128259Y0082106D02*
X0110585Y0082106D01*
X0109659Y0080908D02*
X0129185Y0080908D01*
X0138201Y0127650D02*
X0108820Y0127650D01*
X0109401Y0128848D02*
X0138201Y0128848D01*
X0138201Y0130047D02*
X0109401Y0130047D01*
X0109401Y0131245D02*
X0138201Y0131245D01*
X0138201Y0132444D02*
X0109401Y0132444D01*
X0109401Y0133642D02*
X0138201Y0133642D01*
D33*
X0089947Y0109100D02*
X0089947Y0099950D01*
X0090051Y0099150D01*
X0087191Y0099490D02*
X0087191Y0109100D01*
X0078923Y0109100D02*
X0078923Y0102278D01*
X0081301Y0099850D01*
X0081301Y0090868D01*
X0081285Y0090852D01*
X0079317Y0090852D02*
X0079317Y0097900D01*
X0078951Y0098850D01*
X0083301Y0095600D02*
X0087191Y0099490D01*
X0083301Y0095600D02*
X0083301Y0090899D01*
X0083254Y0090852D01*
X0075380Y0090852D02*
X0075380Y0092521D01*
X0073411Y0094490D01*
X0073411Y0109100D01*
X0116061Y0071060D02*
X0116101Y0071100D01*
X0123308Y0074000D02*
X0123359Y0074051D01*
X0106641Y0055340D02*
X0106641Y0054500D01*
X0092451Y0052250D02*
X0084801Y0052250D01*
X0084801Y0052300D02*
X0077601Y0052300D01*
X0082051Y0048750D02*
X0082832Y0047969D01*
X0082832Y0042781D01*
X0080864Y0042781D02*
X0080864Y0041663D01*
X0073801Y0034600D01*
X0084801Y0042781D02*
X0084801Y0052300D01*
X0084801Y0059419D01*
X0082832Y0059419D02*
X0082832Y0062319D01*
X0080801Y0060850D02*
X0080864Y0060537D01*
X0080864Y0059419D01*
X0080801Y0060850D02*
X0078301Y0063350D01*
X0086769Y0062569D02*
X0086769Y0059419D01*
X0088738Y0059419D02*
X0088738Y0052237D01*
X0092451Y0052250D01*
X0088401Y0049100D02*
X0086769Y0047469D01*
X0086769Y0042781D01*
X0088738Y0042781D02*
X0088738Y0045837D01*
X0089801Y0046900D01*
X0086769Y0062569D02*
X0087901Y0063700D01*
X0090601Y0063700D01*
X0091101Y0063200D01*
M02*
