G75*
%MOIN*%
%OFA0B0*%
%FSLAX25Y25*%
%IPPOS*%
%LPD*%
%AMOC8*
5,1,8,0,0,1.08239X$1,22.5*
%
%ADD10R,0.03162X0.01981*%
%ADD11R,0.01981X0.03162*%
%ADD12R,0.14383X0.14383*%
%ADD13R,0.02178X0.15800*%
%ADD14R,0.01784X0.04737*%
%ADD15R,0.03300X0.05800*%
%ADD16R,0.05918X0.06706*%
%ADD17R,0.04800X0.04800*%
%ADD18R,0.06115X0.02375*%
%ADD19R,0.07800X0.07800*%
%ADD20C,0.01661*%
%ADD21R,0.06706X0.05918*%
%ADD22R,0.05131X0.04737*%
%ADD23R,0.02965X0.05524*%
%ADD24R,0.08674X0.18910*%
%ADD25R,0.04800X0.03300*%
%ADD26R,0.04068X0.03280*%
%ADD27C,0.07400*%
%ADD28C,0.04737*%
%ADD29R,0.04737X0.05131*%
%ADD30R,0.09800X0.09800*%
%ADD31C,0.03400*%
D10*
X0071049Y0074710D03*
X0071049Y0076679D03*
X0071049Y0078647D03*
X0071049Y0080616D03*
X0071049Y0082584D03*
X0071049Y0084553D03*
X0071049Y0086521D03*
X0071049Y0088490D03*
X0089553Y0088490D03*
X0089553Y0086521D03*
X0089553Y0084553D03*
X0089553Y0082584D03*
X0089553Y0080616D03*
X0089553Y0078647D03*
X0089553Y0076679D03*
X0089553Y0074710D03*
D11*
X0087191Y0072348D03*
X0085222Y0072348D03*
X0083254Y0072348D03*
X0081285Y0072348D03*
X0079317Y0072348D03*
X0077348Y0072348D03*
X0075380Y0072348D03*
X0073411Y0072348D03*
X0073411Y0090852D03*
X0075380Y0090852D03*
X0077348Y0090852D03*
X0079317Y0090852D03*
X0081285Y0090852D03*
X0083254Y0090852D03*
X0085222Y0090852D03*
X0087191Y0090852D03*
D12*
X0080301Y0081600D03*
D13*
X0081679Y0109100D03*
X0084435Y0109100D03*
X0087191Y0109100D03*
X0089947Y0109100D03*
X0092702Y0109100D03*
X0095458Y0109100D03*
X0098214Y0109100D03*
X0100970Y0109100D03*
X0103726Y0109100D03*
X0106482Y0109100D03*
X0109238Y0109100D03*
X0111994Y0109100D03*
X0114750Y0109100D03*
X0117506Y0109100D03*
X0120262Y0109100D03*
X0078923Y0109100D03*
X0076167Y0109100D03*
X0073411Y0109100D03*
X0070655Y0109100D03*
X0067899Y0109100D03*
X0065143Y0109100D03*
X0062388Y0109100D03*
X0059632Y0109100D03*
X0056876Y0109100D03*
X0054120Y0109100D03*
X0051364Y0109100D03*
X0048608Y0109100D03*
X0045852Y0109100D03*
X0043096Y0109100D03*
X0040340Y0109100D03*
D14*
X0080864Y0059419D03*
X0082832Y0059419D03*
X0084801Y0059419D03*
X0086769Y0059419D03*
X0088738Y0059419D03*
X0088738Y0042781D03*
X0086769Y0042781D03*
X0084801Y0042781D03*
X0082832Y0042781D03*
X0080864Y0042781D03*
D15*
X0073801Y0034600D03*
X0068801Y0034600D03*
D16*
X0099161Y0054500D03*
X0106641Y0054500D03*
X0106441Y0065200D03*
X0098961Y0065200D03*
D17*
X0038251Y0070900D03*
X0038251Y0089900D03*
D18*
X0037782Y0085518D03*
X0037782Y0082959D03*
X0037782Y0080400D03*
X0037782Y0077841D03*
X0037782Y0075282D03*
D19*
X0027501Y0066150D03*
X0027501Y0094650D03*
D20*
X0115507Y0063930D02*
X0116615Y0063930D01*
X0115507Y0063930D02*
X0115507Y0067006D01*
X0116615Y0067006D01*
X0116615Y0063930D01*
X0116615Y0065590D02*
X0115507Y0065590D01*
X0122987Y0063930D02*
X0124095Y0063930D01*
X0122987Y0063930D02*
X0122987Y0067006D01*
X0124095Y0067006D01*
X0124095Y0063930D01*
X0124095Y0065590D02*
X0122987Y0065590D01*
X0122987Y0053694D02*
X0124095Y0053694D01*
X0122987Y0053694D02*
X0122987Y0056770D01*
X0124095Y0056770D01*
X0124095Y0053694D01*
X0124095Y0055354D02*
X0122987Y0055354D01*
X0120355Y0053694D02*
X0119247Y0053694D01*
X0119247Y0056770D01*
X0120355Y0056770D01*
X0120355Y0053694D01*
X0120355Y0055354D02*
X0119247Y0055354D01*
X0116615Y0053694D02*
X0115507Y0053694D01*
X0115507Y0056770D01*
X0116615Y0056770D01*
X0116615Y0053694D01*
X0116615Y0055354D02*
X0115507Y0055354D01*
D21*
X0133001Y0058710D03*
X0133001Y0066190D03*
D22*
X0059597Y0053900D03*
X0052904Y0053900D03*
X0050947Y0044200D03*
X0044254Y0044200D03*
X0042497Y0053850D03*
X0035804Y0053850D03*
D23*
X0046261Y0063681D03*
X0053741Y0063681D03*
X0053741Y0073919D03*
X0050001Y0073919D03*
X0046261Y0073919D03*
D24*
X0031364Y0019567D03*
X0043238Y0019567D03*
D25*
X0064964Y0019600D03*
X0072838Y0015860D03*
X0072838Y0023340D03*
X0085364Y0019600D03*
X0093238Y0015860D03*
X0093238Y0023340D03*
X0111964Y0038250D03*
X0119838Y0034510D03*
X0119838Y0041990D03*
D26*
X0115351Y0023978D03*
X0115351Y0014922D03*
D27*
X0131901Y0024607D03*
X0131901Y0034450D03*
X0131901Y0044293D03*
X0124559Y0074051D03*
X0132433Y0092949D03*
X0104874Y0092949D03*
D28*
X0108811Y0083500D03*
X0132433Y0083500D03*
X0062801Y0066450D03*
X0062601Y0072850D03*
D29*
X0105101Y0022346D03*
X0105101Y0015654D03*
D30*
X0080301Y0081600D03*
D31*
X0071001Y0093600D03*
X0067951Y0095450D03*
X0064201Y0095300D03*
X0059301Y0099100D03*
X0052801Y0099100D03*
X0049301Y0099100D03*
X0045801Y0099100D03*
X0042096Y0099100D03*
X0042801Y0085900D03*
X0042801Y0072600D03*
X0046301Y0068800D03*
X0039501Y0057900D03*
X0031601Y0043600D03*
X0035801Y0034600D03*
X0054101Y0011900D03*
X0072801Y0019500D03*
X0076601Y0017800D03*
X0085401Y0023300D03*
X0085401Y0028800D03*
X0082051Y0048750D03*
X0074801Y0055200D03*
X0077601Y0058700D03*
X0078301Y0063350D03*
X0081801Y0063350D03*
X0085801Y0065850D03*
X0085801Y0069100D03*
X0092301Y0072100D03*
X0098301Y0072100D03*
X0100901Y0076500D03*
X0099801Y0080600D03*
X0095647Y0083100D03*
X0096901Y0092400D03*
X0094701Y0095200D03*
X0090901Y0095200D03*
X0090051Y0099150D03*
X0086801Y0095300D03*
X0078951Y0098850D03*
X0075801Y0099600D03*
X0076501Y0096100D03*
X0061251Y0083700D03*
X0057301Y0083600D03*
X0057301Y0075700D03*
X0065901Y0052000D03*
X0072101Y0051500D03*
X0091101Y0063200D03*
X0092451Y0052250D03*
X0116101Y0071100D03*
X0119901Y0051200D03*
X0123601Y0051200D03*
X0116050Y0098998D03*
X0111994Y0098998D03*
X0107738Y0098998D03*
X0120301Y0121000D03*
X0065101Y0120200D03*
M02*
