G75*
%MOIN*%
%OFA0B0*%
%FSLAX25Y25*%
%IPPOS*%
%LPD*%
%AMOC8*
5,1,8,0,0,1.08239X$1,22.5*
%
%ADD10R,0.02362X0.01181*%
%ADD11R,0.01181X0.02362*%
%ADD12R,0.13583X0.13583*%
%ADD13R,0.01378X0.15000*%
%ADD14R,0.00984X0.03937*%
%ADD15R,0.02500X0.05000*%
%ADD16R,0.05118X0.05906*%
%ADD17R,0.04000X0.04000*%
%ADD18R,0.05315X0.01575*%
%ADD19R,0.07000X0.07000*%
%ADD20C,0.01181*%
%ADD21R,0.04331X0.03937*%
%ADD22R,0.02165X0.04724*%
%ADD23R,0.07874X0.18110*%
%ADD24R,0.04000X0.02500*%
%ADD25R,0.03268X0.02480*%
%ADD26C,0.05000*%
%ADD27C,0.06600*%
%ADD28R,0.03937X0.04331*%
%ADD29C,0.03937*%
%ADD30R,0.09000X0.09000*%
%ADD31C,0.02600*%
%ADD32C,0.01200*%
%ADD33C,0.01000*%
D10*
X0071049Y0074710D03*
X0071049Y0076679D03*
X0071049Y0078647D03*
X0071049Y0080616D03*
X0071049Y0082584D03*
X0071049Y0084553D03*
X0071049Y0086521D03*
X0071049Y0088490D03*
X0089553Y0088490D03*
X0089553Y0086521D03*
X0089553Y0084553D03*
X0089553Y0082584D03*
X0089553Y0080616D03*
X0089553Y0078647D03*
X0089553Y0076679D03*
X0089553Y0074710D03*
D11*
X0087191Y0072348D03*
X0085222Y0072348D03*
X0083254Y0072348D03*
X0081285Y0072348D03*
X0079317Y0072348D03*
X0077348Y0072348D03*
X0075380Y0072348D03*
X0073411Y0072348D03*
X0073411Y0090852D03*
X0075380Y0090852D03*
X0077348Y0090852D03*
X0079317Y0090852D03*
X0081285Y0090852D03*
X0083254Y0090852D03*
X0085222Y0090852D03*
X0087191Y0090852D03*
D12*
X0080301Y0081600D03*
D13*
X0081679Y0109100D03*
X0078923Y0109100D03*
X0076167Y0109100D03*
X0073411Y0109100D03*
X0070655Y0109100D03*
X0067899Y0109100D03*
X0065143Y0109100D03*
X0062388Y0109100D03*
X0059632Y0109100D03*
X0056876Y0109100D03*
X0054120Y0109100D03*
X0051364Y0109100D03*
X0048608Y0109100D03*
X0045852Y0109100D03*
X0043096Y0109100D03*
X0040340Y0109100D03*
X0084435Y0109100D03*
X0087191Y0109100D03*
X0089947Y0109100D03*
X0092702Y0109100D03*
X0095458Y0109100D03*
X0098214Y0109100D03*
X0100970Y0109100D03*
X0103726Y0109100D03*
X0106482Y0109100D03*
X0109238Y0109100D03*
X0111994Y0109100D03*
X0114750Y0109100D03*
X0117506Y0109100D03*
X0120262Y0109100D03*
D14*
X0088738Y0059419D03*
X0086769Y0059419D03*
X0084801Y0059419D03*
X0082832Y0059419D03*
X0080864Y0059419D03*
X0080864Y0042781D03*
X0082832Y0042781D03*
X0084801Y0042781D03*
X0086769Y0042781D03*
X0088738Y0042781D03*
D15*
X0073801Y0034600D03*
X0068801Y0034600D03*
D16*
X0099161Y0054500D03*
X0106641Y0054500D03*
X0106441Y0065200D03*
X0098961Y0065200D03*
D17*
X0038251Y0070900D03*
X0038251Y0089900D03*
D18*
X0037782Y0085518D03*
X0037782Y0082959D03*
X0037782Y0080400D03*
X0037782Y0077841D03*
X0037782Y0075282D03*
D19*
X0027501Y0066150D03*
X0027501Y0094650D03*
D20*
X0115667Y0064090D02*
X0116455Y0064090D01*
X0115667Y0064090D02*
X0115667Y0066846D01*
X0116455Y0066846D01*
X0116455Y0064090D01*
X0116455Y0065270D02*
X0115667Y0065270D01*
X0115667Y0066450D02*
X0116455Y0066450D01*
X0123147Y0064090D02*
X0123935Y0064090D01*
X0123147Y0064090D02*
X0123147Y0066846D01*
X0123935Y0066846D01*
X0123935Y0064090D01*
X0123935Y0065270D02*
X0123147Y0065270D01*
X0123147Y0066450D02*
X0123935Y0066450D01*
X0123935Y0053854D02*
X0123147Y0053854D01*
X0123147Y0056610D01*
X0123935Y0056610D01*
X0123935Y0053854D01*
X0123935Y0055034D02*
X0123147Y0055034D01*
X0123147Y0056214D02*
X0123935Y0056214D01*
X0120195Y0053854D02*
X0119407Y0053854D01*
X0119407Y0056610D01*
X0120195Y0056610D01*
X0120195Y0053854D01*
X0120195Y0055034D02*
X0119407Y0055034D01*
X0119407Y0056214D02*
X0120195Y0056214D01*
X0116455Y0053854D02*
X0115667Y0053854D01*
X0115667Y0056610D01*
X0116455Y0056610D01*
X0116455Y0053854D01*
X0116455Y0055034D02*
X0115667Y0055034D01*
X0115667Y0056214D02*
X0116455Y0056214D01*
D21*
X0059597Y0053900D03*
X0052904Y0053900D03*
X0050947Y0044200D03*
X0044254Y0044200D03*
X0042497Y0053850D03*
X0035804Y0053850D03*
D22*
X0046261Y0063681D03*
X0053741Y0063681D03*
X0053741Y0073919D03*
X0050001Y0073919D03*
X0046261Y0073919D03*
D23*
X0031364Y0019567D03*
X0043238Y0019567D03*
D24*
X0064964Y0019600D03*
X0072838Y0015860D03*
X0072838Y0023340D03*
X0085364Y0019600D03*
X0093238Y0015860D03*
X0093238Y0023340D03*
X0111964Y0034850D03*
X0119838Y0031110D03*
X0119838Y0038590D03*
D25*
X0115351Y0023978D03*
X0115351Y0014922D03*
D26*
X0123359Y0074051D03*
X0131233Y0092949D03*
X0103674Y0092949D03*
D27*
X0131501Y0046093D03*
X0131501Y0036250D03*
X0131501Y0026407D03*
D28*
X0105101Y0022346D03*
X0105101Y0015654D03*
D29*
X0062801Y0066450D03*
X0062601Y0072850D03*
D30*
X0080301Y0081600D03*
D31*
X0071051Y0093350D03*
X0066201Y0093300D03*
X0059301Y0099100D03*
X0052801Y0099100D03*
X0049301Y0099100D03*
X0045801Y0099100D03*
X0042096Y0099100D03*
X0042801Y0085900D03*
X0042801Y0072600D03*
X0046301Y0068800D03*
X0039501Y0057900D03*
X0031601Y0043600D03*
X0035801Y0034600D03*
X0054101Y0011900D03*
X0072801Y0019500D03*
X0076601Y0017800D03*
X0085401Y0023300D03*
X0085401Y0028800D03*
X0082051Y0048750D03*
X0074801Y0054100D03*
X0072101Y0051500D03*
X0065901Y0052000D03*
X0077601Y0058700D03*
X0078301Y0063350D03*
X0081801Y0063350D03*
X0085801Y0065850D03*
X0085801Y0069100D03*
X0092301Y0072100D03*
X0099801Y0080600D03*
X0095647Y0083100D03*
X0090051Y0099150D03*
X0078951Y0098850D03*
X0075801Y0099600D03*
X0076501Y0096100D03*
X0063851Y0083600D03*
X0057301Y0083600D03*
X0057301Y0075700D03*
X0092451Y0052250D03*
X0116101Y0071100D03*
X0119901Y0051200D03*
X0123601Y0051200D03*
X0115750Y0098998D03*
X0111994Y0099139D03*
X0107738Y0098883D03*
X0120301Y0118600D03*
X0065301Y0118600D03*
D32*
X0064801Y0118600D01*
X0059632Y0118600D01*
X0041051Y0118600D01*
X0040340Y0117889D01*
X0040340Y0109100D01*
X0043096Y0109100D02*
X0043096Y0100100D01*
X0042096Y0099100D01*
X0045801Y0099100D02*
X0045852Y0099151D01*
X0045852Y0109100D01*
X0048608Y0109100D02*
X0048608Y0099793D01*
X0049301Y0099100D01*
X0051364Y0101037D02*
X0051364Y0109100D01*
X0054120Y0109100D02*
X0054120Y0101781D01*
X0056801Y0099100D01*
X0059301Y0099100D01*
X0061801Y0099100D01*
X0062301Y0099000D01*
X0062301Y0097200D01*
X0066201Y0093300D01*
X0066739Y0092800D01*
X0071049Y0088490D01*
X0071049Y0086521D02*
X0060222Y0086521D01*
X0057301Y0083600D01*
X0055785Y0080616D02*
X0053442Y0082959D01*
X0037782Y0082959D01*
X0037841Y0082900D01*
X0037782Y0080400D02*
X0051401Y0080400D01*
X0053154Y0078647D01*
X0071049Y0078647D01*
X0071049Y0076679D02*
X0066430Y0076679D01*
X0062601Y0072850D01*
X0066689Y0070350D02*
X0071049Y0074710D01*
X0072949Y0072348D02*
X0068301Y0067700D01*
X0066689Y0070350D02*
X0062801Y0066450D01*
X0065901Y0061000D02*
X0065901Y0052000D01*
X0072101Y0051500D02*
X0072201Y0055300D01*
X0072201Y0064000D01*
X0077348Y0069247D01*
X0077348Y0072348D01*
X0079317Y0072348D02*
X0079317Y0068216D01*
X0074801Y0063500D01*
X0074801Y0054100D01*
X0077601Y0056000D02*
X0081501Y0052100D01*
X0077601Y0056000D02*
X0077601Y0058700D01*
X0081801Y0063350D02*
X0082832Y0062319D01*
X0081801Y0063350D02*
X0081285Y0064366D01*
X0081285Y0072348D01*
X0083254Y0072348D02*
X0083254Y0068147D01*
X0083301Y0067600D01*
X0085051Y0065850D01*
X0085801Y0065850D01*
X0085801Y0069100D02*
X0085222Y0069179D01*
X0085222Y0072348D01*
X0087191Y0072348D02*
X0087191Y0072010D01*
X0091701Y0067500D01*
X0092163Y0072100D02*
X0089553Y0074710D01*
X0089553Y0076679D02*
X0092322Y0076679D01*
X0094701Y0074300D01*
X0092301Y0072100D02*
X0092163Y0072100D01*
X0097501Y0076400D02*
X0095254Y0078647D01*
X0089553Y0078647D01*
X0089553Y0080616D02*
X0095817Y0080616D01*
X0099801Y0080600D01*
X0095647Y0083100D02*
X0095035Y0082584D01*
X0089553Y0082584D01*
X0089553Y0084553D02*
X0093454Y0084553D01*
X0096201Y0087300D01*
X0095601Y0090100D02*
X0092022Y0086521D01*
X0089553Y0086521D01*
X0089553Y0088490D02*
X0089991Y0088490D01*
X0094001Y0092500D01*
X0090901Y0095200D02*
X0087191Y0091490D01*
X0087191Y0090852D01*
X0085222Y0090852D02*
X0085222Y0094021D01*
X0087501Y0096300D01*
X0077348Y0095253D02*
X0077348Y0090852D01*
X0077348Y0095253D02*
X0076501Y0096100D01*
X0075801Y0099600D02*
X0076167Y0100216D01*
X0076167Y0109100D01*
X0070655Y0109100D02*
X0070655Y0093746D01*
X0071051Y0093350D01*
X0062301Y0099000D02*
X0062301Y0109013D01*
X0062388Y0109100D01*
X0065143Y0109100D02*
X0065143Y0118257D01*
X0064801Y0118600D01*
X0059632Y0118600D02*
X0059632Y0109100D01*
X0065143Y0109100D02*
X0067899Y0109100D01*
X0070655Y0109100D01*
X0052801Y0099600D02*
X0051364Y0101037D01*
X0052801Y0099600D02*
X0052801Y0099100D01*
X0042801Y0085900D02*
X0042001Y0085500D01*
X0037964Y0085500D01*
X0037782Y0085518D01*
X0038251Y0089900D02*
X0033501Y0094650D01*
X0027501Y0094650D01*
X0027501Y0066150D01*
X0033501Y0066150D01*
X0038251Y0070900D01*
X0038251Y0065850D01*
X0042401Y0061700D01*
X0042401Y0053946D01*
X0042497Y0053850D01*
X0052854Y0053850D01*
X0052904Y0053900D01*
X0053741Y0059756D02*
X0059597Y0053900D01*
X0053741Y0059756D02*
X0053741Y0063681D01*
X0046261Y0063681D02*
X0042801Y0067141D01*
X0042801Y0072600D01*
X0041501Y0075300D02*
X0037801Y0075300D01*
X0037782Y0075282D01*
X0038251Y0074813D01*
X0038251Y0070900D01*
X0041501Y0075300D02*
X0044301Y0078100D01*
X0048401Y0078100D01*
X0050001Y0076500D01*
X0050001Y0073919D01*
X0046301Y0073878D02*
X0046301Y0068800D01*
X0046201Y0063741D02*
X0046261Y0063681D01*
X0039501Y0057900D02*
X0036004Y0054404D01*
X0035804Y0053850D01*
X0035804Y0052650D01*
X0044254Y0044200D01*
X0050947Y0044200D02*
X0053001Y0044200D01*
X0066501Y0030700D01*
X0083501Y0030700D01*
X0085401Y0028800D01*
X0087801Y0025900D02*
X0062701Y0025900D01*
X0050401Y0038200D01*
X0031888Y0038200D01*
X0031580Y0038508D01*
X0031501Y0019704D01*
X0031364Y0019567D01*
X0039601Y0030800D02*
X0035801Y0034600D01*
X0039601Y0030800D02*
X0048601Y0030800D01*
X0070201Y0009100D01*
X0107701Y0009100D01*
X0110901Y0012300D01*
X0110901Y0019300D01*
X0115351Y0023750D01*
X0115351Y0023978D01*
X0119838Y0028465D01*
X0119838Y0031110D01*
X0119838Y0038070D02*
X0131501Y0026407D01*
X0120016Y0014922D01*
X0115351Y0014922D01*
X0105101Y0015654D02*
X0093744Y0015654D01*
X0093238Y0015860D01*
X0089378Y0012000D01*
X0070901Y0012000D01*
X0064964Y0017937D01*
X0064964Y0019600D01*
X0072801Y0019500D02*
X0072838Y0019537D01*
X0072838Y0023340D01*
X0076601Y0017800D02*
X0074501Y0015723D01*
X0072838Y0015860D01*
X0085364Y0019600D02*
X0085401Y0019937D01*
X0085401Y0023300D01*
X0087801Y0025900D02*
X0090361Y0023340D01*
X0093238Y0023340D01*
X0094532Y0022346D01*
X0105101Y0022346D01*
X0111964Y0029209D01*
X0111964Y0034850D01*
X0119838Y0038070D02*
X0119838Y0038590D01*
X0119901Y0051200D02*
X0119901Y0055132D01*
X0119801Y0055232D01*
X0123541Y0055232D02*
X0123541Y0058760D01*
X0122001Y0060300D01*
X0117701Y0060300D01*
X0116061Y0058660D01*
X0116061Y0055232D01*
X0111601Y0060300D02*
X0111601Y0071900D01*
X0113701Y0074000D01*
X0123308Y0074000D01*
X0116061Y0071060D02*
X0116061Y0065468D01*
X0111601Y0060300D02*
X0106641Y0055340D01*
X0099161Y0054500D02*
X0097101Y0052440D01*
X0097101Y0048400D01*
X0095601Y0046900D01*
X0089801Y0046900D01*
X0088401Y0049100D02*
X0094901Y0049100D01*
X0094901Y0061300D01*
X0098961Y0065200D01*
X0103641Y0067982D02*
X0103674Y0092949D01*
X0107738Y0098883D02*
X0107738Y0099437D01*
X0109301Y0101000D01*
X0109238Y0109100D01*
X0111994Y0109100D02*
X0111994Y0099139D01*
X0114801Y0099946D02*
X0114801Y0107100D01*
X0114750Y0109100D01*
X0117506Y0109100D02*
X0120262Y0109100D01*
X0131213Y0098149D01*
X0131233Y0092949D01*
X0115750Y0098998D02*
X0114801Y0099946D01*
X0120262Y0109100D02*
X0120262Y0118561D01*
X0120301Y0118600D01*
X0075380Y0072348D02*
X0075380Y0071600D01*
X0075380Y0070479D01*
X0065901Y0061000D01*
X0072949Y0072348D02*
X0073411Y0072348D01*
X0071049Y0080616D02*
X0055785Y0080616D01*
X0057301Y0075700D02*
X0055519Y0073919D01*
X0053741Y0073919D01*
X0046301Y0073878D02*
X0046261Y0073919D01*
X0063851Y0083600D02*
X0064867Y0082584D01*
X0071049Y0082584D01*
X0071049Y0084553D02*
X0066654Y0084553D01*
X0103641Y0067982D02*
X0106441Y0065200D01*
X0123541Y0055232D02*
X0123601Y0055172D01*
X0123601Y0051200D01*
X0054101Y0011900D02*
X0046401Y0011900D01*
X0043238Y0015063D01*
X0043238Y0019567D01*
X0031580Y0038508D02*
X0031601Y0043600D01*
D33*
X0068801Y0039400D02*
X0068801Y0034600D01*
X0068801Y0039400D02*
X0081501Y0052100D01*
X0084801Y0052100D01*
X0084801Y0042781D01*
X0082832Y0042781D02*
X0082832Y0046569D01*
X0082051Y0048750D01*
X0084801Y0052100D02*
X0084801Y0052250D01*
X0092451Y0052250D01*
X0088738Y0056037D01*
X0088738Y0059419D01*
X0084801Y0059419D02*
X0084801Y0052250D01*
X0088401Y0049100D02*
X0086769Y0047469D01*
X0086769Y0042781D01*
X0088738Y0042781D02*
X0088738Y0045837D01*
X0089801Y0046900D01*
X0080864Y0042781D02*
X0080864Y0041663D01*
X0073801Y0034600D01*
X0080864Y0059419D02*
X0080864Y0060537D01*
X0080801Y0060850D01*
X0078301Y0063350D01*
X0082832Y0062319D02*
X0082832Y0059419D01*
X0106641Y0055340D02*
X0106641Y0054500D01*
X0116061Y0071060D02*
X0116101Y0071100D01*
X0123308Y0074000D02*
X0123359Y0074051D01*
X0090051Y0099150D02*
X0089947Y0099950D01*
X0089947Y0109100D01*
X0087191Y0109100D02*
X0087191Y0099490D01*
X0083301Y0095600D01*
X0083301Y0090899D01*
X0083254Y0090852D01*
X0081301Y0090868D02*
X0081301Y0099850D01*
X0078923Y0102278D01*
X0078923Y0109100D01*
X0073411Y0109100D02*
X0073411Y0094490D01*
X0075380Y0092521D01*
X0075380Y0090852D01*
X0079317Y0090852D02*
X0079317Y0097900D01*
X0078951Y0098850D01*
X0081301Y0090868D02*
X0081285Y0090852D01*
M02*
