G75*
%MOIN*%
%OFA0B0*%
%FSLAX25Y25*%
%IPPOS*%
%LPD*%
%AMOC8*
5,1,8,0,0,1.08239X$1,22.5*
%
%ADD10C,0.00900*%
%ADD11C,0.00500*%
%ADD12C,0.00600*%
%ADD13C,0.00800*%
%ADD14C,0.01600*%
%ADD15R,0.01600X0.02300*%
%ADD16C,0.00200*%
%ADD17C,0.01200*%
%ADD18C,0.01969*%
%ADD19C,0.01000*%
D10*
X0128251Y0010834D02*
X0128935Y0010150D01*
X0130303Y0010150D01*
X0130987Y0010834D01*
X0130987Y0013570D01*
X0130303Y0014254D01*
X0128935Y0014254D01*
X0128251Y0013570D01*
X0128251Y0010834D01*
X0132855Y0010150D02*
X0132855Y0012886D01*
X0134907Y0012886D01*
X0135590Y0012202D01*
X0135590Y0010150D01*
D11*
X0125313Y0057200D02*
X0114289Y0057200D01*
X0114289Y0063500D01*
X0125313Y0063500D01*
X0125313Y0057200D01*
X0090143Y0071757D02*
X0070458Y0071757D01*
X0070458Y0091443D01*
X0090143Y0091443D01*
X0090143Y0071757D01*
X0086008Y0074395D02*
X0086010Y0074476D01*
X0086016Y0074557D01*
X0086026Y0074638D01*
X0086040Y0074718D01*
X0086058Y0074797D01*
X0086079Y0074875D01*
X0086105Y0074953D01*
X0086134Y0075028D01*
X0086167Y0075103D01*
X0086203Y0075175D01*
X0086243Y0075246D01*
X0086287Y0075314D01*
X0086334Y0075381D01*
X0086384Y0075445D01*
X0086437Y0075506D01*
X0086493Y0075565D01*
X0086552Y0075621D01*
X0086613Y0075674D01*
X0086677Y0075724D01*
X0086744Y0075771D01*
X0086812Y0075815D01*
X0086883Y0075855D01*
X0086955Y0075891D01*
X0087030Y0075924D01*
X0087105Y0075953D01*
X0087183Y0075979D01*
X0087261Y0076000D01*
X0087340Y0076018D01*
X0087420Y0076032D01*
X0087501Y0076042D01*
X0087582Y0076048D01*
X0087663Y0076050D01*
X0087744Y0076048D01*
X0087825Y0076042D01*
X0087906Y0076032D01*
X0087986Y0076018D01*
X0088065Y0076000D01*
X0088143Y0075979D01*
X0088221Y0075953D01*
X0088296Y0075924D01*
X0088371Y0075891D01*
X0088443Y0075855D01*
X0088514Y0075815D01*
X0088582Y0075771D01*
X0088649Y0075724D01*
X0088713Y0075674D01*
X0088774Y0075621D01*
X0088833Y0075565D01*
X0088889Y0075506D01*
X0088942Y0075445D01*
X0088992Y0075381D01*
X0089039Y0075314D01*
X0089083Y0075246D01*
X0089123Y0075175D01*
X0089159Y0075103D01*
X0089192Y0075028D01*
X0089221Y0074953D01*
X0089247Y0074875D01*
X0089268Y0074797D01*
X0089286Y0074718D01*
X0089300Y0074638D01*
X0089310Y0074557D01*
X0089316Y0074476D01*
X0089318Y0074395D01*
X0089316Y0074314D01*
X0089310Y0074233D01*
X0089300Y0074152D01*
X0089286Y0074072D01*
X0089268Y0073993D01*
X0089247Y0073915D01*
X0089221Y0073837D01*
X0089192Y0073762D01*
X0089159Y0073687D01*
X0089123Y0073615D01*
X0089083Y0073544D01*
X0089039Y0073476D01*
X0088992Y0073409D01*
X0088942Y0073345D01*
X0088889Y0073284D01*
X0088833Y0073225D01*
X0088774Y0073169D01*
X0088713Y0073116D01*
X0088649Y0073066D01*
X0088582Y0073019D01*
X0088514Y0072975D01*
X0088443Y0072935D01*
X0088371Y0072899D01*
X0088296Y0072866D01*
X0088221Y0072837D01*
X0088143Y0072811D01*
X0088065Y0072790D01*
X0087986Y0072772D01*
X0087906Y0072758D01*
X0087825Y0072748D01*
X0087744Y0072742D01*
X0087663Y0072740D01*
X0087582Y0072742D01*
X0087501Y0072748D01*
X0087420Y0072758D01*
X0087340Y0072772D01*
X0087261Y0072790D01*
X0087183Y0072811D01*
X0087105Y0072837D01*
X0087030Y0072866D01*
X0086955Y0072899D01*
X0086883Y0072935D01*
X0086812Y0072975D01*
X0086744Y0073019D01*
X0086677Y0073066D01*
X0086613Y0073116D01*
X0086552Y0073169D01*
X0086493Y0073225D01*
X0086437Y0073284D01*
X0086384Y0073345D01*
X0086334Y0073409D01*
X0086287Y0073476D01*
X0086243Y0073544D01*
X0086203Y0073615D01*
X0086167Y0073687D01*
X0086134Y0073762D01*
X0086105Y0073837D01*
X0086079Y0073915D01*
X0086058Y0073993D01*
X0086040Y0074072D01*
X0086026Y0074152D01*
X0086016Y0074233D01*
X0086010Y0074314D01*
X0086008Y0074395D01*
D12*
X0080353Y0069717D02*
X0078618Y0067982D01*
X0079052Y0068416D02*
X0080353Y0067115D01*
X0078618Y0067115D02*
X0078618Y0069717D01*
X0077406Y0067115D02*
X0075672Y0067115D01*
X0075672Y0069717D01*
X0074460Y0069283D02*
X0074026Y0069717D01*
X0073159Y0069717D01*
X0072725Y0069283D01*
X0072725Y0067549D01*
X0073159Y0067115D01*
X0074026Y0067115D01*
X0074460Y0067549D01*
X0074301Y0065100D02*
X0068301Y0065100D01*
X0068241Y0065098D01*
X0068180Y0065093D01*
X0068121Y0065084D01*
X0068062Y0065071D01*
X0068003Y0065055D01*
X0067946Y0065035D01*
X0067891Y0065012D01*
X0067836Y0064985D01*
X0067784Y0064956D01*
X0067733Y0064923D01*
X0067684Y0064887D01*
X0067638Y0064849D01*
X0067594Y0064807D01*
X0067552Y0064763D01*
X0067514Y0064717D01*
X0067478Y0064668D01*
X0067445Y0064617D01*
X0067416Y0064565D01*
X0067389Y0064510D01*
X0067366Y0064455D01*
X0067346Y0064398D01*
X0067330Y0064339D01*
X0067317Y0064280D01*
X0067308Y0064221D01*
X0067303Y0064160D01*
X0067301Y0064100D01*
X0067301Y0042600D01*
X0067801Y0042600D01*
X0074801Y0042600D01*
X0075301Y0042600D01*
X0075301Y0064100D01*
X0075299Y0064160D01*
X0075294Y0064221D01*
X0075285Y0064280D01*
X0075272Y0064339D01*
X0075256Y0064398D01*
X0075236Y0064455D01*
X0075213Y0064510D01*
X0075186Y0064565D01*
X0075157Y0064617D01*
X0075124Y0064668D01*
X0075088Y0064717D01*
X0075050Y0064763D01*
X0075008Y0064807D01*
X0074964Y0064849D01*
X0074918Y0064887D01*
X0074869Y0064923D01*
X0074818Y0064956D01*
X0074766Y0064985D01*
X0074711Y0065012D01*
X0074656Y0065035D01*
X0074599Y0065055D01*
X0074540Y0065071D01*
X0074481Y0065084D01*
X0074422Y0065093D01*
X0074361Y0065098D01*
X0074301Y0065100D01*
X0071513Y0067115D02*
X0070646Y0067982D01*
X0069779Y0067115D01*
X0069779Y0069717D01*
X0068567Y0069283D02*
X0068133Y0069717D01*
X0067266Y0069717D01*
X0066832Y0069283D01*
X0066832Y0068850D01*
X0067266Y0068416D01*
X0068133Y0068416D01*
X0068567Y0067982D01*
X0068567Y0067549D01*
X0068133Y0067115D01*
X0067266Y0067115D01*
X0066832Y0067549D01*
X0071513Y0067115D02*
X0071513Y0069717D01*
X0067037Y0078415D02*
X0067471Y0078849D01*
X0067471Y0080583D01*
X0067037Y0081017D01*
X0066170Y0081017D01*
X0065736Y0080583D01*
X0065736Y0078849D01*
X0066170Y0078415D01*
X0067037Y0078415D01*
X0064639Y0078415D02*
X0063772Y0078415D01*
X0064205Y0078415D02*
X0064205Y0081017D01*
X0063772Y0081017D02*
X0064639Y0081017D01*
X0062560Y0080583D02*
X0062560Y0078849D01*
X0062126Y0078415D01*
X0060825Y0078415D01*
X0060825Y0081017D01*
X0062126Y0081017D01*
X0062560Y0080583D01*
X0059613Y0081017D02*
X0059613Y0078415D01*
X0058746Y0079282D01*
X0057879Y0078415D01*
X0057879Y0081017D01*
X0056667Y0080583D02*
X0056233Y0081017D01*
X0055366Y0081017D01*
X0054932Y0080583D01*
X0054932Y0080150D01*
X0055366Y0079716D01*
X0056233Y0079716D01*
X0056667Y0079282D01*
X0056667Y0078849D01*
X0056233Y0078415D01*
X0055366Y0078415D01*
X0054932Y0078849D01*
X0052382Y0078300D02*
X0050647Y0078300D01*
X0051515Y0078300D02*
X0051515Y0080902D01*
X0050647Y0080035D01*
X0049436Y0080902D02*
X0049436Y0078734D01*
X0049002Y0078300D01*
X0048135Y0078300D01*
X0047701Y0078734D01*
X0047701Y0080902D01*
X0058051Y0060902D02*
X0059352Y0060902D01*
X0059786Y0060469D01*
X0059786Y0059601D01*
X0059352Y0059167D01*
X0058051Y0059167D01*
X0058051Y0058300D02*
X0058051Y0060902D01*
X0058918Y0059167D02*
X0059786Y0058300D01*
X0060997Y0058734D02*
X0061431Y0058300D01*
X0062299Y0058300D01*
X0062732Y0058734D01*
X0062732Y0059167D01*
X0062299Y0059601D01*
X0060997Y0059601D01*
X0060997Y0058734D01*
X0060997Y0059601D02*
X0061865Y0060469D01*
X0062732Y0060902D01*
X0069301Y0055600D02*
X0071301Y0055600D01*
X0073301Y0055600D01*
X0073301Y0054100D02*
X0069301Y0054100D01*
X0069301Y0052600D01*
X0073301Y0052600D01*
X0073301Y0054100D01*
X0071301Y0055600D02*
X0071301Y0057600D01*
X0071301Y0051100D02*
X0069301Y0051100D01*
X0071301Y0051100D02*
X0071301Y0049100D01*
X0071301Y0051100D02*
X0073301Y0051100D01*
X0065322Y0046002D02*
X0065322Y0043400D01*
X0066189Y0043400D02*
X0064454Y0043400D01*
X0063243Y0043400D02*
X0061508Y0043400D01*
X0061508Y0043834D01*
X0063243Y0045569D01*
X0063243Y0046002D01*
X0061508Y0046002D01*
X0064454Y0045135D02*
X0065322Y0046002D01*
X0067801Y0042600D02*
X0067801Y0041100D01*
X0074801Y0041100D01*
X0074801Y0042600D01*
X0070649Y0030002D02*
X0069781Y0030002D01*
X0069347Y0029569D01*
X0068136Y0030002D02*
X0066401Y0030002D01*
X0067268Y0030002D02*
X0067268Y0027400D01*
X0069347Y0027400D02*
X0071082Y0029135D01*
X0071082Y0029569D01*
X0070649Y0030002D01*
X0071082Y0027400D02*
X0069347Y0027400D01*
X0056979Y0015350D02*
X0055244Y0015350D01*
X0056111Y0015350D02*
X0056111Y0017952D01*
X0055244Y0017085D01*
X0054032Y0017952D02*
X0052297Y0017952D01*
X0053165Y0017952D02*
X0053165Y0015350D01*
X0051086Y0015784D02*
X0051086Y0016217D01*
X0050652Y0016651D01*
X0049351Y0016651D01*
X0049351Y0015350D02*
X0050652Y0015350D01*
X0051086Y0015784D01*
X0050652Y0016651D02*
X0051086Y0017085D01*
X0051086Y0017519D01*
X0050652Y0017952D01*
X0049351Y0017952D01*
X0049351Y0015350D01*
X0039255Y0041800D02*
X0039255Y0044402D01*
X0037954Y0043101D01*
X0039689Y0043101D01*
X0036743Y0043101D02*
X0036309Y0042667D01*
X0035008Y0042667D01*
X0035008Y0041800D02*
X0035008Y0044402D01*
X0036309Y0044402D01*
X0036743Y0043969D01*
X0036743Y0043101D01*
X0035875Y0042667D02*
X0036743Y0041800D01*
X0030805Y0052350D02*
X0029938Y0052350D01*
X0029504Y0052784D01*
X0029504Y0053651D02*
X0030372Y0054085D01*
X0030805Y0054085D01*
X0031239Y0053651D01*
X0031239Y0052784D01*
X0030805Y0052350D01*
X0029504Y0053651D02*
X0029504Y0054952D01*
X0031239Y0054952D01*
X0028293Y0054519D02*
X0028293Y0053651D01*
X0027859Y0053217D01*
X0026558Y0053217D01*
X0026558Y0052350D02*
X0026558Y0054952D01*
X0027859Y0054952D01*
X0028293Y0054519D01*
X0027425Y0053217D02*
X0028293Y0052350D01*
X0028481Y0100800D02*
X0028047Y0101234D01*
X0028481Y0100800D02*
X0029349Y0100800D01*
X0029782Y0101234D01*
X0029782Y0101667D01*
X0029349Y0102101D01*
X0028481Y0102101D01*
X0028047Y0102535D01*
X0028047Y0102969D01*
X0028481Y0103402D01*
X0029349Y0103402D01*
X0029782Y0102969D01*
X0030994Y0103402D02*
X0030994Y0100800D01*
X0032295Y0100800D01*
X0032729Y0101234D01*
X0032729Y0101667D01*
X0032295Y0102101D01*
X0030994Y0102101D01*
X0032295Y0102101D02*
X0032729Y0102535D01*
X0032729Y0102969D01*
X0032295Y0103402D01*
X0030994Y0103402D01*
X0026836Y0103402D02*
X0026836Y0101234D01*
X0026402Y0100800D01*
X0025535Y0100800D01*
X0025101Y0101234D01*
X0025101Y0103402D01*
X0079564Y0096494D02*
X0079564Y0094325D01*
X0079998Y0093891D01*
X0080865Y0093891D01*
X0081299Y0094325D01*
X0081299Y0096494D01*
X0082510Y0095192D02*
X0084245Y0095192D01*
X0083812Y0093891D02*
X0083812Y0096494D01*
X0082510Y0095192D01*
X0093865Y0098005D02*
X0094299Y0097572D01*
X0095167Y0097572D01*
X0095600Y0098005D01*
X0095600Y0099740D01*
X0095167Y0100174D01*
X0094299Y0100174D01*
X0093865Y0099740D01*
X0093865Y0098005D01*
X0096812Y0097572D02*
X0096812Y0100174D01*
X0096812Y0097572D02*
X0098547Y0097572D01*
X0099759Y0097572D02*
X0101493Y0097572D01*
X0102705Y0097572D02*
X0104006Y0097572D01*
X0104440Y0098005D01*
X0104440Y0099740D01*
X0104006Y0100174D01*
X0102705Y0100174D01*
X0102705Y0097572D01*
X0100626Y0098873D02*
X0099759Y0098873D01*
X0099759Y0100174D02*
X0099759Y0097572D01*
X0099759Y0100174D02*
X0101493Y0100174D01*
X0101635Y0073502D02*
X0101201Y0073069D01*
X0101201Y0071334D01*
X0101635Y0070900D01*
X0102502Y0070900D01*
X0102936Y0071334D01*
X0104147Y0070900D02*
X0105882Y0070900D01*
X0105015Y0070900D02*
X0105015Y0073502D01*
X0104147Y0072635D01*
X0102936Y0073069D02*
X0102502Y0073502D01*
X0101635Y0073502D01*
X0107094Y0073069D02*
X0107528Y0073502D01*
X0108395Y0073502D01*
X0108829Y0073069D01*
X0108829Y0072635D01*
X0108395Y0072201D01*
X0108829Y0071767D01*
X0108829Y0071334D01*
X0108395Y0070900D01*
X0107528Y0070900D01*
X0107094Y0071334D01*
X0107961Y0072201D02*
X0108395Y0072201D01*
X0126851Y0062202D02*
X0126851Y0060034D01*
X0127285Y0059600D01*
X0128152Y0059600D01*
X0128586Y0060034D01*
X0128586Y0062202D01*
X0129797Y0061769D02*
X0130231Y0062202D01*
X0131099Y0062202D01*
X0131532Y0061769D01*
X0131532Y0061335D01*
X0129797Y0059600D01*
X0131532Y0059600D01*
X0133300Y0053038D02*
X0133300Y0051303D01*
X0131999Y0052605D01*
X0134601Y0052605D01*
X0134601Y0050092D02*
X0134601Y0048357D01*
X0134601Y0049224D02*
X0131999Y0049224D01*
X0132866Y0048357D01*
X0132432Y0047145D02*
X0131999Y0046712D01*
X0131999Y0045844D01*
X0132432Y0045410D01*
X0134167Y0045410D01*
X0134601Y0045844D01*
X0134601Y0046712D01*
X0134167Y0047145D01*
X0117532Y0047167D02*
X0117532Y0046734D01*
X0117099Y0046300D01*
X0116231Y0046300D01*
X0115797Y0046734D01*
X0116665Y0047601D02*
X0117099Y0047601D01*
X0117532Y0047167D01*
X0117099Y0047601D02*
X0117532Y0048035D01*
X0117532Y0048469D01*
X0117099Y0048902D01*
X0116231Y0048902D01*
X0115797Y0048469D01*
X0114586Y0048902D02*
X0112851Y0048902D01*
X0113718Y0048902D02*
X0113718Y0046300D01*
X0107929Y0046700D02*
X0106194Y0046700D01*
X0107929Y0048435D01*
X0107929Y0048869D01*
X0107495Y0049302D01*
X0106628Y0049302D01*
X0106194Y0048869D01*
X0104115Y0049302D02*
X0104115Y0046700D01*
X0104982Y0046700D02*
X0103247Y0046700D01*
X0102036Y0047134D02*
X0101602Y0046700D01*
X0100735Y0046700D01*
X0100301Y0047134D01*
X0100301Y0048869D01*
X0100735Y0049302D01*
X0101602Y0049302D01*
X0102036Y0048869D01*
X0103247Y0048435D02*
X0104115Y0049302D01*
X0096082Y0043469D02*
X0096082Y0043035D01*
X0095649Y0042601D01*
X0096082Y0042167D01*
X0096082Y0041734D01*
X0095649Y0041300D01*
X0094781Y0041300D01*
X0094347Y0041734D01*
X0093136Y0041734D02*
X0093136Y0043902D01*
X0094347Y0043469D02*
X0094781Y0043902D01*
X0095649Y0043902D01*
X0096082Y0043469D01*
X0095649Y0042601D02*
X0095215Y0042601D01*
X0093136Y0041734D02*
X0092702Y0041300D01*
X0091835Y0041300D01*
X0091401Y0041734D01*
X0091401Y0043902D01*
X0091815Y0030002D02*
X0091815Y0027400D01*
X0092682Y0027400D02*
X0090947Y0027400D01*
X0090947Y0029135D02*
X0091815Y0030002D01*
X0089736Y0030002D02*
X0088001Y0030002D01*
X0088868Y0030002D02*
X0088868Y0027400D01*
X0101201Y0027000D02*
X0101201Y0029602D01*
X0102502Y0029602D01*
X0102936Y0029169D01*
X0102936Y0028301D01*
X0102502Y0027867D01*
X0101201Y0027867D01*
X0102068Y0027867D02*
X0102936Y0027000D01*
X0104147Y0027000D02*
X0105882Y0027000D01*
X0105015Y0027000D02*
X0105015Y0029602D01*
X0104147Y0028735D01*
X0107094Y0029169D02*
X0107094Y0027434D01*
X0108829Y0029169D01*
X0108829Y0027434D01*
X0108395Y0027000D01*
X0107528Y0027000D01*
X0107094Y0027434D01*
X0107094Y0029169D02*
X0107528Y0029602D01*
X0108395Y0029602D01*
X0108829Y0029169D01*
X0113104Y0029452D02*
X0113104Y0026850D01*
X0114405Y0026850D01*
X0114839Y0027284D01*
X0114839Y0029019D01*
X0114405Y0029452D01*
X0113104Y0029452D01*
X0116051Y0028585D02*
X0116918Y0029452D01*
X0116918Y0026850D01*
X0116051Y0026850D02*
X0117786Y0026850D01*
X0130195Y0067452D02*
X0131062Y0067452D01*
X0131496Y0067886D01*
X0132708Y0067452D02*
X0132708Y0070054D01*
X0134443Y0067452D01*
X0134443Y0070054D01*
X0135654Y0069187D02*
X0136522Y0070054D01*
X0136522Y0067452D01*
X0137389Y0067452D02*
X0135654Y0067452D01*
X0131496Y0069620D02*
X0131062Y0070054D01*
X0130195Y0070054D01*
X0129761Y0069620D01*
X0129761Y0067886D01*
X0130195Y0067452D01*
D13*
X0129458Y0069537D02*
X0136544Y0069537D01*
X0136544Y0055363D01*
X0129458Y0055363D01*
X0129458Y0069537D01*
X0128964Y0052167D02*
X0137838Y0052167D01*
X0139775Y0050167D02*
X0139775Y0018733D01*
X0137838Y0016733D02*
X0128964Y0016733D01*
X0127176Y0018733D02*
X0127176Y0050167D01*
X0118469Y0044441D02*
X0113301Y0044441D01*
X0113301Y0040469D01*
X0113301Y0036031D02*
X0113301Y0032059D01*
X0118469Y0032059D01*
X0118501Y0036729D02*
X0118501Y0039716D01*
X0109988Y0050957D02*
X0095814Y0050957D01*
X0095814Y0058043D01*
X0109988Y0058043D01*
X0109988Y0050957D01*
X0109788Y0061657D02*
X0095614Y0061657D01*
X0095614Y0068743D01*
X0109788Y0068743D01*
X0109788Y0061657D01*
X0090313Y0056612D02*
X0090313Y0045588D01*
X0079289Y0045588D01*
X0079289Y0056612D01*
X0090313Y0056612D01*
X0087951Y0055431D02*
X0087951Y0053069D01*
X0088018Y0053071D01*
X0088086Y0053077D01*
X0088152Y0053086D01*
X0088218Y0053100D01*
X0088284Y0053117D01*
X0088348Y0053138D01*
X0088411Y0053162D01*
X0088472Y0053190D01*
X0088532Y0053222D01*
X0088589Y0053256D01*
X0088645Y0053295D01*
X0088699Y0053336D01*
X0088750Y0053380D01*
X0088798Y0053427D01*
X0088844Y0053477D01*
X0088886Y0053529D01*
X0088926Y0053583D01*
X0088962Y0053640D01*
X0088996Y0053699D01*
X0089025Y0053759D01*
X0089052Y0053822D01*
X0089074Y0053885D01*
X0089093Y0053950D01*
X0089108Y0054015D01*
X0089120Y0054082D01*
X0089128Y0054149D01*
X0089132Y0054216D01*
X0089132Y0054284D01*
X0089128Y0054351D01*
X0089120Y0054418D01*
X0089108Y0054485D01*
X0089093Y0054550D01*
X0089074Y0054615D01*
X0089052Y0054678D01*
X0089025Y0054741D01*
X0088996Y0054801D01*
X0088962Y0054860D01*
X0088926Y0054917D01*
X0088886Y0054971D01*
X0088844Y0055023D01*
X0088798Y0055073D01*
X0088750Y0055120D01*
X0088699Y0055164D01*
X0088645Y0055205D01*
X0088589Y0055244D01*
X0088532Y0055278D01*
X0088472Y0055310D01*
X0088411Y0055338D01*
X0088348Y0055362D01*
X0088284Y0055383D01*
X0088218Y0055400D01*
X0088152Y0055414D01*
X0088086Y0055423D01*
X0088018Y0055429D01*
X0087951Y0055431D01*
X0062550Y0056656D02*
X0062550Y0051144D01*
X0049952Y0051144D01*
X0049952Y0056656D01*
X0062550Y0056656D01*
X0055001Y0067109D02*
X0055001Y0070491D01*
X0051058Y0066009D02*
X0048944Y0066009D01*
X0045001Y0067109D02*
X0045001Y0070491D01*
X0045450Y0056606D02*
X0032852Y0056606D01*
X0032852Y0051094D01*
X0045450Y0051094D01*
X0045450Y0056606D01*
X0041302Y0046956D02*
X0053900Y0046956D01*
X0053900Y0041444D01*
X0041302Y0041444D01*
X0041302Y0046956D01*
X0066301Y0025791D02*
X0066301Y0021819D01*
X0066301Y0025791D02*
X0071469Y0025791D01*
X0071501Y0021066D02*
X0071501Y0018079D01*
X0071469Y0013409D02*
X0066301Y0013409D01*
X0066301Y0017381D01*
X0086701Y0017381D02*
X0086701Y0013409D01*
X0091869Y0013409D01*
X0091901Y0018079D02*
X0091901Y0021066D01*
X0091869Y0025791D02*
X0086701Y0025791D01*
X0086701Y0021819D01*
X0102345Y0025299D02*
X0102345Y0012701D01*
X0107857Y0012701D01*
X0107857Y0025299D01*
X0102345Y0025299D01*
X0112890Y0022993D02*
X0112890Y0015907D01*
X0112890Y0012481D02*
X0117812Y0012481D01*
X0117812Y0015907D02*
X0117812Y0022993D01*
X0122742Y0106600D02*
X0125242Y0106600D01*
X0125242Y0125891D01*
X0037742Y0106600D02*
X0035242Y0106600D01*
X0035242Y0125891D01*
D14*
X0030801Y0038000D02*
X0030801Y0033000D01*
X0028301Y0035500D02*
X0033301Y0035500D01*
X0040801Y0035000D02*
X0045801Y0035000D01*
X0069301Y0037600D02*
X0069301Y0039600D01*
X0073301Y0039100D02*
X0073301Y0037600D01*
D15*
X0073301Y0039750D03*
X0069301Y0039750D03*
D16*
X0062050Y0051030D02*
X0050452Y0051030D01*
X0050452Y0056770D01*
X0062050Y0056770D01*
X0062050Y0051030D01*
X0053400Y0047070D02*
X0053400Y0041330D01*
X0041802Y0041330D01*
X0041802Y0047070D01*
X0053400Y0047070D01*
X0044950Y0050980D02*
X0033352Y0050980D01*
X0033352Y0056720D01*
X0044950Y0056720D01*
X0044950Y0050980D01*
X0095527Y0051024D02*
X0095527Y0057976D01*
X0110275Y0057976D01*
X0110275Y0051024D01*
X0095527Y0051024D01*
X0095327Y0061724D02*
X0095327Y0068676D01*
X0110075Y0068676D01*
X0110075Y0061724D01*
X0095327Y0061724D01*
X0129525Y0055076D02*
X0136477Y0055076D01*
X0136477Y0069824D01*
X0129525Y0069824D01*
X0129525Y0055076D01*
X0107971Y0024799D02*
X0102231Y0024799D01*
X0102231Y0013201D01*
X0107971Y0013201D01*
X0107971Y0024799D01*
D17*
X0039190Y0065636D02*
X0032036Y0065636D01*
X0020536Y0068370D02*
X0020536Y0092430D01*
X0032036Y0095164D02*
X0039190Y0095164D01*
D18*
X0115864Y0059366D03*
D19*
X0056301Y0072800D03*
M02*
